<svg xmlns="http://www.w3.org/2000/svg" xmlns:xlink="http://www.w3.org/1999/xlink" width="1998" height="257.842" viewBox="0 0 1998 257.842">
  <defs>
    <filter id="Rectangle_56" x="0" y="117.236" width="1998" height="135" filterUnits="userSpaceOnUse">
      <feOffset dy="-30" input="SourceAlpha"/>
      <feGaussianBlur stdDeviation="13" result="blur"/>
      <feFlood flood-opacity="0.102"/>
      <feComposite operator="in" in2="blur"/>
      <feComposite in="SourceGraphic"/>
    </filter>
    <filter id="Path_33914" x="194.518" y="0" width="247.656" height="222.34" filterUnits="userSpaceOnUse">
      <feOffset dy="-26" input="SourceAlpha"/>
      <feGaussianBlur stdDeviation="15" result="blur-2"/>
      <feFlood flood-opacity="0.102"/>
      <feComposite operator="in" in2="blur-2"/>
      <feComposite in="SourceGraphic"/>
    </filter>
    <linearGradient id="linear-gradient" x1="0.5" x2="0.5" y2="1" gradientUnits="objectBoundingBox">
      <stop offset="0" stop-color="#e04e12"/>
      <stop offset="1" stop-color="#ff7b21"/>
    </linearGradient>
  </defs>
  <g id="Group_3497" data-name="Group 3497" transform="translate(39 -2338.764)">
    <g transform="matrix(1, 0, 0, 1, -39, 2338.76)" filter="url(#Rectangle_56)">
      <rect id="Rectangle_56-2" data-name="Rectangle 56" width="1920" height="57" transform="translate(39 186.24)" fill="#fff"/>
    </g>
    <rect id="Rectangle_57" data-name="Rectangle 57" width="1920" height="3" transform="translate(0 2524)" fill="#f3691b"/>
    <g id="Group_3109" data-name="Group 3109" transform="translate(-276.293 2265.71)">
      <g transform="matrix(1, 0, 0, 1, 237.29, 73.05)" filter="url(#Path_33914)">
        <path id="Path_33914-2" data-name="Path 33914" d="M476.817,268.258c1.355-7.8,5.46-15.278,12.658-21.919a4.494,4.494,0,0,0,1.161-3c2.042-12.444,5.7-24.325,12.231-35.206a63.493,63.493,0,0,1,11.517-14.367,1.64,1.64,0,0,0,.406-2.447c-4.469-7.688-5.368-16.026-4.312-24.7a64.01,64.01,0,0,0,.621-12.725c-.439-5.712,3.5-9.728,9.244-9.836,7.562-.142,13.629,3.352,19.087,8.072,7.115,6.152,11.435,14.043,13.779,23.088.205.793-.06,2.075,1.195,2.153a2.671,2.671,0,0,0,3.064-1.728c1.4-3.268,4.871-4.421,9.5-3.522a56.811,56.811,0,0,1,14.518,5.314c.782.391,1.415.868,1.842-.532,4.568-14.959,15.093-23.938,29.389-29.086,2.648-.954,5.28-1.974,8.187-1.793,3.7.232,7.241,3.092,6.961,6.7-.7,9.082,2.5,17.426,4.221,26.047,2.882,14.433.108,27.329-10.11,38.256a1.984,1.984,0,0,0-.4,2.556,82.506,82.506,0,0,1,6.453,37.02,3.035,3.035,0,0,0,.475,2.036,42.425,42.425,0,0,1,5.909,12.089C637.6,281.225,475.609,275.2,476.817,268.258Z" transform="translate(-237.29 -73.05)" fill="#fdfdfd"/>
      </g>
      <path id="Path_33916" data-name="Path 33916" d="M641.606,400.112a23.584,23.584,0,0,0-2.967-4.435,19.8,19.8,0,0,0-2.488-2.214c-.594-.433-1.394-1.146-2.1-.525-.68.6.109,1.334.4,1.926,2.815,5.749,4.266,11.633,2.121,17.977-1.55,4.585-4.687,7.978-8.2,11.072-9.591,8.438-20.933,13.261-33.321,15.739-20.853,4.171-40.9,1.7-59.973-7.808a65.1,65.1,0,0,1-20.993-16.523c-5.727-6.808-6.7-14.37-4.393-22.649.211-.755.478-1.493.709-2.243.2-.653.786-1.468-.046-1.91-.678-.36-1.349.295-1.881.771a14.66,14.66,0,0,0-2.7,3.812c-.456-.062-.519-.41-.512-.713.236-9.379,3.657-17.215,11.39-22.808a6.113,6.113,0,0,0,2.681-5.066c.713-9.994,4.147-18.777,12.278-25.123,4.373-3.413,9.255-5.146,14.84-2.958,3.916,1.534,6.341,4.5,7.965,8.23,2.4,5.5,2.976,11.354,3.282,17.257a151.9,151.9,0,0,1-.9,21.572c-.091,1-.443,1.345-1.411,1.368a16.438,16.438,0,0,0-4.611.9c-2.605.835-3.661,2.584-3.127,5.289a23.13,23.13,0,0,0,7.986,13.4,2.191,2.191,0,0,1,.689,3.022c-2.087,4.609-6,6.387-10.684,6.8-5.857.517-10.316-1.753-13.136-7.028-.676-1.265-1.417-2.5-2.2-3.7a1.985,1.985,0,0,0-2.367-.969c-1.149.386-.956,1.456-.885,2.342.561,7.091,6.646,13.468,13.889,14.536a19.453,19.453,0,0,0,4.3.3c1.173-.092,1.292.327,1.264,1.271a61.939,61.939,0,0,0,.713,9.787,2.781,2.781,0,0,0,1.966,2.429A33.662,33.662,0,0,0,562.912,435a2.54,2.54,0,0,0,2.475-2.116c.773-2.7,1.665-5.369,2.452-8.067.322-1.1.827-1.29,1.962-1.009,9.367,2.311,18.036.522,26.024-4.736a18.075,18.075,0,0,0,6.312-6.881c.393-.771,1.092-1.682.265-2.52s-1.778-.176-2.539.207a20.967,20.967,0,0,0-3.118,2.024c-5.385,4.045-11.244,6.983-18.08,7.395-4.743.286-9.315-.31-12.909-3.922-2.17-2.18-2.8-4.947-2.939-7.9-.04-.837.484-1.1,1.124-1.379a30.856,30.856,0,0,0,12.625-10.615c2.106-2.879,1.464-5.475-1.689-7.1a31.709,31.709,0,0,0-6.221-2.353c-.7-.193-1.176-.42-1.078-1.311,1.411-12.825,4.026-25.258,12.382-35.633,7.357-9.135,19.622-12.885,29.576-9.212,7.248,2.674,12.467,7.831,16.681,14.082a39.6,39.6,0,0,1,6.968,17.517c.156,1.3-.089,1.78-1.477,1.608a11.594,11.594,0,0,0-4.681.231c-.542.156-1.352.192-1.381.876-.032.748.814.687,1.33.856,6.7,2.189,11.523,6.338,13.731,13.181A26.972,26.972,0,0,1,641.606,400.112Zm-57.361-19.576c-.018.327-.045.653-.053.98-.1,3.9,1,4.893,4.862,4.606a39.863,39.863,0,0,0,7.723-1.3c6.25-1.733,11.925-4.462,15.569-10.136a12.877,12.877,0,0,0,.327-14.273,11.51,11.51,0,0,0-11.225-6.148c-5.564.284-9.5,3.379-12.378,7.919C585.532,367.775,584.541,374.073,584.245,380.536Zm-34.681-14.37c-.1-4.1-.82-8.834-4.269-12.692-5.167-5.779-13.425-5.287-17.865,1.052-2.924,4.174-2.667,9.9.728,14.889,3.675,5.4,8.942,8.687,14.871,11.062,2.394.959,3.838.219,4.587-2.321A47.345,47.345,0,0,0,549.564,366.166Z" transform="translate(-17.673 -116.082)" fill="#fdfdfd"/>
      <path id="Path_33917" data-name="Path 33917" d="M802.866,223.962c.133,7.4-2.883,13.126-7.908,17.977-.613.592-.982.652-1.539-.043a40.2,40.2,0,0,0-6.31-6.434,1.561,1.561,0,0,1-.633-1.345c.034-6.4.738-12.671,3.9-18.405A21.208,21.208,0,0,1,798.5,207.4c.492-.283,1.169-1,1.4.253C800.942,213.164,803,218.493,802.866,223.962Z" transform="translate(-188.219 -38.137)" fill="#fdfdfd"/>
      <path id="Path_33918" data-name="Path 33918" d="M629.65,536.271a15.025,15.025,0,0,0,4.59,6.057,1.176,1.176,0,0,1,.416,1.641c-.84,2.258-1.6,4.55-2.283,6.859a1.273,1.273,0,0,1-1.5,1.078,28.449,28.449,0,0,1-6.592-.848c-.746-.186-1.211-.457-1.322-1.38-.325-2.731-.392-5.467-.46-8.208a1.294,1.294,0,0,1,1.026-1.421A18.966,18.966,0,0,0,629.65,536.271Z" transform="translate(-88.775 -237.863)" fill="#fdfdfd"/>
      <path id="Path_33919" data-name="Path 33919" d="M637.621,251.846c-.048.184-.147.32-.335.185-.035-.025.08-.261.125-.4Z" transform="translate(-97.738 -65.241)" fill="#fdfdfd"/>
      <g id="Group_3110" data-name="Group 3110" transform="translate(482.202 150.04)">
        <path id="Path_33915" data-name="Path 33915" d="M549.26,195.829c8.99-3.486,18.334-3.957,28.139-3.159-1.107-1.782-2.644-2.717-4-3.83-.445-.365-1.26-.645-1.061-1.255.251-.767,1.124-.5,1.737-.412a44.569,44.569,0,0,1,14.341,5.08c2.712,1.414,5.315,3.036,8.079,4.63.43-2.212.767-4.393,1.283-6.531,3.113-12.912,11.311-21.367,23.322-26.436a41.661,41.661,0,0,1,7.6-2.6c1.844-.386,2.929.335,2.688,2.049-1.021,7.258,1.438,13.974,3.053,20.82s2.86,13.73,1.512,20.8c-1.522,7.98-5.8,14.352-11.631,19.792-.983.919-1.291,1.532-.594,2.911,6.39,12.654,8.4,26.171,7.625,40.2a2.711,2.711,0,0,0,.445,2.194c8.252,9.824,8.971,20.89,4.871,32.485-3.9,11.032-11.775,18.873-21.474,25A82.176,82.176,0,0,1,575.524,339.9c-24.621,1.461-47.187-4.264-66.46-20.295-8.342-6.939-14.546-15.5-16.646-26.385-2.624-13.6.795-25.3,11.82-34.262a3.923,3.923,0,0,0,1.307-2.892c2.035-14.287,6.211-27.795,14.576-39.761A56.643,56.643,0,0,1,533,203.088c-3.676-4.79-6.41-9.947-7.209-15.941a55.341,55.341,0,0,1,.376-13.907,36.111,36.111,0,0,0,.294-9.78c-.436-2.867.7-4.122,3.686-4.192a16.5,16.5,0,0,1,8.411,2.345c10.374,5.752,15.969,14.9,18.569,26.2.476,2.072.319,3.118-2.021,3.725a10.545,10.545,0,0,0-6.061,4.072c-.045.139-.16.375-.125.4C549.113,196.149,549.212,196.013,549.26,195.829Zm84.049,97.424a26.975,26.975,0,0,0-.9-11.893c-2.209-6.842-7.033-10.992-13.731-13.181-.516-.169-1.362-.109-1.33-.856.029-.683.839-.719,1.381-.876a11.6,11.6,0,0,1,4.681-.231c1.389.173,1.633-.3,1.477-1.608a39.6,39.6,0,0,0-6.967-17.517c-4.214-6.252-9.433-11.408-16.681-14.083-9.954-3.673-22.219.078-29.577,9.212-8.357,10.375-10.971,22.808-12.382,35.633-.1.891.373,1.118,1.078,1.311a31.725,31.725,0,0,1,6.221,2.353c3.153,1.628,3.795,4.223,1.689,7.1a30.854,30.854,0,0,1-12.625,10.615c-.639.276-1.164.542-1.124,1.379.139,2.95.769,5.717,2.939,7.9,3.595,3.612,8.167,4.208,12.909,3.922,6.836-.412,12.695-3.349,18.08-7.395a20.96,20.96,0,0,1,3.118-2.024c.762-.383,1.72-1.036,2.539-.207s.128,1.749-.265,2.52a18.078,18.078,0,0,1-6.312,6.881c-7.988,5.259-16.657,7.047-26.025,4.736-1.136-.281-1.64-.095-1.962,1.009-.787,2.7-1.679,5.365-2.452,8.066a2.54,2.54,0,0,1-2.475,2.116,33.665,33.665,0,0,1-13.735-1.764,2.781,2.781,0,0,1-1.966-2.429,61.98,61.98,0,0,1-.713-9.787c.027-.944-.091-1.363-1.264-1.271a19.453,19.453,0,0,1-4.3-.3c-7.243-1.068-13.327-7.445-13.888-14.536-.07-.886-.263-1.956.886-2.342a1.985,1.985,0,0,1,2.367.969c.783,1.2,1.523,2.437,2.2,3.7,2.819,5.275,7.278,7.545,13.136,7.028,4.684-.414,8.6-2.192,10.684-6.8a2.191,2.191,0,0,0-.689-3.022,23.13,23.13,0,0,1-7.986-13.4c-.534-2.705.522-4.454,3.127-5.289a16.431,16.431,0,0,1,4.612-.9c.968-.022,1.32-.369,1.411-1.368a151.894,151.894,0,0,0,.9-21.572c-.306-5.9-.885-11.757-3.282-17.257-1.625-3.727-4.049-6.7-7.965-8.231-5.586-2.188-10.467-.455-14.84,2.958-8.131,6.346-11.565,15.129-12.278,25.123a6.113,6.113,0,0,1-2.681,5.066c-7.734,5.593-11.154,13.428-11.39,22.808-.008.3.056.651.512.713a14.659,14.659,0,0,1,2.7-3.812c.533-.476,1.2-1.131,1.881-.771.832.442.247,1.257.046,1.91-.23.749-.5,1.488-.709,2.243-2.306,8.279-1.333,15.841,4.393,22.649a65.1,65.1,0,0,0,20.993,16.523c19.072,9.513,39.121,11.979,59.973,7.808,12.388-2.478,23.729-7.3,33.321-15.739,3.517-3.094,6.653-6.487,8.2-11.072,2.145-6.344.694-12.228-2.122-17.977-.29-.593-1.079-1.326-.4-1.926.7-.621,1.5.092,2.1.525a19.8,19.8,0,0,1,2.487,2.214A23.556,23.556,0,0,1,633.308,293.254Zm-9.285-98.2c.133-5.469-1.924-10.8-2.958-16.31-.234-1.249-.911-.536-1.4-.253a21.213,21.213,0,0,0-8.129,8.313c-3.161,5.735-3.865,12-3.9,18.405a1.56,1.56,0,0,0,.633,1.345,40.21,40.21,0,0,1,6.31,6.434c.558.695.926.635,1.539.043C621.14,208.175,624.157,202.445,624.024,195.049ZM550.252,307.632a18.975,18.975,0,0,1-6.123,3.776,1.294,1.294,0,0,0-1.026,1.421c.068,2.741.135,5.477.46,8.208.11.924.576,1.194,1.322,1.38a28.448,28.448,0,0,0,6.591.848,1.273,1.273,0,0,0,1.5-1.077c.685-2.31,1.443-4.6,2.283-6.859a1.176,1.176,0,0,0-.415-1.641A15.024,15.024,0,0,1,550.252,307.632Z" transform="translate(-491.578 -159.264)" fill="url(#linear-gradient)"/>
        <path id="Path_33920" data-name="Path 33920" d="M705.874,409.48c.3-6.462,1.287-12.76,4.825-18.35,2.873-4.539,6.814-7.634,12.378-7.919a11.51,11.51,0,0,1,11.225,6.148,12.877,12.877,0,0,1-.327,14.273c-3.644,5.674-9.319,8.4-15.569,10.136a39.884,39.884,0,0,1-7.723,1.3c-3.865.286-4.957-.7-4.861-4.606C705.829,410.133,705.856,409.807,705.874,409.48Zm12.448-13.842a3.426,3.426,0,0,0,3.363-3.571,3.473,3.473,0,0,0-3.579-3.373,3.553,3.553,0,0,0-3.3,3.488A3.491,3.491,0,0,0,718.321,395.637Z" transform="translate(-621.504 -295.066)" fill="url(#linear-gradient)"/>
        <path id="Path_33921" data-name="Path 33921" d="M580.616,387.7a47.342,47.342,0,0,1-1.948,11.988c-.75,2.541-2.194,3.28-4.587,2.322-5.929-2.375-11.2-5.665-14.871-11.062-3.4-4.987-3.652-10.715-.728-14.888,4.44-6.338,12.7-6.831,17.865-1.052C579.8,378.863,580.516,383.6,580.616,387.7Zm-16.572-11.035a3.483,3.483,0,0,0-3.476,3.49,3.526,3.526,0,0,0,3.546,3.417,3.454,3.454,0,0,0-.07-6.907Z" transform="translate(-530.927 -287.653)" fill="url(#linear-gradient)"/>
      </g>
      <path id="Path_33922" data-name="Path 33922" d="M732.182,404.111a3.491,3.491,0,0,1-3.512-3.456,3.553,3.553,0,0,1,3.3-3.488,3.473,3.473,0,0,1,3.579,3.373A3.425,3.425,0,0,1,732.182,404.111Z" transform="translate(-153.162 -153.5)" fill="#fdfdfd"/>
      <path id="Path_33923" data-name="Path 33923" d="M570.371,385.437a3.454,3.454,0,1,1-3.477,3.49A3.5,3.5,0,0,1,570.371,385.437Z" transform="translate(-55.052 -146.388)" fill="#fdfdfd"/>
    </g>
  </g>
</svg>
