<svg xmlns="http://www.w3.org/2000/svg" xmlns:xlink="http://www.w3.org/1999/xlink" width="1920" height="2203" viewBox="0 0 1920 2203">
  <defs>
    <clipPath id="clip-path">
      <rect id="Rectangle_60" data-name="Rectangle 60" width="1920" height="2203" transform="translate(0 4678)" fill="#fff" stroke="#707070" stroke-width="1"/>
    </clipPath>
    <clipPath id="clip-path-2">
      <rect id="Rectangle_59" data-name="Rectangle 59" width="1148.591" height="1021.334" fill="none"/>
    </clipPath>
  </defs>
  <g id="Mask_Group_2" data-name="Mask Group 2" transform="translate(0 -4678)" clip-path="url(#clip-path)">
    <rect id="Rectangle_58" data-name="Rectangle 58" width="1921" height="2203" transform="translate(0 4678)" fill="#111215"/>
    <g id="Group_3198" data-name="Group 3198" transform="translate(-268.036 4678)">
      <path id="Path_34102" data-name="Path 34102" d="M678.477,153.849H219.1S204.722,394.434,213.018,500.8s20.958,292.786,10.835,422.114-7.6,318.223,7.591,409.826-9.493,353.982-11.389,425.4-2.533,223.569,0,290.847-5.938,281.49-9.612,307.388c21,0,468.034-2.052,468.034-2.052Z" transform="translate(-210.44 -153.378)" fill="#a55914"/>
      <path id="Path_34103" data-name="Path 34103" d="M289.818,261.606c-32.285,70.109-38.342,171.855-36.614,246.573S268.973,671.1,270.177,739.333s-6.868,189.488,1.2,281.228,4.609,256.6,9.225,327.585-5.77,169.79-16.155,155.232-14.277-117.314-12.113-157.14-9.157-153.641-14.964-209.647-5.445-95.795,2.595-150.4,7.254-145.72-13.548-178.167c2.3,24.469,8.614,100.161,2.121,146.574s-12.113,127.151-7.784,177.468,12.974,148.6,13.841,179.8,2.164,143.661,2.164,143.661c11.252,31.462,13.411,63.841,24.663,81.779s2.595,70.2,4.329,89.707,5.189,39.783,6.924,46.027c4.323-22.237,2.158-43.688,8.651-64.359s11.677-34.724,15.575-50.7,1.728-108.432.43-131.835,0-136.894,0-155.625-1.3-161.469-3.892-192.669-6.057-157.571-6.924-184.878,3.025-157.01,1.734-178.741-10.385-135.771-13.417-172.553-3.025-100.361-.867-142.482S287.928,276.133,289.818,261.606Z" transform="translate(114.066 410.995)" fill="#d8925d"/>
      <path id="Path_34104" data-name="Path 34104" d="M257.955,349.209c-2.925,50.5-5.233,101.982-16.773,161.269s-16.149,125.847-7.5,180.974,21.738,256.254,32.017,311.767c5.795-35.89,1.441-169.279-3.169-214.519s-17-127.412-13.691-175.26,11.09-113.1,12.824-135.727S266.063,386.6,257.955,349.209Z" transform="translate(82.532 869.813)" fill="#874208"/>
      <path id="Path_34105" data-name="Path 34105" d="M219.883,154.2c7.354,25.368,14.421,116.241,12.687,178.653s-25.305,207.957,18.213,289.244c-5.527-52.794-8.832-138.528-3.643-190.679s6.418-128.991,3.643-162.922-5.52-96.887-11.864-114.3C234.884,153.434,219.883,154.2,219.883,154.2Z" transform="translate(156.905 -153.337)" fill="#874208"/>
      <path id="Path_34106" data-name="Path 34106" d="M255.74,154.114c3.749,22.9,5.994,94.9,4.9,145.888-1.453,67.645,4.036,131.685,2.339,189.557-1.572,53.187,8.071,126.546-3.624,181.061s-16.018,156.6-28.131,207.358c-1.516-56.911,4.61-181.7,9.8-218.623s6.337-127.55,3.455-163.366-5.47-148.795-4.173-194.035,2.682-114.782-3.418-147.878C240.04,153.6,255.74,154.114,255.74,154.114Z" transform="translate(74.611 -153.256)" fill="#d8925d"/>
      <path id="Path_34107" data-name="Path 34107" d="M235.413,154.113C241.469,190,244.2,240.452,240.166,316.9s1.8,142.757,6.312,220.763-9.337,124.812-11.932,182.533,4.753,126.265,16.442,158.3c-1.135-32.734.43-143.087,5.62-180.924s12.4-120.5,8.221-158.35-6.319-144.7-5.757-166.154,1-95.558,1.865-119.741,1.385-74.213-4.285-98.733C251.848,153.091,235.413,154.113,235.413,154.113Z" transform="translate(54.85 -153.774)" fill="#874208"/>
      <path id="Path_34108" data-name="Path 34108" d="M268.375,259.882c-13.5,24.2-24.744,105.831-21.282,163.035S264.976,542.7,265.556,584.736s.574,152.818-8.651,212.1-30.657,242.032-2.638,302.5c-1.4-27.932,3.212-133.239,7.541-174.842s19.324-163.509,19.9-201.233,1.441-137.056-3.462-164.619S260.99,423.5,261.258,385.5,264.52,293.271,268.375,259.882Z" transform="translate(-0.68 401.966)" fill="#874208"/>
      <path id="Path_34109" data-name="Path 34109" d="M251.876,259.882c-3.144,26.31-8.52,105.051-5.059,162.255s17.889,119.784,18.463,161.819,3.243,152.874-5.982,212.155-23.989,222.833-21.207,293.5c8.371-50.181,19.112-124.288,23.44-165.892s19.324-163.509,19.9-201.233,1.441-137.056-3.468-164.619-17.247-135.147-16.991-173.139S254.677,290.439,251.876,259.882Z" transform="translate(15.819 401.966)" fill="#d8925d"/>
      <path id="Path_34110" data-name="Path 34110" d="M258.988,286.59c-6.874,56.249,1.759,92.152,10.117,119.173,9.98,32.241,8.92,73.2,4.067,115.449-4.191,36.421,1.678,112.143-6.948,155.138-4.017-26.684-13.479-110.933-10.766-154.1s6.013-79.478,0-105.051C246.868,380.67,242.945,338.161,258.988,286.59Z" transform="translate(-42.907 541.848)" fill="#d8925d"/>
      <path id="Path_34111" data-name="Path 34111" d="M281.15,286.59c-22.561,31.549-38.311,67.171-28.505,108.775s12.768,55.127,7.254,89.445-11.1,130.313,28.487,191.54c-9.038-56.019-14.228-118.212-10.766-154.1s8.252-69.685,0-105.051S263.385,349.083,281.15,286.59Z" transform="translate(-65.069 541.848)" fill="#874208"/>
      <path id="Path_34112" data-name="Path 34112" d="M222.671,2135.527c-3.462-159.13-4.042-267.3-2.7-465.958.742-109.38,3.038-223.713-.112-334-4.691-164.046,3.967-244.19-6.418-365.883-6.923-93.605,0-187.068,2.258-304.313,3.019-156.766,2.133-488.35,2.645-511.559l25.773.206V2247.134C233.3,2229.114,222.671,2148.014,222.671,2135.527Z" transform="translate(223.921 -153.551)" fill="#d8925d"/>
      <path id="Path_34113" data-name="Path 34113" d="M295.948,156.413c0,65.556-8.071,137.062-9.225,212.984s4.616,133.132-3.462,189.3-22.667,128.548-39.6,149.044c10.273-60.828,16.336-201.514,17.247-263.845s3.318-151.982,4.472-194.627-.143-93.606-.143-95.165C276.05,153.519,295.948,156.413,295.948,156.413Z" transform="translate(-35.114 -152.449)" fill="#d38646"/>
      <path id="Path_34114" data-name="Path 34114" d="M448.453,301.683c-6.924,140.411-6.924,277.7-27.688,421.235-5.189,73.652-9.132,185.689-28.374,279.819-19.5,95.4,7.61,222.54-27,309.909-41.542-96.724-27.694-275.771-20.777-330.748,24.233-168.493,6.924-324.5,34.618-493C393.077,407.776,372.306,329.764,355,248.64c-5.564,69.548-17.3,131.049-20.765,262.1-6.924,90.761-19.742,133.394-20.8,237.616-28.518-58.22-7.753-280.517-17.271-437.308-45,202.817-13.847,408.753,3.462,611.571,6.923,65.524-3.462,127.93-17.309,196.574-13.841,71.768,24.232,134.174,38.073,202.817-13.841,0-27.688,9.362-38.073,12.481a67.092,67.092,0,0,1-10.566,3.7c-.262-1.871-.536-3.7-.824-5.445-15.188-91.6-17.721-280.5-7.591-409.826S260.8,607.181,252.5,500.8s6.081-346.953,6.081-346.953H471.707C439.8,194.037,448.453,273.6,448.453,301.683Z" transform="translate(-249.919 -153.378)" fill="#874208"/>
      <path id="Path_34115" data-name="Path 34115" d="M220.052,1045.06c-2.533-67.277-1.9-219.428,0-290.847,1.759-66.254,23.116-296.829,14.072-402.953,24.226-3.549,46.781-7.229,46.781-5.1,17.309,165.374-3.462,330.748-13.841,496.122-10.385,143.53-13.367,248.581,10.859,388.993,3.462,21.837,49.133,14.558,49.133-13.523-3.562-121.755,7.5-263.364,7.4-368.758C327.53,609.4,343.217,489.078,353.6,423.553c38.073,140.411,13.3,169.017,37.531,315.672,6.924,37.444,7.46,159.224,4,193.542-6.917,118.574-17.3,240.261-20.765,358.835,0,15.6,20.765,46.8,41.536,21.838,13.841-12.481,6.924-42.639,10.385-61.365,10.379-71.762,8.165-132.521,10.379-205.936,3.462-114.713-11.365-243.654,31.15-353.626,17.309,12.475-.736,139.831,20.035,239.681,13.847,56.168,11.122,186.625,7.66,259.56-1.547,32.547-17.309,65.518-3.462,93.605,3.462,6.244,27.688,34.325,34.612,15.6,27.688-74.887.574-178.373,34.612-284.984,13.847,65.525,12.113,247.022,31.15,250.659,19.617,5.726,19.617-122.2,30-144.048,13.236,75.4,17.839,160.521,56.056,178.834V1350.4s-447.033,2.052-468.034,2.052C214.114,1326.551,222.585,1112.338,220.052,1045.06Z" transform="translate(-210.438 850.552)" fill="#874208"/>
      <g id="Group_3148" data-name="Group 3148" transform="translate(384.241 672.601)">
        <path id="Path_34116" data-name="Path 34116" d="M251.419,1790.976l6.861-.854c-11.995-77.376-11.028-179.6-10-287.822.393-42.04.8-85.522.511-129.615-1.372-205.549-8.882-418.652-10.392-448.81-1.066-21.5-.5-55.8.106-92.121.861-51.684,1.834-110.26-1.547-149.144-5.4-61.944-11.514-132.153-12.687-210-1.141-75.623,12.537-209.66,12.674-211.007,0,0-20.733,135.147-19.6,211.095,1.179,78.043,7.3,148.358,12.7,210.389,3.368,38.6,2.4,97.024,1.534,148.57-.6,36.415-1.179,70.808-.094,92.489,1.5,30.139,9.007,243.105,10.379,448.573.293,44.049-.118,87.5-.511,129.527C240.329,1610.707,239.362,1713.151,251.419,1790.976Z" transform="translate(-217.305 -261.606)" fill="#472305"/>
      </g>
      <g id="Group_3149" data-name="Group 3149" transform="translate(329.466 1219.022)">
        <path id="Path_34117" data-name="Path 34117" d="M240.529,1331.952c7.8-49.974,7.691-101.708,7.6-147.354-.056-29.31-.112-57,1.871-81.075,5.146-62.381,3.555-219.821.006-291.464-.986-19.954-3.312-41.248-5.782-63.785-6.568-60.048-14.016-128.111-2.813-215.192,15.444-120.109-1.672-183.874-1.672-183.874.1.624,10.123,63.978-5.208,183.169-11.284,87.736-3.8,156.149,2.807,216.5,2.457,22.455,4.772,43.662,5.757,63.447,3.537,71.506,5.127,228.572.006,290.741-2.008,24.307-1.952,52.114-1.9,81.542.1,45.44.2,96.943-7.529,146.481Z" transform="translate(-228.716 -349.209)" fill="#472305"/>
      </g>
      <g id="Group_3150" data-name="Group 3150" transform="translate(233.629 661.455)">
        <path id="Path_34118" data-name="Path 34118" d="M240.459,1800.029l6.88-.655c-2.183-18.444,1.385-58.152,5.913-108.426,7.142-79.315,16.928-187.953,9.113-278.6-2.95-34.244-.624-89.632,1.628-143.2,2.5-59.393,4.859-115.481.642-145.72-8-57.409,6.662-214.537,18.463-306.147,10.978-85.154,12.244-234.011-4.628-335.725-15.905-95.9-4.7-220.5-4.585-221.742,0,0-18.288,126.053-2.264,222.659,16.791,101.2,15.525,249.336,4.6,334.1-11.845,91.9-26.528,249.679-18.457,307.631,4.142,29.734,1.684,88.185-.692,144.709-2.258,53.748-4.6,109.318-1.616,143.923,7.778,90.144-1.983,198.495-9.107,277.611C241.8,1741.048,238.195,1781.011,240.459,1800.029Z" transform="translate(-239.764 -259.819)" fill="#472305"/>
      </g>
      <g id="Group_3151" data-name="Group 3151" transform="translate(134.937 1274.105)">
        <path id="Path_34119" data-name="Path 34119" d="M267.3,1286.829c.374-7.9,1.129-41.174,2.071-83.295,2.083-92.558,5.221-232.445,8.2-274.124,4.273-59.88,7.235-126.084-.006-204.352-7.061-76.347-6.755-113.69-2.039-202.462,4.566-86.108-6.917-164.557-6.917-164.557.05.774,4.553,78.48,0,164.257-4.728,89.1-5.034,126.583,2.058,203.279,7.2,77.868,4.254,143.792,0,203.441-2.988,41.816-6.131,181.772-8.208,274.386-.948,42.09-1.7,75.33-2.071,83.158Z" transform="translate(-260.385 -358.04)" fill="#472305"/>
      </g>
      <g id="Group_3152" data-name="Group 3152" transform="translate(201.786 828.438)">
        <path id="Path_34120" data-name="Path 34120" d="M271.2,676.35c-.112-.823-10.884-83.956-7.148-159.411.324-6.618,1.061-13.261,1.84-20.3,2.638-23.783,5.632-50.736-5.14-91.815-13.51-51.49,3.044-117.576,3.212-118.237,0,0-23.827,66.772-9.955,119.653,10.51,40.082,7.578,66.485,5,89.782-.786,7.123-1.534,13.853-1.871,20.64C253.377,592.631,271.2,676.35,271.2,676.35Z" transform="translate(-249.674 -286.59)" fill="#472305"/>
      </g>
      <g id="Group_3153" data-name="Group 3153" transform="translate(304.26 0.34)">
        <path id="Path_34121" data-name="Path 34121" d="M235.176,878.21c.006-1.1.992-111.27,12.088-204.221,9.219-77.145,5.158-164.663,1.9-234.99-.717-15.55-1.4-30.239-1.878-43.606-.973-27.407-.187-59.674.643-93.836,1.341-55.264,2.732-112.424-3.936-147.728l-6.824,1.042c6.555,34.718,5.177,91.572,3.836,146.555-.836,34.25-1.616,66.6-.636,94.167.474,13.392,1.16,28.1,1.877,43.662,3.256,70.122,7.3,157.39-1.859,234.073C229.244,766.6,235.176,878.21,235.176,878.21Z" transform="translate(-233.598 -153.828)" fill="#472305"/>
      </g>
      <g id="Group_3154" data-name="Group 3154" transform="translate(208.545 0.858)">
        <path id="Path_34122" data-name="Path 34122" d="M269.052,486.574c-1.952-58.6-.206-116.223,1.64-177.231,1.466-48.459,2.975-98.558,2.975-155.431h-6.924c0,56.792-1.51,106.848-2.975,155.257-1.846,61.1-3.593,118.817-1.634,177.593,3.412,102.581-14.047,220.4-14.221,221.586C247.913,708.347,272.483,589.673,269.052,486.574Z" transform="translate(-247.913 -153.911)" fill="#472305"/>
      </g>
      <g id="Group_3155" data-name="Group 3155" transform="translate(108.388 0.752)">
        <path id="Path_34123" data-name="Path 34123" d="M265.262,1198.969l6.874-.742c-.125-.9-11.926-90.424,0-178.809C280.058,960.7,282.484,926.9,285.06,891.1c1.4-19.523,2.857-39.72,5.258-65.381,2.757-29.5,2.913-61.5,3.081-95.364.256-51.9.517-105.563,9.868-159.5,11.858-68.387,7.828-124.144,3.562-183.181-1.316-18.257-2.682-37.138-3.524-56.3-1.2-27.595-2.732-49.3-4.086-68.45-2.526-35.809-4.516-64.1-2.838-108.813l-6.918-.212c-1.7,45.016.312,73.434,2.844,109.418,1.354,19.112,2.875,40.774,4.079,68.3.842,19.243,2.208,38.161,3.537,56.455,4.241,58.688,8.246,114.114-3.5,181.828-9.431,54.4-9.693,108.3-9.949,160.427-.162,33.751-.324,65.624-3.056,94.878-2.408,25.717-3.861,45.945-5.271,65.506-2.564,35.7-4.99,69.417-12.887,127.962C253.237,1107.827,265.138,1198.07,265.262,1198.969Z" transform="translate(-259.89 -153.894)" fill="#472305"/>
      </g>
      <g id="Group_3156" data-name="Group 3156" transform="translate(53.346 0.82)">
        <path id="Path_34124" data-name="Path 34124" d="M283.49,748.061c-.1-.63-10.2-64.657.019-159.38,6.181-57.278,5.339-100.192,4.528-141.69-.555-28.4-1.079-55.227.674-85.116,4.129-70.346,7.822-144.229,6.93-207.969l-6.924.075c.892,63.566-2.8,137.33-6.917,207.564-1.765,30.108-1.241,57.042-.686,85.553.811,41.329,1.647,84.062-4.5,140.985C266.312,683.609,283.49,748.061,283.49,748.061Z" transform="translate(-273.324 -153.905)" fill="#472305"/>
      </g>
      <g id="Group_3157" data-name="Group 3157" transform="translate(392.426 0.265)">
        <path id="Path_34125" data-name="Path 34125" d="M235.147,625.917c-.087-1.042-8.283-105.058-.006-192.3,8.751-92.227,2.258-228.478-8.957-279.8l-6.8,1.192c11.134,50.935,17.565,186.332,8.857,278.079C219.921,520.835,235.147,625.917,235.147,625.917Z" transform="translate(-219.385 -153.816)" fill="#472305"/>
      </g>
    </g>
    <g id="Group_3199" data-name="Group 3199" transform="translate(-888.094 5899.917) rotate(-34)">
      <path id="Path_34091" data-name="Path 34091" d="M609.293,568.743C644.5,483.371,735.639,379.049,851.02,329.68s214.594-37.83,244.59-35.522,73.265,6.917,102.687-8.658c-2.314,19.037-28.268,35.772-43.269,43.849,40.381,13.841,137.873,65.181,159.8,162.093s-36.919,226.139,43.837,257.289c-19.61,15-88.84,3.462-110.759-72.685s-15.575-153.448-119.99-148.832c11.539,6.917,29.422,22.523,34.618,40.387-27.114-13.853-131.529-13.567-187.772,94.6,14.708-7.784,41.535-7.784,55.376-4.322-39.8,22.5-544.936,873.463-737.886,706.966,10.161-138.459,178.036-396.609,183.226-535.779S609.293,568.743,609.293,568.743Z" transform="translate(-288.669 -279.35)" fill="#f26c21"/>
      <path id="Path_34092" data-name="Path 34092" d="M899.057,312.184c-12.986,22.5-76.583,27.688-98.652,45.427,116.528-13.847,264.213,35.192,274.012,223.638,1.884-30.526,2.364-61.533-4.029-89.807-21.925-96.911-119.416-148.252-159.8-162.093,15-8.078,40.955-24.813,43.269-43.849-29.422,15.575-72.692,10.959-102.687,8.658S721.951,280.31,606.582,329.68,400.06,483.371,364.855,568.743c0,0-8.639,14.427-25.935,59.424,80.189-65.481,87.761-160.521,239.313-244.852C749.969,287.739,819.879,328.189,899.057,312.184Z" transform="translate(-44.231 -279.35)" fill="#ffa578"/>
      <path id="Path_34093" data-name="Path 34093" d="M1191.373,327.541c-65.768-27.694-153.448,1.154-215.748,21.918,31.15,13.847,65.761,6.924,96.911,20.771-124.606,3.455-197.291,103.835-263.052,197.285,38.073-10.379,72.685-31.15,110.758-31.15-48.336,44.2-544.618,552.284-585.523,519.044-22.486,56.062-39.446,107.815-42.471,148.988,192.95,166.5,698.084-684.468,737.886-706.966-13.841-3.462-40.668-3.462-55.376,4.322,56.243-108.164,160.658-108.451,187.772-94.6-5.2-17.864-23.078-33.47-34.618-40.387,104.415-4.616,98.072,72.685,120,148.832,12.837,44.6,41.9,67.022,67.732,74.937a139.007,139.007,0,0,1-25.05-40.325C1259.442,467.142,1274.443,365.614,1191.373,327.541Z" transform="translate(-288.669 -118.904)" fill="#e04f10"/>
      <path id="Path_34094" data-name="Path 34094" d="M293,1372.62l-1.322-1.135.131-1.734c5-68.125,48.477-166.4,90.518-261.443,44.28-100.086,90.063-203.572,92.695-274.205C480.033,699.767,600.18,580.831,609.38,571.917c34.269-82.528,122.641-188.633,243.28-240.261a480.362,480.362,0,0,1,190.062-38.61c22.1,0,39.389,1.441,50.841,2.389l11,.879c11.864.948,25.312,2.015,38.916,2.015,24.189,0,42.571-3.506,56.193-10.722l5.857-3.094-.792,6.568c-2.183,18-22.773,33.452-38.46,42.745,51.266,19.654,134.779,72.96,154.926,162.018,8.265,36.558,5.258,76.877,2.358,115.867-4.815,64.564-8.976,120.314,39.358,138.952l5.763,2.227-4.909,3.755c-5.4,4.123-13.766,6.393-23.565,6.4-25.755,0-74.245-17.028-92.627-80.875-4-13.916-7.061-27.813-10.018-41.248-12.824-58.277-22.973-104.421-95.895-105.269,10.41,8.177,22.816,21.12,27.183,36.152l2.239,7.691-7.136-3.643c-7.242-3.7-19.742-5.913-33.421-5.913-22.33,0-97.1,6.7-145.183,90.73,9.687-2.8,20.2-3.306,26.553-3.306a94.65,94.65,0,0,1,22.074,2.32l8.415,2.1-7.548,4.267C978.775,697.746,347.718,1419.845,293,1372.62Zm5.851-4.1c53.118,45.353,661.508-664.146,724.469-703.648a109.493,109.493,0,0,0-11.408-.586c-13.3,0-25.162,2.239-32.528,6.138l-9.812,5.19,5.127-9.843c49.569-95.352,131.816-102.756,155.843-102.756,10.928,0,21,1.3,28.861,3.661-6.45-12.88-19.436-24.838-30.258-31.337l-9.862-5.913,11.49-.511c88.554-3.886,100.024,49,113.559,110.522,2.932,13.329,5.963,27.114,9.911,40.818,17.24,59.892,62.15,75.866,85.971,75.866a42.821,42.821,0,0,0,13.454-1.971c-45.951-22.954-41.6-81.324-37.013-142.95,2.875-38.492,5.838-78.286-2.2-113.827-25.586-113.148-152.163-157.745-157.54-159.592l-7.491-2.564,6.974-3.755c10.273-5.533,32.647-18.987,39.545-34.493-13.679,5.564-30.944,8.283-52.457,8.283-13.885,0-27.47-1.085-39.465-2.04l-11.028-.879c-11.334-.942-28.455-2.364-50.268-2.364a473.423,473.423,0,0,0-187.336,38.055C736.849,388.748,647.946,496.538,615.5,575.23l-.281.686-.543.512c-1.273,1.21-127.662,121.811-132.739,257.931-2.682,71.962-48.74,176.071-93.281,276.75C347.207,1204.8,304.362,1301.644,298.848,1368.522Z" transform="translate(-291.675 -284.514)" fill="#472305"/>
    </g>
    <g id="Group_3243" data-name="Group 3243" transform="translate(1920 4678) rotate(90)">
      <g id="Group_3242" data-name="Group 3242" transform="translate(0)" clip-path="url(#clip-path-2)">
        <g id="Group_3241" data-name="Group 3241" transform="translate(-142.395 -170.079)">
          <g id="Group_3229" data-name="Group 3229" transform="translate(0 0)">
            <path id="Path_34277" data-name="Path 34277" d="M1250.964,69.14C1153.857,172.318,936.37,314.949,803.856,379.689,765.417,404.98,659.934,505.4,581.311,572.9,474.088,664.95,236.031,810.279,0,875.018V628.2c68.785-28.323,326.4-176.684,490.272-320.327S805.879,0,805.879,0C915.128,0,1250.964,69.14,1250.964,69.14Z" transform="translate(2.023 2.019)" fill="#a55914"/>
            <path id="Path_34278" data-name="Path 34278" d="M0,243.358c29.2-18.636,64.138-34.194,80.449-56.1s26.649-46.3,52.435-60.392,59.509-26.888,82.439-52.523S278.99,11.238,294.006,0c-17.989,6.222-63.846,38.087-81.043,54.778s-52.6,38.685-86.492,55-44.507,37.56-57.152,62.847S21.221,217.993,0,243.358Z" transform="translate(458.378 372.45)" fill="#874208"/>
            <path id="Path_34279" data-name="Path 34279" d="M0,215.886c17.872-1.182,86.995-20.57,118.015-50.916s84.3-47.841,130.83-71.8S375.235,19.307,410.966,0C385.07,4.471,345.8,23.353,297.995,49.649A1147.758,1147.758,0,0,1,175.34,107.941c-29.673,11.843-41.14,26.715-62.045,40.522S41.812,191.271,0,191.608C.675,197.338,0,215.886,0,215.886Z" transform="translate(2.023 534.033)" fill="#874208"/>
            <path id="Path_34280" data-name="Path 34280" d="M425.919,0c-21.749,26.867-88.261,76.688-154.01,115.634S80.283,208.038,0,223.878c1.224-8.185.64-10.123.64-10.123,8.769-3.373,38.608-11.126,83.115-25.8s109.081-46.7,161.685-79.742S375.756,36.772,425.919,0Z" transform="translate(1.382 627.204)" fill="#874208"/>
            <path id="Path_34281" data-name="Path 34281" d="M507.356,0C489,29.22,460.165,63.361,407.948,104.2s-132.659,97.73-198.992,136.721S52.435,317.095,0,337.032c34.556-19.515,143.805-79.706,170.866-95.384S292,174.38,331.956,146.057,443.524,68.9,507.356,0Z" transform="translate(221.539 253.861)" fill="#d8925d"/>
            <path id="Path_34282" data-name="Path 34282" d="M459.217,0c-23.265,13.883-75.025,34.693-128.132,69.558S207,150.109,153.051,177.085,48.881,227.578.061,230.867c-.264,4.552.412,18.21.412,18.21C19.5,247.2,82.24,227.831,111.83,214.43S238.241,151.22,297.645,108.012s91.609-58.566,114.7-70.353,57.6-34.31,57.6-34.31Z" transform="translate(1.381 530.684)" fill="#d8925d"/>
            <path id="Path_34283" data-name="Path 34283" d="M489.934,3.349C468,31.316,400.41,65.475,360.455,90.259S257.78,162.473,182.252,200.8,30.18,267.115.169,267.787C.507,260.368,0,249.077,0,249.077c19.051-3.542,85.746-20.729,149.8-52.428S311.78,98.1,347.81,74.581,457.837,11.91,473.254,0C477.542,2.255,489.934,3.349,489.934,3.349Z" transform="translate(1.853 530.684)" fill="#874208"/>
            <path id="Path_34284" data-name="Path 34284" d="M439.891,0C402.7,18.119,350.768,53.522,310.979,76.787S181.162,148.2,127.211,166.778,33.624,202.393.043,205.678c-.2,6.321.387,19.473.387,19.473,23.9-5.424,157.063-54.12,212.091-80.42S337.194,73.544,353,63.048,431.059,8.523,439.891,0Z" transform="translate(1.593 615.807)" fill="#d8925d"/>
            <path id="Path_34285" data-name="Path 34285" d="M919.173,222.14c-52.2,25.794-137.066,81.43-183.6,117.847-70.807,52.6-122.9,103.685-185.621,164.379-40.462,40.462-244.125,163.2-298.748,187.476C171.059,731.1,74.518,771.6,0,784.57v16.859c236.031-64.74,474.088-210.068,581.311-302.121C659.934,431.814,765.417,331.39,803.856,306.1c130.622-63.814,343.8-203.308,442.87-306.1-12.54,4.668-26.139,7.436-36.22,15.779C1128.232,83.892,1022.352,164.482,919.173,222.14Z" transform="translate(2.023 75.608)" fill="#d8925d"/>
            <path id="Path_34286" data-name="Path 34286" d="M325.442,0C310.57,40.381,295.1,71.06,239.46,113.042S81.771,205.6,0,255.588c35.924-24.77,80.139-57.237,112-76.794s86.826-53.782,115.486-76.709S303.7,35.826,325.442,0Z" transform="translate(824.873 70.905)" fill="#d8925d"/>
            <path id="Path_34287" data-name="Path 34287" d="M0,269.578c16.159-23.94,66.755-64.725,101.381-86.657,62.689-39.7,115.824-73.086,141.115-100.4S294.041,12.118,300.911.081c8.6-1.013,27.229,7.756,27.229,7.756C321.4,19.973,287.847,65.159,254.3,93.481S146.651,173.564,112,192.784,29.114,246.732,0,269.578Z" transform="translate(824.873 56.916)" fill="#874208"/>
            <path id="Path_34288" data-name="Path 34288" d="M4.084,435.6c46.026-20.106,130.358-73.976,164.21-104.227s82.8-60.645,120.545-86.833c58.672-40.708,120.882-79.407,152.747-110.766S524.026,51.841,534.142,0c-12.8,21.748-76.878,95.085-109.246,120.629-36.754,35.741-80.178,62.872-126.412,94.406S179.783,298.857,158.569,315.7,46.1,398.145.039,419.134C-.467,423.59,4.084,435.6,4.084,435.6Z" transform="translate(505.407 67.367)" fill="#d8925d"/>
            <path id="Path_34289" data-name="Path 34289" d="M560.889,0c-22.231,15.678-52.579,54.117-86.214,83.453S343.255,185.871,281.888,220.941,186.8,295.716,135.55,333.184,23.36,411.765,0,430.07c24.179-6.7,85.827-43.888,106.383-55.71S209.224,299.5,225.408,287.2s95.778-69.08,133.563-92.528S516.867,79.154,560.889,0Z" transform="translate(476.11 67.367)" fill="#874208"/>
            <path id="Path_34290" data-name="Path 34290" d="M229.288,585.036C283.643,552.127,549.51,370.853,623.8,311.917,746.2,214.806,844.318,77.23,874.663,73.185c95.595-23.258,248.979-3.743,373.466-1.069.95-.992,1.91-1.991,2.835-2.976,0,0-335.836-69.14-445.086-69.14,0,0-151.734,164.228-315.607,307.868S68.785,599.873,0,628.2v93.65C13.317,714.589,158.649,627.806,229.288,585.036Z" transform="translate(2.023 2.019)" fill="#874208"/>
            <path id="Path_34291" data-name="Path 34291" d="M0,211.97c51.348-24.056,101.926-63.424,128.227-104.9S218.257,16.05,243.548,1.878C219.27-8.246,156.553,24.126,133.285,61.552S116.148,91.7,91.124,124.269C61.971,162.2,36.174,185.466,0,211.97Z" transform="translate(756.553 50.069)" fill="#874208"/>
            <g id="Group_3223" data-name="Group 3223" transform="translate(1.442 615.807)">
              <path id="Path_34292" data-name="Path 34292" d="M440.042,0S344.078,79.787,240.91,132.873,2.515,226.685,1.165,227.089L0,223.213c1.351-.4,136.233-41.024,239.056-93.935S439.071.76,440.042,0Z" fill="#472305"/>
            </g>
            <g id="Group_3224" data-name="Group 3224" transform="translate(1.636 530.684)">
              <path id="Path_34293" data-name="Path 34293" d="M471.428,0l2.044,3.5S429.637,29.121,361.524,68.908c-14.78,8.635-32.829,20.669-53.73,34.609C233.8,152.853,121.976,227.413.777,251.23L0,247.259C120.4,223.6,231.82,149.307,305.55,100.146,326.5,86.175,344.6,74.11,359.484,65.415,427.593,25.628,471.428,0,471.428,0Z" fill="#472305"/>
            </g>
            <g id="Group_3225" data-name="Group 3225" transform="translate(824.873 51.946)">
              <path id="Path_34294" data-name="Path 34294" d="M333.754,0l3.514,2.009c-35.882,62.756-99.126,121.543-187.978,174.721C79.267,218.64,0,274.547,0,274.547c.763-.587,76.987-59.259,147.211-101.29C235.457,120.439,298.224,62.147,333.754,0Z" transform="translate(0)" fill="#472305"/>
            </g>
            <g id="Group_3226" data-name="Group 3226" transform="translate(498.464 33.342)">
              <path id="Path_34295" data-name="Path 34295" d="M557.188,0,560.9,1.607C529.685,73.561,428.955,169.163,350.022,222.587c-10.341,7-21.706,14.531-33.74,22.508-45.207,29.962-101.466,67.251-157.313,111.934C88.806,413.154,2.684,456.961,1.826,457.4L0,453.788c.858-.433,86.615-44.06,156.441-99.921,55.991-44.792,112.331-82.137,157.608-112.145,12.023-7.971,23.381-15.5,33.7-22.487C426.211,166.131,526.277,71.25,557.188,0Z" fill="#472305"/>
            </g>
            <g id="Group_3227" data-name="Group 3227" transform="translate(366.814 8.991)">
              <path id="Path_34296" data-name="Path 34296" d="M536.854,0l2.976,2.737c-4.552,4.946-10.155,11.147-16.74,18.435C479.645,69.249,389.239,169.287,275.5,268.033,175.418,354.929,0,457.988,0,457.988c1.72-1.055,173.022-106.334,272.855-193.012C386.4,166.392,476.694,66.477,520.086,18.46,526.685,11.161,532.3,4.949,536.854,0Z" fill="#472305"/>
            </g>
            <g id="Group_3228" data-name="Group 3228" transform="translate(49.702 253.861)">
              <path id="Path_34297" data-name="Path 34297" d="M679.193,0s-81.81,90.568-210.624,169.99c-65.636,40.469-116.225,68.384-160.858,93.017-24.4,13.461-47.444,26.181-70.459,39.565C160.936,346.962,0,419.714,0,419.714c1.583-.756,159.04-76.329,235.215-120.636,23.054-13.412,46.118-26.142,70.54-39.614,44.595-24.608,95.138-52.5,160.689-92.922C594.794,87.41,678.363.869,679.193,0Z" fill="#472305"/>
            </g>
            <path id="Path_34298" data-name="Path 34298" d="M807.015,0h.886c108.205,0,442.135,68.486,445.5,69.178l3.546.728-2.483,2.638c-94.7,100.622-311.847,244.589-447.58,310.929-24.07,15.871-74.666,61.4-128.227,109.6-31.844,28.65-64.764,58.278-94,83.379-98.307,84.4-334.454,234.61-582.1,302.536L0,879.69V628.861l1.252-.514c68.232-28.1,324.323-175.013,489.709-319.979C652.878,166.434,804.9,2.29,806.417.647Zm442,72.411C1212.7,65.028,911.393,4.39,808.784,4.045,798.126,15.526,650.521,173.884,493.627,311.411,328.9,455.8,74.279,602.152,4.049,631.566V874.382c246.056-68.081,480.279-217.131,577.97-301,29.2-25.069,62.1-54.679,93.928-83.315,53.761-48.38,104.54-94.075,128.821-110.048l.222-.13C939.216,314.313,1153.3,172.61,1249.012,72.411Z" fill="#472305"/>
          </g>
        </g>
      </g>
    </g>
  </g>
</svg>
