<svg xmlns="http://www.w3.org/2000/svg" width="317.828" height="68.735" viewBox="0 0 317.828 68.735">
  <g id="Group_3496" data-name="Group 3496" transform="translate(-200 -41)">
    <path id="Path_34865" data-name="Path 34865" d="M23.594-.762A23.674,23.674,0,0,1,15.566.488,16.336,16.336,0,0,1,7.852-1.221,11.7,11.7,0,0,1,2.9-6.084a15.033,15.033,0,0,1-1.709-7.275A16.016,16.016,0,0,1,3.105-21.25a13.237,13.237,0,0,1,5.41-5.342,16.693,16.693,0,0,1,8.047-1.885,27.969,27.969,0,0,1,7.031.879V-19.8A9.923,9.923,0,0,0,20.8-20.9a13.959,13.959,0,0,0-3.281-.391,7.344,7.344,0,0,0-5.42,1.973,7.211,7.211,0,0,0-1.982,5.352,7.086,7.086,0,0,0,1.982,5.3,7.247,7.247,0,0,0,5.3,1.943,13.758,13.758,0,0,0,6.191-1.562ZM46.074,0V-10.449H36.387V0H27.949V-28.008h8.438v10.371h9.688V-28.008h8.438V0ZM60.039,0V-28.008h8.438V0ZM96.875-18.77a9.109,9.109,0,0,1-1.455,5.1,9.481,9.481,0,0,1-4.15,3.447A15.066,15.066,0,0,1,85-9H82.422V0H73.984V-28.008H85.469q5.918,0,8.662,2.246T96.875-18.77Zm-8.926.293a3.281,3.281,0,0,0-1-2.6,4.3,4.3,0,0,0-2.93-.879h-1.6v6.914h1.895Q87.949-15.039,87.949-18.477ZM125.859,0V-15.352q0-2.168.137-4.766l.059-1.289h-.234q-.625,3.3-.957,4.57L120.742,0h-7.93L108.5-16.641q-.176-.625-.918-4.766h-.234q.273,6.563.273,8.2V0h-7.4V-28.008h12.637L116.7-12.793a18.78,18.78,0,0,1,.361,1.9q.225,1.436.283,2.217h.117q.215-1.777.684-4.2l3.594-15.137H134.18V0ZM164.1-12.793q0,6.738-3.076,10.01T151.543.488q-5.977,0-9.072-3.271t-3.1-9.854V-28.008h8.477v15.684a7.252,7.252,0,0,0,1.006,4.15,3.291,3.291,0,0,0,2.881,1.455,3.329,3.329,0,0,0,2.881-1.367,6.884,6.884,0,0,0,.986-4.043V-28.008h8.5ZM188.867,0l-9.883-13.516a32.214,32.214,0,0,1-1.914-2.891h-.078q.117,2.07.117,4.648V0H169.3V-28.008h7.969l9.473,12.852q.176.254.43.605t.508.723q.254.371.479.723a4.446,4.446,0,0,1,.342.625h.078a25.384,25.384,0,0,1-.117-2.969V-28.008h7.813V0Zm28.4,0-6.211-11.836a12.71,12.71,0,0,1-.742-1.934h-.1V0h-8.437V-28.008h8.438v13.32h.1a14.933,14.933,0,0,1,.84-1.953l5.586-11.367h10l-7.949,13.359L227.5,0Zm31.563-8.477a8.09,8.09,0,0,1-1.494,4.863,8.855,8.855,0,0,1-4.189,3.086A18.425,18.425,0,0,1,236.66.488,21.18,21.18,0,0,1,228.613-1V-8.672a15.9,15.9,0,0,0,3.887,2.08,11.433,11.433,0,0,0,3.965.791,3.914,3.914,0,0,0,2.148-.5,1.63,1.63,0,0,0,.762-1.455,1.972,1.972,0,0,0-.381-1.2,3.74,3.74,0,0,0-1.152-.967,21.463,21.463,0,0,0-2.861-1.23q-6.758-2.6-6.758-8.4a7.848,7.848,0,0,1,3.086-6.494,13.017,13.017,0,0,1,8.281-2.432q1.465,0,2.7.117t2.236.293q1.006.176,2.822.664v7.129a14.422,14.422,0,0,0-6.953-1.934,4.291,4.291,0,0,0-2.266.527,1.623,1.623,0,0,0-.859,1.445,1.812,1.812,0,0,0,.693,1.455,13,13,0,0,0,2.9,1.494,16.083,16.083,0,0,1,6.162,3.848A7.338,7.338,0,0,1,248.828-8.477Z" transform="translate(268 87.5)" fill="#1e1c1d" stroke="#fff" stroke-width="2"/>
    <g id="Group_3106" data-name="Group 3106" transform="translate(-276.293 -103.054)">
      <path id="Path_33914" data-name="Path 33914" d="M503.613,212.79a33.714,33.714,0,0,1-19.157-6.878,19.357,19.357,0,0,1-7.384-9.969c-1.717-5.878-.682-11.138,3.959-15.42a1.6,1.6,0,0,0,.414-1.071,35.048,35.048,0,0,1,4.361-12.552,22.637,22.637,0,0,1,4.106-5.122.585.585,0,0,0,.145-.872,13.685,13.685,0,0,1-1.537-8.8,22.822,22.822,0,0,0,.221-4.537,3.153,3.153,0,0,1,3.3-3.507,9.991,9.991,0,0,1,6.805,2.878,15.771,15.771,0,0,1,4.913,8.232c.073.283-.021.74.426.768a.952.952,0,0,0,1.092-.616c.5-1.165,1.737-1.576,3.388-1.256a20.256,20.256,0,0,1,5.176,1.895c.279.139.5.309.657-.19,1.629-5.333,5.381-8.535,10.478-10.37a7.245,7.245,0,0,1,2.919-.639,2.481,2.481,0,0,1,2.482,2.389c-.251,3.238.891,6.213,1.5,9.287,1.027,5.146.039,9.744-3.6,13.64a.707.707,0,0,0-.141.911,29.416,29.416,0,0,1,2.3,13.2,1.082,1.082,0,0,0,.169.726c3.613,5.21,3.269,10.539.279,15.824a21.636,21.636,0,0,1-9.833,8.687C516.155,211.789,511.427,212.79,503.613,212.79ZM499,159.225l-.075-.077a3.761,3.761,0,0,1,2.161-1.452c.834-.216.89-.589.721-1.328-.927-4.032-2.921-7.292-6.62-9.343a5.881,5.881,0,0,0-3-.836c-1.064.025-1.47.472-1.314,1.495a12.876,12.876,0,0,1-.1,3.487,19.732,19.732,0,0,0-.134,4.959,11.878,11.878,0,0,0,2.57,5.683,20.2,20.2,0,0,0-4.594,4.712,32.064,32.064,0,0,0-5.2,14.176,1.4,1.4,0,0,1-.466,1.031c-3.931,3.194-5.15,7.367-4.214,12.216a16.157,16.157,0,0,0,5.935,9.407c6.872,5.716,14.917,7.757,23.7,7.236a29.3,29.3,0,0,0,14.145-4.4c3.458-2.184,6.265-4.98,7.656-8.913,1.462-4.134,1.206-8.079-1.737-11.582a.967.967,0,0,1-.159-.782,27.766,27.766,0,0,0-2.719-14.332.72.72,0,0,1,.212-1.038,12.866,12.866,0,0,0,4.147-7.057,17.578,17.578,0,0,0-.539-7.415c-.576-2.441-1.452-4.835-1.088-7.423.086-.611-.3-.868-.958-.731a14.853,14.853,0,0,0-2.71.925,13.244,13.244,0,0,0-8.315,9.426c-.184.762-.3,1.54-.457,2.328-.986-.568-1.914-1.147-2.881-1.651a15.891,15.891,0,0,0-5.113-1.811c-.218-.031-.53-.126-.619.147-.071.217.22.317.378.447a5.6,5.6,0,0,1,1.426,1.366A22.2,22.2,0,0,0,499,159.225Z" fill="#fdfdfd"/>
      <path id="Path_33915" data-name="Path 33915" d="M512.144,172.3a22.2,22.2,0,0,1,10.033-1.126,5.6,5.6,0,0,0-1.426-1.366c-.159-.13-.449-.23-.378-.447.089-.273.4-.178.619-.147a15.89,15.89,0,0,1,5.113,1.811c.967.5,1.895,1.083,2.881,1.651.153-.789.273-1.566.457-2.328a13.244,13.244,0,0,1,8.315-9.425,14.853,14.853,0,0,1,2.71-.925c.657-.138,1.044.119.958.731-.364,2.588.513,4.982,1.088,7.423a17.58,17.58,0,0,1,.539,7.415,12.866,12.866,0,0,1-4.147,7.057.72.72,0,0,0-.212,1.038,27.766,27.766,0,0,1,2.719,14.332.966.966,0,0,0,.159.782c2.942,3.5,3.2,7.448,1.737,11.582-1.391,3.933-4.2,6.729-7.656,8.913a29.3,29.3,0,0,1-14.144,4.4c-8.778.521-16.824-1.52-23.7-7.236a16.157,16.157,0,0,1-5.935-9.407c-.936-4.849.283-9.022,4.214-12.216a1.4,1.4,0,0,0,.466-1.031,32.065,32.065,0,0,1,5.2-14.176,20.195,20.195,0,0,1,4.594-4.712,11.877,11.877,0,0,1-2.57-5.683,19.731,19.731,0,0,1,.134-4.959,12.875,12.875,0,0,0,.1-3.487c-.156-1.022.25-1.47,1.314-1.495a5.882,5.882,0,0,1,3,.836c3.7,2.051,5.694,5.311,6.62,9.343.17.739.114,1.112-.721,1.328a3.759,3.759,0,0,0-2.161,1.452c-.016.05-.057.134-.044.143C512.091,172.415,512.127,172.366,512.144,172.3Zm29.966,34.735a9.617,9.617,0,0,0-.32-4.24,7.091,7.091,0,0,0-4.9-4.7c-.184-.06-.486-.039-.474-.305.01-.244.3-.256.492-.312a4.135,4.135,0,0,1,1.669-.082c.5.062.582-.108.527-.573a14.121,14.121,0,0,0-2.484-6.245,12.388,12.388,0,0,0-5.947-5.021,9.635,9.635,0,0,0-10.545,3.285c-2.979,3.7-3.912,8.132-4.415,12.7-.035.318.133.4.384.467a11.313,11.313,0,0,1,2.218.839,1.533,1.533,0,0,1,.6,2.532,11,11,0,0,1-4.5,3.785c-.228.1-.415.193-.4.492a4.032,4.032,0,0,0,1.048,2.816,5.6,5.6,0,0,0,4.6,1.4,11.854,11.854,0,0,0,6.446-2.636,7.474,7.474,0,0,1,1.112-.722c.272-.137.613-.369.905-.074s.046.624-.095.9a6.445,6.445,0,0,1-2.251,2.453,11.323,11.323,0,0,1-9.279,1.689c-.4-.1-.585-.034-.7.36-.281.962-.6,1.913-.874,2.876a.905.905,0,0,1-.883.754,12,12,0,0,1-4.9-.629.992.992,0,0,1-.7-.866,22.1,22.1,0,0,1-.254-3.489c.01-.336-.032-.486-.451-.453a6.935,6.935,0,0,1-1.532-.105,5.943,5.943,0,0,1-4.952-5.183c-.025-.316-.094-.7.316-.835a.708.708,0,0,1,.844.346c.279.429.543.869.784,1.32a4.47,4.47,0,0,0,4.683,2.506,4.194,4.194,0,0,0,3.809-2.425.781.781,0,0,0-.246-1.078,8.247,8.247,0,0,1-2.847-4.777,1.472,1.472,0,0,1,1.115-1.886,5.858,5.858,0,0,1,1.644-.32c.345-.008.471-.131.5-.488a54.168,54.168,0,0,0,.321-7.691,17.365,17.365,0,0,0-1.17-6.153,4.964,4.964,0,0,0-8.131-1.88,11.794,11.794,0,0,0-4.377,8.957,2.18,2.18,0,0,1-.956,1.806,9.758,9.758,0,0,0-4.061,8.132c0,.108.02.232.182.254a5.226,5.226,0,0,1,.963-1.359c.19-.17.429-.4.671-.275.3.158.088.448.017.681-.082.267-.178.531-.253.8a8.292,8.292,0,0,0,1.566,8.075,23.21,23.21,0,0,0,7.485,5.891,32.425,32.425,0,0,0,21.383,2.784,24.955,24.955,0,0,0,11.88-5.612,9.308,9.308,0,0,0,2.925-3.948,8.129,8.129,0,0,0-.756-6.409c-.1-.211-.385-.473-.142-.687s.536.033.748.187a7.062,7.062,0,0,1,.887.789A8.4,8.4,0,0,1,542.11,207.036Zm-3.31-35.014c.048-1.95-.686-3.85-1.055-5.815-.083-.445-.325-.191-.5-.09a7.563,7.563,0,0,0-2.9,2.964,13.367,13.367,0,0,0-1.39,6.562.556.556,0,0,0,.226.479,14.334,14.334,0,0,1,2.25,2.294c.2.248.33.226.549.015A8.362,8.362,0,0,0,538.8,172.023Zm-26.3,40.14a6.765,6.765,0,0,1-2.183,1.346.461.461,0,0,0-.366.507c.024.977.048,1.953.164,2.926.039.329.205.426.471.492a10.143,10.143,0,0,0,2.35.3.454.454,0,0,0,.534-.384c.244-.823.514-1.641.814-2.446a.419.419,0,0,0-.148-.585A5.356,5.356,0,0,1,512.5,212.163Z" transform="translate(-13.141 -13.075)" fill="#1e1c1d"/>
      <path id="Path_33916" data-name="Path 33916" d="M553.872,358.513a8.406,8.406,0,0,0-1.058-1.581,7.063,7.063,0,0,0-.887-.789c-.212-.154-.5-.408-.748-.187s.039.476.142.687a8.13,8.13,0,0,1,.756,6.409A9.308,9.308,0,0,1,549.153,367a24.956,24.956,0,0,1-11.88,5.612,32.425,32.425,0,0,1-21.383-2.784,23.209,23.209,0,0,1-7.485-5.891,8.292,8.292,0,0,1-1.566-8.075c.075-.269.171-.532.253-.8.071-.233.28-.523-.017-.681-.242-.128-.481.105-.671.275a5.227,5.227,0,0,0-.963,1.359c-.162-.022-.185-.146-.182-.254a9.758,9.758,0,0,1,4.061-8.132,2.18,2.18,0,0,0,.956-1.806,11.794,11.794,0,0,1,4.377-8.957,4.964,4.964,0,0,1,8.131,1.88,17.364,17.364,0,0,1,1.17,6.153,54.168,54.168,0,0,1-.321,7.691c-.032.356-.158.48-.5.488a5.859,5.859,0,0,0-1.644.32,1.472,1.472,0,0,0-1.115,1.886,8.247,8.247,0,0,0,2.847,4.777.781.781,0,0,1,.246,1.078,4.194,4.194,0,0,1-3.809,2.425,4.47,4.47,0,0,1-4.683-2.506c-.241-.451-.505-.891-.784-1.32a.708.708,0,0,0-.844-.346c-.41.138-.341.519-.316.835a5.943,5.943,0,0,0,4.952,5.183,6.934,6.934,0,0,0,1.532.105c.418-.033.461.117.451.453a22.082,22.082,0,0,0,.254,3.489.991.991,0,0,0,.7.866,12,12,0,0,0,4.9.629.906.906,0,0,0,.883-.754c.276-.963.594-1.914.874-2.876.115-.394.295-.46.7-.36a11.323,11.323,0,0,0,9.279-1.689,6.444,6.444,0,0,0,2.251-2.453c.14-.275.389-.6.095-.9s-.634-.063-.905.074a7.473,7.473,0,0,0-1.112.722,11.854,11.854,0,0,1-6.446,2.636,5.6,5.6,0,0,1-4.6-1.4,4.032,4.032,0,0,1-1.048-2.816c-.014-.3.173-.393.4-.492a11,11,0,0,0,4.5-3.785,1.533,1.533,0,0,0-.6-2.532,11.311,11.311,0,0,0-2.218-.839c-.251-.069-.419-.15-.384-.467.5-4.572,1.435-9.005,4.415-12.7a9.634,9.634,0,0,1,10.545-3.285,12.388,12.388,0,0,1,5.947,5.021,14.12,14.12,0,0,1,2.484,6.245c.056.465-.032.635-.527.573a4.134,4.134,0,0,0-1.669.082c-.193.056-.482.069-.492.312-.012.267.29.245.474.305a7.091,7.091,0,0,1,4.9,4.7A9.617,9.617,0,0,1,553.872,358.513Zm-20.451-6.98c-.007.116-.016.233-.019.349-.034,1.392.355,1.745,1.733,1.642a14.215,14.215,0,0,0,2.753-.463,9,9,0,0,0,5.551-3.614,4.591,4.591,0,0,0,.116-5.089,4.1,4.1,0,0,0-4-2.192,5.434,5.434,0,0,0-4.413,2.823A12.967,12.967,0,0,0,533.421,351.534Zm-12.365-5.123a6.757,6.757,0,0,0-1.522-4.525,3.947,3.947,0,0,0-6.37.375,4.619,4.619,0,0,0,.26,5.308,11.079,11.079,0,0,0,5.3,3.944c.853.342,1.368.078,1.635-.828A16.882,16.882,0,0,0,521.056,346.41Z" transform="translate(-24.903 -164.553)" fill="#fdfdfd"/>
      <path id="Path_33917" data-name="Path 33917" d="M792.32,213.008a8.362,8.362,0,0,1-2.82,6.41c-.219.211-.35.232-.549-.015a14.33,14.33,0,0,0-2.25-2.294.556.556,0,0,1-.225-.479,13.368,13.368,0,0,1,1.39-6.562,7.562,7.562,0,0,1,2.9-2.964c.176-.1.417-.355.5.09C791.634,209.158,792.367,211.058,792.32,213.008Z" transform="translate(-266.661 -54.061)" fill="#fdfdfd"/>
      <path id="Path_33918" data-name="Path 33918" d="M625.05,536.271a5.357,5.357,0,0,0,1.637,2.159.419.419,0,0,1,.148.585c-.3.8-.57,1.622-.814,2.446a.454.454,0,0,1-.534.384,10.146,10.146,0,0,1-2.35-.3c-.266-.066-.432-.163-.471-.492-.116-.974-.14-1.949-.164-2.926a.461.461,0,0,1,.366-.507A6.763,6.763,0,0,0,625.05,536.271Z" transform="translate(-125.693 -337.184)" fill="#fdfdfd"/>
      <path id="Path_33919" data-name="Path 33919" d="M637.4,251.708c-.017.066-.052.114-.119.066-.013-.009.029-.093.045-.143Z" transform="translate(-138.398 -92.482)" fill="#fdfdfd"/>
      <path id="Path_33920" data-name="Path 33920" d="M705.836,392.564a12.968,12.968,0,0,1,1.72-6.542,5.434,5.434,0,0,1,4.413-2.823,4.1,4.1,0,0,1,4,2.192,4.591,4.591,0,0,1-.116,5.089,9,9,0,0,1-5.551,3.614,14.218,14.218,0,0,1-2.753.463c-1.378.1-1.767-.251-1.733-1.642C705.821,392.8,705.83,392.68,705.836,392.564Zm4.438-4.935a1.221,1.221,0,0,0,1.2-1.273,1.238,1.238,0,0,0-1.276-1.2,1.267,1.267,0,0,0-1.175,1.243A1.245,1.245,0,0,0,710.274,387.629Z" transform="translate(-197.318 -205.583)" fill="#1e1c1d"/>
      <path id="Path_33921" data-name="Path 33921" d="M565.073,376.933a16.878,16.878,0,0,1-.695,4.274c-.267.906-.782,1.17-1.635.828a11.079,11.079,0,0,1-5.3-3.944,4.618,4.618,0,0,1-.26-5.308,3.947,3.947,0,0,1,6.37-.375A6.757,6.757,0,0,1,565.073,376.933ZM559.165,373a1.242,1.242,0,0,0-1.239,1.244,1.257,1.257,0,0,0,1.264,1.218,1.231,1.231,0,0,0-.025-2.463Z" transform="translate(-68.92 -195.075)" fill="#1e1c1d"/>
      <path id="Path_33922" data-name="Path 33922" d="M729.922,399.641a1.245,1.245,0,0,1-1.252-1.232,1.267,1.267,0,0,1,1.175-1.243,1.238,1.238,0,0,1,1.276,1.2A1.221,1.221,0,0,1,729.922,399.641Z" transform="translate(-216.966 -217.595)" fill="#fdfdfd"/>
      <path id="Path_33923" data-name="Path 33923" d="M568.134,385.437a1.232,1.232,0,1,1-1.24,1.244A1.247,1.247,0,0,1,568.134,385.437Z" transform="translate(-77.889 -207.514)" fill="#fdfdfd"/>
    </g>
  </g>
</svg>
