<svg xmlns="http://www.w3.org/2000/svg" xmlns:xlink="http://www.w3.org/1999/xlink" width="917" height="668" viewBox="0 0 917 668">
  <defs>
    <clipPath id="clip-path">
      <rect id="Rectangle_66" data-name="Rectangle 66" width="917" height="668" rx="20" transform="translate(803 1120)" fill="#111215"/>
    </clipPath>
    <linearGradient id="linear-gradient" x1="0.5" x2="0.5" y2="1" gradientUnits="objectBoundingBox">
      <stop offset="0" stop-color="#e04e12"/>
      <stop offset="1" stop-color="#ff7b21"/>
    </linearGradient>
  </defs>
  <g id="Mask_Group_3" data-name="Mask Group 3" transform="translate(-803 -1120)" clip-path="url(#clip-path)">
    <rect id="Rectangle_51" data-name="Rectangle 51" width="709" height="320" rx="20" transform="translate(1011 1468)" fill="#111215"/>
    <rect id="Rectangle_52" data-name="Rectangle 52" width="371" height="140" rx="20" transform="translate(810 1592)" fill="url(#linear-gradient)"/>
    <g id="Rectangle_53" data-name="Rectangle 53" transform="translate(803 1585)" fill="none" stroke="#111215" stroke-width="1" opacity="0.2">
      <rect width="385" height="154" rx="25" stroke="none"/>
      <rect x="0.5" y="0.5" width="384" height="153" rx="24.5" fill="none"/>
    </g>
    <path id="Path_34866" data-name="Path 34866" d="M28-16.73c0,3.15-3.5,6.86-8.54,6.86-3.43,0-6.09-2.31-7.98-4.48L2.8-8.05C6.65-2.94,13.02.7,19.46.7c12.04,0,19.6-7.56,19.6-17.43,0-9.66-6.86-15.75-14.91-15.75a14.25,14.25,0,0,0-8.47,2.52l.98-6.23H35.7v-9.73H7.84L4.2-21l4.83,2.73a15.166,15.166,0,0,1,11.34-4.9C24.85-23.17,28-20.86,28-16.73Zm42.28,0c0,3.15-3.5,6.86-8.54,6.86-3.43,0-6.09-2.31-7.98-4.48l-8.68,6.3C48.93-2.94,55.3.7,61.74.7c12.04,0,19.6-7.56,19.6-17.43,0-9.66-6.86-15.75-14.91-15.75a14.25,14.25,0,0,0-8.47,2.52l.98-6.23H77.98v-9.73H50.12L46.48-21l4.83,2.73a15.167,15.167,0,0,1,11.34-4.9C67.13-23.17,70.28-20.86,70.28-16.73Zm42.28,0c0,3.15-3.5,6.86-8.54,6.86-3.43,0-6.09-2.31-7.98-4.48l-8.68,6.3C91.21-2.94,97.58.7,104.02.7c12.04,0,19.6-7.56,19.6-17.43,0-9.66-6.86-15.75-14.91-15.75a14.25,14.25,0,0,0-8.47,2.52l.98-6.23h19.04v-9.73H92.4L88.76-21l4.83,2.73a15.167,15.167,0,0,1,11.34-4.9C109.41-23.17,112.56-20.86,112.56-16.73Zm42.28,0c0,3.15-3.5,6.86-8.54,6.86-3.43,0-6.09-2.31-7.98-4.48l-8.68,6.3C133.49-2.94,139.86.7,146.3.7c12.04,0,19.6-7.56,19.6-17.43,0-9.66-6.86-15.75-14.91-15.75a14.25,14.25,0,0,0-8.47,2.52l.98-6.23h19.04v-9.73H134.68L131.04-21l4.83,2.73a15.167,15.167,0,0,1,11.34-4.9C151.69-23.17,154.84-20.86,154.84-16.73Z" transform="translate(840 1667)" fill="#fff"/>
    <path id="Path_34865" data-name="Path 34865" d="M15.9-4.536A6.683,6.683,0,0,1,10.746-2.16a6.917,6.917,0,0,1-6.912-7.1,6.941,6.941,0,0,1,6.912-7.128,6.911,6.911,0,0,1,5.1,2.3l1.89-1.566a9.017,9.017,0,0,0-6.993-3.159A9.461,9.461,0,0,0,1.323-9.261,9.421,9.421,0,0,0,10.746.27a9.046,9.046,0,0,0,7.047-3.213ZM42.579-18.6H40.041V-10.4H31.05V-18.6H28.539V0H31.05V-8.1h8.991V0h2.538Zm12.636,0V0h2.511V-18.6Zm15.147,0V0H72.9V-6.966h4.887c3.942,0,5.535-2.889,5.535-5.805S81.729-18.6,77.787-18.6Zm7.4,2.349c2.16,0,3.051,1.782,3.051,3.483,0,1.728-.918,3.456-3.186,3.456H72.9v-6.939ZM104.355-4.941,97.794-18.6H95.5L93.231,0h2.484l1.7-13.986,5.859,11.934h2.214l5.805-11.934L113,0h2.484l-2.268-18.6h-2.295ZM133.677-2.16A4.135,4.135,0,0,1,129.411-6.4V-18.6h-2.538V-6.4a6.547,6.547,0,0,0,6.8,6.669,6.577,6.577,0,0,0,6.8-6.669V-18.6h-2.538V-6.4A4.135,4.135,0,0,1,133.677-2.16ZM166.32,0V-18.6h-2.511V-4.7l-8.4-13.905h-2.484V0h2.511V-14.013L163.917,0Zm17.253-9.315,7.155-9.288h-3.1l-6.156,8.046V-18.6h-2.511V0h2.511V-7.938L188.838,0h3.375Zm16.983,3.942c0,2.916,2.727,5.643,6.507,5.643,3.672,0,5.859-2.16,6.21-4.86.4-3-1.485-4.941-4.968-5.832l-2.43-.594c-2.349-.567-2.646-1.782-2.646-2.592,0-1.7,1.647-2.808,3.483-2.808,2.052,0,3.51,1.188,3.51,3.051h2.511c0-3.348-2.619-5.454-5.994-5.454-3.159,0-6.021,2.106-6.021,5.238,0,1.62.567,3.861,4.536,4.86l2.4.594c1.674.378,3.294,1.323,3.159,3.321-.216,1.4-1.377,2.727-3.753,2.727-2.349,0-4-1.674-4-3.294Zm37.611,0c0,2.916,2.727,5.643,6.507,5.643,3.672,0,5.859-2.16,6.21-4.86.4-3-1.485-4.941-4.968-5.832l-2.43-.594c-2.349-.567-2.646-1.782-2.646-2.592,0-1.7,1.647-2.808,3.483-2.808,2.052,0,3.51,1.188,3.51,3.051h2.511c0-3.348-2.619-5.454-5.994-5.454-3.159,0-6.021,2.106-6.021,5.238,0,1.62.567,3.861,4.536,4.86l2.4.594c1.674.378,3.294,1.323,3.159,3.321-.216,1.4-1.377,2.727-3.753,2.727-2.349,0-4-1.674-4-3.294Zm22.95-3.888a9.381,9.381,0,0,0,9.4,9.531,9.41,9.41,0,0,0,9.45-9.531,9.45,9.45,0,0,0-9.45-9.558A9.421,9.421,0,0,0,261.117-9.261Zm2.511,0a6.935,6.935,0,0,1,6.885-7.128,6.941,6.941,0,0,1,6.912,7.128,6.917,6.917,0,0,1-6.912,7.1A6.912,6.912,0,0,1,263.628-9.261ZM291.384-18.6V0h10.1V-2.349H293.9V-18.6Z" transform="translate(840 1702)" fill="#fff"/>
    <g id="Group_3120" data-name="Group 3120" transform="translate(753.679 827.616)">
      <path id="Path_33972" data-name="Path 33972" d="M1945.612,295.99c-166.454,23.412-182.8,190.321-132.459,283.495,40.419,74.811,125.685,100.822,143.494,170.868,12.959,50.972-1.843,120.463-65.526,131.087l-2.086,8.718-1.824,7.626c101.444,13.643,183.783-82.9,180.105-195.533-1.668-51.2-41.648-96.974-64.607-154.714,53.218,51.11,158.984-12.543,139.181-119.011C2130.227,365.809,2053.844,280.766,1945.612,295.99Z" transform="translate(-1178.324 -1.363)" fill="#e04e12"/>
      <path id="Path_33973" data-name="Path 33973" d="M2044.73,310.8a173.037,173.037,0,0,0-99.111-14.82c-166.453,23.411-182.8,190.32-132.458,283.495,40.418,74.81,125.683,100.82,143.491,170.87a138.785,138.785,0,0,1,3.41,18.858c8.732,44.913-8.157,68.471,11.345,74.828,18.646,6.079,68.715-73.4,54.739-123.1-3.838-1.535-7.868,9.979-14.969,12.857,10.363-27.058-.384-79.369-67.934-161.851-.384,8.327-7.292,24.329-12.282,31.494-2.3-37.691-18.323-81.864-20.47-90.06-12.989-49.57,15.492-106.629,75.146-118.762-5.548-5.675-13.032-7.5-19.443-8.553,36.062-7.672,65.042.967,86.82,14.7,20.671,13.037,53.732,54.255,44.521,107.732-7.39,42.905,42.795,7.292,46.713-49.384,1.938-21.725-5.625-58.486-32.032-93.105C2096.782,345.77,2076.234,326.519,2044.73,310.8Z" transform="translate(-1178.331 -1.352)" fill="#f26d22"/>
      <path id="Path_33974" data-name="Path 33974" d="M2044.736,311.2a172.442,172.442,0,0,0-68.224-16.525c-.709.03-1.452.075-2.221.129a166.362,166.362,0,0,0-28.669,1.574c-166.45,23.412-182.793,190.323-132.452,283.5,23.367,43.248,61.724,70.192,93.365,98.762-28.02-42.83-58.779-56.975-71.007-86.329,6.972,6.2,11.386,9.275,23.092,10.427-25.523-19.766-57.633-64.777-53.541-116.062,1.809,1.734,4.615,12.618,10.7,22.14-8.4-52.117-10.053-102.181,21.021-144.231-1.277,8.188-5.112,20.472-3.577,34.29,9.388-34.675,64.478-104.2,159.918-94.164-6.141,4.606-13.817,6.141-19.191,12.282,44.522-5.373,94.417,9.6,121.284,45.673-6.973-1.6-12.455-2.3-17.828,0,41.368,15.225,60.814,45.673,66.844,96.847,1.938-21.725-5.625-58.486-32.032-93.105C2096.788,346.168,2076.24,326.918,2044.736,311.2Z" transform="translate(-1178.336 -1.751)" fill="#ffad58"/>
      <path id="Path_33975" data-name="Path 33975" d="M2089.623,340.766c-21.909-20.364-58.914-45.22-110.793-47.992a180.274,180.274,0,0,0-34.638,1.547c-81.407,11.449-119.811,56.042-137.694,91.433-14.619,28.931-21.507,63.193-19.921,99.082,1.467,33.212,10.32,66.395,24.928,93.431,18.676,34.57,46.614,58.476,73.632,81.6,30.993,26.521,60.265,51.571,69.833,89.2,8.772,34.5,4.038,71.532-12.357,96.65-12.26,18.784-30.065,30.242-52.919,34.055l-.2.034-4.04,16.873.34.047c3.855.52,7.759.885,11.6,1.091,40.342,2.156,79.559-13.309,110.426-43.542,18.691-18.31,33.909-41.722,44.007-67.7a218.793,218.793,0,0,0,14.423-85.693c-1.065-32.666-17.805-63.343-35.532-95.819-9.995-18.314-20.325-37.237-28.574-57.7a64.074,64.074,0,0,0,40.522,16.988c25.616,1.369,52.619-11.161,72.233-33.518a114.174,114.174,0,0,0,23.99-44.8c5.106-18.547,5.756-38.37,1.933-58.916C2135.361,397.766,2116.224,365.489,2089.623,340.766Zm24.806,189.654c-19.489,22.216-46.306,34.667-71.734,33.307a63.478,63.478,0,0,1-41.146-17.777l-1.028-.986.527,1.324c8.348,20.995,18.912,40.35,29.125,59.064,17.689,32.411,34.4,63.024,35.458,95.545,1.9,58.179-19.873,115.348-58.245,152.934-30.743,30.11-69.795,45.513-109.962,43.367-3.712-.2-7.48-.547-11.208-1.041L1890,880.347c22.935-3.876,40.813-15.415,53.135-34.294,16.483-25.256,21.25-62.479,12.437-97.14-9.616-37.822-38.963-62.933-70.032-89.52-26.974-23.082-54.868-46.951-73.488-81.419-26.232-48.551-37.951-126.73-5-191.941,17.816-35.26,56.086-79.688,137.229-91.1a179.659,179.659,0,0,1,34.52-1.541c94.067,5.027,151.928,82.829,161.412,133.828C2147.515,466.493,2138.361,503.144,2114.429,530.42Z" transform="translate(-1176.948)" fill="#702709"/>
      <path id="Path_33976" data-name="Path 33976" d="M2485.551,887.721c-45.729-30.084-94.964,6.922-105.371,28.433-35.88,74.161,26.756,136.017,73.7,201.045,67.488,93.476,9.2,258.187-123.832,248.276l-1.824,7.626c101.444,13.643,183.783-82.9,180.105-195.533-1.668-51.2-41.648-96.974-64.607-154.714-2.188-6.3-11.164-29.369-9.763-55.594.17,31.568,31.265,51.793,64.924,35.647C2535.828,985.187,2535.688,920.7,2485.551,887.721Z" transform="translate(-1619.341 -476.681)" fill="#eab782"/>
      <path id="Path_33977" data-name="Path 33977" d="M2669.307,887.721c-45.729-30.084-94.964,6.922-105.371,28.433-35.88,74.161,26.756,136.017,73.7,201.045,38.183,52.887,36.1,128.577,3.006,182.542-11.785,19.215-3.621,22.088,12.107-2.454,20.851-32.536,29.458-67.042,27.645-110.133-2.666-63.341-52.658-110.093-77.947-181.033-29.432-82.563,34.881-124.471,67.963-84.736,10.7,12.855,9.877,37.249-1.326,45.356,1.657-13.982-7.522-25.119-24.534-16.674-10.568,5.246-11.906,22.411-5.018,31.454,9.243,12.135,21.761,15.957,35.522,10.326C2704.638,979.738,2719.444,920.7,2669.307,887.721Z" transform="translate(-1803.097 -476.681)" fill="#fddbad"/>
      <path id="Path_33978" data-name="Path 33978" d="M2484.024,886.083a66.742,66.742,0,0,0-33.435-11.278c-19.363-1.034-35.722,6.545-46.036,13.086-11.931,7.565-22.027,17.815-26.349,26.749-7.408,15.313-10.893,30.433-10.652,46.227.216,14.082,3.413,28.386,9.771,43.73,11.81,28.493,33.13,56.47,53.748,83.527,6.942,9.112,14.121,18.534,20.866,27.875,34.964,48.43,37.811,118.815,7.081,175.141-26.837,49.191-73.26,75.747-127.366,72.855-1.083-.057-2.182-.126-3.274-.208l-.263-.021-1.966,8.213.34.047c3.854.519,7.759.885,11.6,1.091,40.34,2.157,79.557-13.307,110.424-43.54,18.692-18.31,33.911-41.721,44.009-67.706a218.825,218.825,0,0,0,14.423-85.694c-1.065-32.666-17.805-63.343-35.532-95.82-10.206-18.7-20.759-38.035-29.089-58.984-.148-.422-.325-.92-.527-1.491-2.624-7.377-9.215-25.9-9.365-47.611,2.847,19.682,18.27,34.1,38.682,35.186a53.686,53.686,0,0,0,26.211-5.651c15.334-7.355,24.886-22.822,26.207-42.436C2525,937.476,2515.4,906.726,2484.024,886.083Zm38.887,73.246c-1.3,19.384-10.731,34.664-25.855,41.921a53.06,53.06,0,0,1-25.911,5.59c-22.23-1.186-38.45-18.411-38.571-40.96l-.617-.014c-1.31,24.528,6.366,46.1,9.256,54.223.2.57.376,1.067.53,1.5,8.348,20.995,18.912,40.348,29.125,59.064,17.689,32.411,34.4,63.024,35.458,95.545,1.9,58.179-19.875,115.35-58.247,152.935-30.742,30.112-69.792,45.514-109.959,43.366-3.712-.2-7.482-.547-11.208-1.041l1.682-7.036c1.01.073,2.026.137,3.028.191,54.351,2.9,100.983-23.767,127.94-73.178a178.162,178.162,0,0,0,21.106-88.916c-.892-32.493-10.652-62.535-28.229-86.881-6.75-9.347-13.929-18.772-20.877-27.888-42.911-56.315-83.443-109.508-52.8-172.841,8.352-17.261,38.723-41.255,71.793-39.488a66.128,66.128,0,0,1,33.129,11.177C2514.842,907.095,2524.377,937.608,2522.912,959.329Z" transform="translate(-1617.644 -475.301)" fill="#945f34"/>
      <path id="Path_33979" data-name="Path 33979" d="M2928.6,1159.906a29.473,29.473,0,0,0-17.829,11.173c-5.28,6.862-8.066,16-8.283,27.165l.618.012c.4-20.538,9.974-34.648,25.613-37.744,12.119-2.4,24.041,3.039,28.344,12.931a24.04,24.04,0,0,1-2.9,24.286c.185.1,3.323-3.193,4.847-8.762a23.682,23.682,0,0,0-1.382-15.772C2953.212,1163.04,2941,1157.452,2928.6,1159.906Z" transform="translate(-2088.177 -707.67)" fill="#945f34"/>
      <path id="Path_33980" data-name="Path 33980" d="M1071.859,3268.607c-44.628,5.247-64.993,31.488-55.41,28.75-6.551,6.766,1.888,9.817,9.207,10.083-5.9,6.181,23.665,11.629,51.6,10.028s90.839-8.552,92.6-18.359C1171.324,3290.921,1130.349,3261.728,1071.859,3268.607Z" transform="translate(-546.464 -2428.865)" fill="#e04e12"/>
      <path id="Path_33981" data-name="Path 33981" d="M1164.664,3287.643c-15.208-10.965-47.592-23.855-88.574-19.035-34.326,4.035-55.809,21.712-56.8,26.121-.3,1.323,4.524-1.006,7.282-2.168-4.427,3.09-8.2,6.027-6.625,7.6,2.026,2.027,10.687,2.25,14.8,2.4-1.644,1.722-6.883,5.305-3.93,6.379,7.648,2.78,36.876,5.292,75.794-16.229C1133.021,3291.967,1171.16,3292.326,1164.664,3287.643Z" transform="translate(-550.694 -2428.865)" fill="#f26d22"/>
      <path id="Path_33982" data-name="Path 33982" d="M1121.86,3268.607c-20.787,2.444-36.852,9.888-46.52,16.361,40.954-17.961,89.736-15.136,130.62-.291C1189.38,3274.519,1159.189,3264.217,1121.86,3268.607Z" transform="translate(-596.465 -2428.865)" fill="#ffad58"/>
      <path id="Path_33983" data-name="Path 33983" d="M1095.391,3266.072a150.419,150.419,0,0,0-25.537.831c-37.322,4.389-58.149,23.771-58,28.367.028.849.666,1.292,1.769,1.181-1.64,1.93-2.165,3.687-1.559,5.228,1.191,3.032,6.442,4.384,11,4.645a2.131,2.131,0,0,0-.287,2.093c1.489,3.756,14.9,7.039,32.6,7.985h0a183.345,183.345,0,0,0,19.927-.022c28.344-1.625,91.082-8.567,92.885-18.612.23-1.282-.478-3.006-2.048-4.988C1158.267,3282.839,1131.113,3267.98,1095.391,3266.072Zm72.188,31.586c-1.642,9.148-60.934,16.3-92.313,18.1a183.517,183.517,0,0,1-19.858.022c-17.2-.92-30.678-4.114-32.061-7.6a1.747,1.747,0,0,1,.565-1.931l.547-.731-.759.21c-.166-.007-.331-.014-.5-.023-4.191-.224-9.473-1.473-10.568-4.26-.582-1.481.115-3.257,2.069-5.276l.8-.829-1.109.317a3.933,3.933,0,0,1-1.221.185c-.611-.033-.7-.338-.708-.6-.064-2.019,4.974-7.921,14.6-13.748,8.365-5.065,22.589-11.6,42.859-13.985a150,150,0,0,1,25.43-.829c35.531,1.9,62.5,16.625,70.3,26.476C1167.112,3295,1167.778,3296.558,1167.579,3297.658Z" transform="translate(-544.604 -2427.473)" fill="#702709"/>
      <path id="Path_33984" data-name="Path 33984" d="M1025.193,3367.7l.418.454c3.809-3.51,13.979-11.918,26.13-14.142a24.861,24.861,0,0,0-8.287,1.825A62.04,62.04,0,0,0,1025.193,3367.7Z" transform="translate(-555.525 -2499.436)" fill="#702709"/>
      <path id="Path_33985" data-name="Path 33985" d="M1075.1,3419.079l.507.354c4.4-6.294,17.119-12.978,28.355-14.9a29.79,29.79,0,0,0-8.768,1.68C1086.562,3409.261,1078.46,3414.271,1075.1,3419.079Z" transform="translate(-596.269 -2540.686)" fill="#702709"/>
      <path id="Path_33986" data-name="Path 33986" d="M1006.374,2321.194l-23.233-2.944c-18.555,3.976-16.985,46.1-40.211,55.162-25,9.758-37.449-3.519-52.493-.882s-24.156,26.738-25.328,32.37c-1.414,6.8-1.917,16.233,9.464,3.468-4.932,10.054-4.792,25.347-1.082,23.826s8.056-9.533,12.016-13.881c-3.933,12.783-1.806,23.025,1.876,22.074s14.16-25.418,31.855-31.161,53.418,5.1,74.851-9.806S1024.847,2338.766,1006.374,2321.194Z" transform="translate(-424.232 -1653.828)" fill="#f26d22"/>
      <path id="Path_33987" data-name="Path 33987" d="M1005.231,2319.63l-.426.448c7.178,6.828,10.674,18.851,9.591,32.987-1.43,18.685-10.208,36.672-21.84,44.762-13.03,9.062-31.5,8.541-47.8,8.084-10.31-.29-20.048-.564-26.966,1.681-12.141,3.939-20.717,16.341-26.39,24.547-2.448,3.539-4.382,6.334-5.446,6.61a1.608,1.608,0,0,1-1.628-.554c-2.319-2.429-2.931-11.2.122-21.13l.406-1.32-.929,1.021a68.138,68.138,0,0,0-4.374,5.636c-2.571,3.552-5.228,7.223-7.53,8.167a.842.842,0,0,1-1.029-.241c-2.132-2.282-1.7-14.588,2.506-23.162l.995-2.027-1.5,1.685c-5.283,5.923-7.569,6.577-8.552,6.08-1.328-.669-1.465-4.052-.378-9.28,1.32-6.348,10.559-29.586,25.076-32.129,5.766-1.01,11.258.371,17.07,1.832,9.411,2.366,20.077,5.049,35.483-.966,12.161-4.746,17.684-18.685,22.555-30.984,4.542-11.458,8.829-22.282,17.608-24.163l-.129-.6c-9.1,1.95-13.45,12.922-18.053,24.54-5.061,12.775-10.3,25.988-22.206,30.636-15.223,5.941-25.786,3.286-35.108.942-5.879-1.479-11.435-2.875-17.327-1.843-14.833,2.6-24.236,26.175-25.575,32.613-.825,3.966-1.371,8.909.705,9.956,1.568.791,4.189-.784,7.995-4.808-3.412,8.3-3.962,19.591-1.612,22.1a1.449,1.449,0,0,0,1.713.392c2.466-1.011,5.176-4.756,7.8-8.375,1.126-1.555,2.281-3.152,3.406-4.512-2.7,9.692-1.96,17.876.422,20.37a2.348,2.348,0,0,0,1.575.792,2.135,2.135,0,0,0,.653-.068c1.288-.332,3.082-2.928,5.8-6.858,5.627-8.137,14.132-20.434,26.074-24.309,6.816-2.212,16.5-1.941,26.756-1.651,16.4.46,34.978.984,48.176-8.2,11.777-8.19,20.658-26.362,22.1-45.221C1016.108,2338.789,1012.544,2326.586,1005.231,2319.63Z" transform="translate(-422.875 -1652.488)" fill="#702709"/>
      <path id="Path_33988" data-name="Path 33988" d="M1409.268,1469.733c-35.9-46.174-31.728-93.275-57.59-130.274l-54.223,158.184-8.021,23.394c32.07,42.547-28.049,120.085,35.065,194.921,32.081,38.035,76.428,51.469,117.087,46.26,54.149-6.938,101.761-46.929,105.177-105.9C1552.57,1556.266,1458.291,1532.79,1409.268,1469.733Z" transform="translate(-771.255 -854.729)" fill="#e04e12"/>
      <path id="Path_33989" data-name="Path 33989" d="M1471.772,1462.615c-29.456-50.527-19.69-86.158-45.552-123.156l-45.482,132.684s.966,79.05,24.719,55.556c-15.309,58.631-8.144,141.533,10.211,110.279,11.479,80.539,133.33,107.435,133.8,8.943,35.255,10.9,54.28-24.382,38.21-56.964C1569.663,1553.423,1497.829,1507.312,1471.772,1462.615Z" transform="translate(-845.797 -854.729)" fill="#f26d22"/>
      <path id="Path_33990" data-name="Path 33990" d="M1465.295,1519.587c-20.329-15.983-41.35-32.51-57.316-53.048-19.7-25.339-27.212-50.619-34.474-75.065-5.88-19.8-11.437-38.5-23.107-55.2l-.349-.5-54.421,158.758-8.073,23.55.1.132c13.325,17.68,10.657,41.321,7.567,68.694-2.1,18.575-4.473,39.629-1.666,60.976,3.216,24.452,12.757,45.8,29.173,65.264,24.072,28.541,57.258,45.325,93.443,47.26a133.057,133.057,0,0,0,23.921-.892c27.32-3.5,52.813-15.4,71.788-33.52a107.433,107.433,0,0,0,33.658-72.665c1.761-30.349-5.67-56.417-22.715-79.7C1507.593,1552.84,1486.09,1535.935,1465.295,1519.587Zm79.627,133.715c-3.168,54.671-46.307,98.1-104.907,105.606a132.329,132.329,0,0,1-23.811.887c-36.012-1.924-69.041-18.63-93-47.04-36.654-43.464-31.718-87.192-27.364-125.773,3.1-27.437,5.772-51.142-7.59-69l61.992-180.845c11.38,16.489,16.867,34.966,22.675,54.516,7.279,24.5,14.806,49.837,34.577,75.27,16.012,20.6,37.065,37.148,57.424,53.155C1508.065,1554,1548.825,1586.043,1544.922,1653.3Z" transform="translate(-769.721 -851.726)" fill="#702709"/>
      <path id="Path_33991" data-name="Path 33991" d="M1316.253,2359.5c-11.972-50.86,19.949-111.391-18.8-158.4l-8.021,23.394c32.07,42.547-28.049,120.085,35.065,194.921,32.081,38.036,76.428,51.47,117.087,46.26C1362.887,2459.738,1329.486,2415.7,1316.253,2359.5Z" transform="translate(-771.255 -1558.181)" fill="#fddbad"/>
      <path id="Path_33992" data-name="Path 33992" d="M1315.019,2356.651c-4.568-19.406-2.691-40.661-.877-61.215,2.963-33.523,6.022-68.187-17.984-97.314l-.352-.427-8.252,24.073.1.132c13.325,17.68,10.657,41.321,7.567,68.694-2.1,18.575-4.473,39.629-1.666,60.976,3.216,24.452,12.757,45.8,29.173,65.264,24.072,28.541,57.258,45.325,93.443,47.26a133.051,133.051,0,0,0,23.921-.892l3.014-.386-3.03-.229C1371.492,2457.417,1330.586,2422.765,1315.019,2356.651ZM1416.2,2463.475c-36.012-1.924-69.041-18.63-93-47.04-36.654-43.464-31.718-87.191-27.364-125.772,3.1-27.437,5.772-51.143-7.59-69l7.786-22.715c23.464,28.843,20.431,63.205,17.5,96.439-1.82,20.6-3.7,41.908.889,61.411,7.327,31.117,19.823,54.7,38.205,72.093,20.531,19.429,48.882,30.881,84.3,34.061A132.141,132.141,0,0,1,1416.2,2463.475Z" transform="translate(-769.721 -1555.406)" fill="#945f34"/>
      <path id="Path_33993" data-name="Path 33993" d="M454.608,2408.3c-6.669.51-15.587,10.716-10.016,18.524,23.972,1.278,37.986,21.772,37.986,21.772l5.022-3.884C483.78,2424.762,471.324,2411.507,454.608,2408.3Z" transform="translate(-80.084 -1727.349)" fill="#492711"/>
      <path id="Path_33994" data-name="Path 33994" d="M470.34,2415.147a38.351,38.351,0,0,0-15.7-6.844c-5.338.408-12.108,7.027-11.746,13.656,10.552,1.014,19.381,5.923,24.323,8.465s9.055,2.323,9.982.949C480.181,2427.2,475.328,2419.138,470.34,2415.147Z" transform="translate(-80.118 -1727.349)" fill="#613417"/>
      <path id="Path_33995" data-name="Path 33995" d="M453.3,2406.615l-.04-.008-.041,0c-4.078.313-8.762,3.992-10.9,8.56a10.033,10.033,0,0,0,.653,10.451l.091.122.148.008c23.535,1.257,37.605,21.434,37.745,21.638l.184.27,5.431-4.2-.038-.188C482.772,2423.584,470.347,2409.881,453.3,2406.615Zm27.978,40.158c-1.765-2.413-15.613-20.366-37.885-21.631a9.45,9.45,0,0,1-.512-9.711c2.008-4.294,6.544-7.887,10.345-8.2,16.711,3.219,28.912,16.656,32.669,35.972Z" transform="translate(-78.721 -1725.964)" fill="#251409"/>
      <path id="Path_33996" data-name="Path 33996" d="M513.74,2425.626c-62.613-9.064-129.676,41.644-139.274,91.1-3.716,19.152,14.767,33.276,26.152,32.5-4.006-6.222-6.739-12.492-7.586-18.2,0,0,34.916-86,125.309-81.171a56.675,56.675,0,0,1,12.8,14.112C539.873,2447.6,529.379,2427.89,513.74,2425.626Z" transform="translate(-23.865 -1740.627)" fill="#492711"/>
      <path id="Path_33997" data-name="Path 33997" d="M470.66,2439.02c-47.245,11.723-88.38,50.585-96.067,88.594-2.552,12.467,6.132,27.149,12.593,21.838,1.651-1.356.227-7.289.832-11.011.9-5.565,3.4-12.917,9.211-21.484,14.032-20.7,39.506-47.177,79.475-57.336C506.423,2452.681,499.258,2433.031,470.66,2439.02Z" transform="translate(-23.993 -1751.512)" fill="#613417"/>
      <path id="Path_33998" data-name="Path 33998" d="M512.458,2423.964c-3.03-.439-6.139-.746-9.241-.912-27.9-1.491-58.608,8.432-84.239,27.227-24.837,18.214-41.654,41.918-46.139,65.035a26.525,26.525,0,0,0,5.424,21.606c4.99,6.391,12.75,10.918,19.312,11.268h0a14.5,14.5,0,0,0,1.735-.01l.522-.037-.282-.438c-4.11-6.385-6.712-12.6-7.528-18a151.867,151.867,0,0,1,28.661-42.222c18.217-19.007,49.691-41.139,96.217-38.685a56.429,56.429,0,0,1,12.658,13.978l.285.438.246-.462a27.055,27.055,0,0,0,.187-25.252C526.53,2430.1,519.869,2425.036,512.458,2423.964ZM529.79,2462a56.75,56.75,0,0,0-12.585-13.749l-.076-.058-.1-.005c-20.668-1.1-40.136,2.487-57.859,10.672a128.952,128.952,0,0,0-38.931,28.2,152.071,152.071,0,0,0-28.82,42.494l-.031.077.012.085c.8,5.37,3.334,11.539,7.343,17.873-.37.008-.75,0-1.135-.017h0c-6.394-.342-13.972-4.774-18.857-11.031a25.7,25.7,0,0,1-5.307-21.109c4.457-22.967,21.186-46.531,45.9-64.654,25.517-18.711,56.075-28.592,83.84-27.108,3.084.166,6.174.469,9.187.906,7.212,1.044,13.7,5.98,17.356,13.207A26.447,26.447,0,0,1,529.79,2462Z" transform="translate(-22.54 -1739.271)" fill="#251409"/>
      <path id="Path_33999" data-name="Path 33999" d="M603.063,2561.438c-90.393-4.83-125.309,81.171-125.309,81.171,2.5,16.841,21.421,38.627,40.977,49.527,23.337,13,55.643,6.686,65.03,4.713s15.992,3.394,21.589-1.631c4.478-4.019,2.418-7.605,4.99-15.2,1.786-5.275,16.127-23.889,19.275-42.285S626.837,2579.725,603.063,2561.438Z" transform="translate(-108.587 -1852.211)" fill="#a85010"/>
      <path id="Path_34000" data-name="Path 34000" d="M486.653,2714.412c5.515,15.631,22.18,33.565,39.343,43.131,20.228,11.272,52.537,4.363,65.474,2.013,8.331-2.46,12.25-.16,15.768-3.216,5.124-4.451,1.353-25.3,4.832-30.072,10.729-15.516,10.95-56.188-.738-70.692C587.792,2626.362,523.944,2640.479,486.653,2714.412Z" transform="translate(-115.853 -1917.637)" fill="#c16929"/>
      <path id="Path_34001" data-name="Path 34001" d="M601.842,2559.829l-.076-.058-.1-.005c-20.668-1.1-40.136,2.486-57.859,10.672a128.943,128.943,0,0,0-38.931,28.2,152.066,152.066,0,0,0-28.82,42.494l-.031.077.012.085c2.439,16.4,20.505,38.257,41.132,49.75,8.243,4.593,18.439,7.245,30.305,7.879a135.939,135.939,0,0,0,34.938-3.133,22.433,22.433,0,0,1,5.88-.412c1.667.089,3.224.314,4.73.532,1.355.2,2.636.383,3.868.449a9.2,9.2,0,0,0,7.256-2.272c2.822-2.534,3.121-4.866,3.533-8.094a34.453,34.453,0,0,1,1.541-7.24,57.536,57.536,0,0,1,4.205-7.715c5.117-8.592,12.851-21.575,15.084-34.617,1.384-8.086,1.273-22.4-3.187-38.32C622.031,2586.346,615.284,2570.169,601.842,2559.829Zm26.061,76.484c-2.212,12.927-9.912,25.852-15.006,34.4a57.21,57.21,0,0,0-4.258,7.833,34.817,34.817,0,0,0-1.57,7.359c-.4,3.095-.682,5.331-3.333,7.714a8.634,8.634,0,0,1-6.809,2.114c-1.205-.063-2.471-.247-3.813-.443-1.52-.219-3.091-.446-4.786-.537a23.018,23.018,0,0,0-6.04.424,135.416,135.416,0,0,1-34.779,3.12c-11.77-.628-21.876-3.253-30.036-7.8-20.1-11.2-38.385-33.262-40.81-49.218a151.914,151.914,0,0,1,28.661-42.222c18.217-19.007,49.691-41.139,96.217-38.685,13.259,10.239,19.926,26.248,23.188,37.885C629.162,2614.084,629.275,2628.292,627.9,2636.313Z" transform="translate(-107.178 -1850.847)" fill="#251409"/>
      <path id="Path_34002" data-name="Path 34002" d="M1026.137,2348.593l-24.8-3.1a12.2,12.2,0,0,0-7.274,3.655c-12.865,12.26-14.6,47.16-36.2,55.59-26.987,10.534-40.424-3.8-56.664-.954s-26.077,28.864-27.341,34.945c-1.526,7.344-2.07,17.524,10.215,3.743-5.323,10.853-5.175,27.361-1.167,25.719s8.7-10.289,12.97-14.983c-4.244,13.8-1.947,24.853,2.027,23.829s15.285-27.441,34.386-33.638,57.665,5.5,80.8-10.585c21.54-14.98,31.75-58.822,16.966-80.107A27.821,27.821,0,0,0,1026.137,2348.593Z" transform="translate(-431.324 -1676.071)" fill="#e04e12"/>
      <path id="Path_34003" data-name="Path 34003" d="M1026.137,2345.727a43.029,43.029,0,0,0-11.785-3.5,54.356,54.356,0,0,0-13.019.4,12.327,12.327,0,0,0-7.274,3.655c-12.865,12.26-14.6,47.161-36.2,55.59-26.987,10.534-40.424-3.8-56.664-.954s-26.077,28.864-27.341,34.945c-1.526,7.344-2.07,17.524,10.215,3.743-5.323,10.853-5.175,27.362-1.167,25.719s8.7-10.289,12.97-14.983c-4.244,13.8-1.947,24.854,2.027,23.829,1.936-.5,4.358-11.558,11.249-22.494,7.259-11.52,23.22-16.487,19.957-28.769,16.888,11.962,97.828,5.807,61.3-10.939C1028.582,2418.951,1046.808,2363.674,1026.137,2345.727Z" transform="translate(-431.324 -1673.205)" fill="#f26d22"/>
      <path id="Path_34004" data-name="Path 34004" d="M957.875,2410.3c-26.987,10.534-40.424-3.8-56.664-.954s-26.077,28.864-27.341,34.945c-.745,3.585-1.251,7.84-.15,9.659-2.236-10.713,15.053-36.537,28.152-39.821,15.153-3.8,27.345,10.385,58.211-.384,22-7.677,24.756-50.727,37.251-61.44a13.562,13.562,0,0,0-3.26,2.406C981.208,2366.966,979.47,2401.867,957.875,2410.3Z" transform="translate(-431.338 -1681.628)" fill="#ffad58"/>
      <path id="Path_34005" data-name="Path 34005" d="M914.82,2806.9c-4.941,10.074-5.166,25.01-1.968,25.791-4.171-8.714,3.536-30.313,14.044-40.822C921.859,2794.486,917.478,2802.45,914.82,2806.9Z" transform="translate(-462.074 -2040.496)" fill="#ffad58"/>
      <path id="Path_34006" data-name="Path 34006" d="M987.211,2863.145c-3.781,12.3-2.368,22.4.8,23.738-3.066-9.882,3.163-31.859,8.63-39.271C991.466,2851.479,988.169,2860.38,987.211,2863.145Z" transform="translate(-522.661 -2086.007)" fill="#ffad58"/>
      <path id="Path_34007" data-name="Path 34007" d="M1024.78,2348.593c7.754,7.376,11.529,20.363,10.36,35.628-1.543,20.177-11.022,39.6-23.586,48.34-14.072,9.785-34.02,9.223-51.618,8.73-11.128-.314-21.637-.609-29.1,1.813-13.1,4.25-22.352,17.633-28.475,26.488-2.646,3.825-4.735,6.848-5.893,7.145a1.755,1.755,0,0,1-1.779-.6c-2.508-2.627-3.175-12.106.125-22.836l.406-1.319-.93,1.021a73.6,73.6,0,0,0-4.717,6.081c-2.777,3.836-5.649,7.8-8.141,8.824a.929.929,0,0,1-1.137-.267c-2.307-2.468-1.844-15.768,2.7-25.032l.995-2.026-1.5,1.684c-5.714,6.409-8.192,7.109-9.262,6.568-1.444-.726-1.6-4.387-.42-10.043,1.425-6.856,11.4-31.955,27.091-34.7,6.227-1.09,12.157.4,18.436,1.979,10.154,2.553,21.664,5.449,38.289-1.042,13.116-5.119,19.077-20.162,24.336-33.434,4.9-12.376,9.534-24.065,19.023-26.1a15.359,15.359,0,0,0-4.636,1.218c-6.878,4.248-10.825,14.208-14.962,24.652-5.467,13.8-11.12,28.065-23.986,33.087-16.442,6.417-27.849,3.547-37.914,1.017-6.344-1.595-12.337-3.1-18.694-1.988-16,2.8-26.143,28.239-27.588,35.185-.888,4.272-1.479,9.6.747,10.721,1.7.852,4.545-.875,8.694-5.282-3.726,8.962-4.341,21.237-1.8,23.956a1.541,1.541,0,0,0,1.822.417c2.655-1.088,5.579-5.127,8.407-9.034,1.239-1.711,2.513-3.471,3.748-4.959-2.943,10.5-2.155,19.378.421,22.076a2.517,2.517,0,0,0,1.684.848,2.308,2.308,0,0,0,.7-.072c1.382-.356,3.317-3.156,6.247-7.393,6.076-8.786,15.259-22.065,28.157-26.252,7.365-2.389,17.823-2.094,28.894-1.785,17.7.5,37.75,1.062,51.99-8.84,12.706-8.837,22.29-28.448,23.849-48.8,1-13.081-1.6-24.525-7.208-32.281A22.167,22.167,0,0,0,1024.78,2348.593Z" transform="translate(-429.967 -1676.071)" fill="#702709"/>
      <path id="Path_34008" data-name="Path 34008" d="M1265.555,3438.97c-44.628,5.247-74.847,34.262-49.159,34.087-6.55,6.767,2.932,8.819,12.594,7.48-5.9,6.181,12.673,11.814,40.6,10.213s92.193-11.471,93.955-21.277C1365.018,3461.286,1324.045,3432.092,1265.555,3438.97Z" transform="translate(-703.924 -2567.952)" fill="#e04e12"/>
      <path id="Path_34009" data-name="Path 34009" d="M1340.442,3453.121c-11.136-9.426-34.727-19.073-73.374-14.581-35,4.068-58.9,22.107-58.239,28.872.63,2.283,7.708.473,15.8-.672-5.273,3.487-9.224,7.786-7.253,9.347,2.681,2.123,13.519.589,20.971-1.885-3.076,1.686-9.378,6.088-7.658,7.491,3.408,2.781,21.424,1.82,39.985.756,11.31-.648,62.02-2.135,32.184-25.386C1328.863,3469.091,1346.163,3457.963,1340.442,3453.121Z" transform="translate(-705.438 -2567.522)" fill="#f26d22"/>
      <path id="Path_34010" data-name="Path 34010" d="M1271.8,3438.541c-30.285,3.521-52.245,17.5-57.188,25.583,30.5-22.346,82.383-28.871,128.191-12.864C1330.86,3442.486,1307.9,3434.345,1271.8,3438.541Z" transform="translate(-710.172 -2567.523)" fill="#ffad58"/>
      <path id="Path_34011" data-name="Path 34011" d="M1289.7,3436.462a150.567,150.567,0,0,0-25.537.833,115.061,115.061,0,0,0-42.063,13.181c-10.344,5.778-16.936,12.339-16.8,16.717.062,1.985,1.489,4.422,7.929,4.766.356.018.726.03,1.106.035-1.564,1.779-2.1,3.336-1.588,4.636.718,1.826,3.5,2.959,7.843,3.191a37.273,37.273,0,0,0,6.3-.245,2.916,2.916,0,0,0-.463,2.9c1.492,3.757,11.074,6.553,25.01,7.3a152.843,152.843,0,0,0,16.816-.086c27.891-1.6,92.418-11.391,94.239-21.531.231-1.281-.477-3-2.047-4.987C1352.573,3453.231,1325.418,3438.372,1289.7,3436.462Zm72.188,31.588c-1.64,9.137-62.576,19.242-93.666,21.023a152.568,152.568,0,0,1-16.747.085c-13.484-.72-23.089-3.433-24.469-6.909a2.635,2.635,0,0,1,.853-2.869l.612-.64-.878.121a37.291,37.291,0,0,1-6.969.343c-4.025-.214-6.684-1.236-7.3-2.8-.464-1.18.188-2.694,1.936-4.5l.513-.529-.737,0c-.617,0-1.213-.008-1.772-.038-3.3-.177-7.247-1.042-7.346-4.167-.133-4.15,6.337-10.493,16.481-16.16a114.4,114.4,0,0,1,41.834-13.106,149.851,149.851,0,0,1,25.433-.831c35.529,1.9,62.5,16.625,70.3,26.475C1361.419,3465.393,1362.084,3466.948,1361.885,3468.05Z" transform="translate(-702.565 -2566.583)" fill="#702709"/>
      <path id="Path_34012" data-name="Path 34012" d="M1280.343,3545.7a50.123,50.123,0,0,0-23.237,14.148l.457.415a51.354,51.354,0,0,1,31.284-15.7S1286.138,3544.061,1280.343,3545.7Z" transform="translate(-744.862 -2654.949)" fill="#702709"/>
      <path id="Path_34013" data-name="Path 34013" d="M1354.761,3600.918c-15.127,1.43-25.156,8.127-29.052,12.429l.458.415c4.5-4.974,17.349-13.195,36.938-12.452A59.274,59.274,0,0,0,1354.761,3600.918Z" transform="translate(-800.87 -2700.971)" fill="#702709"/>
      <path id="Path_34014" data-name="Path 34014" d="M1674.2,2844.2c3.358-65.724-98.506-119.33-144.434-54.956-41.442,58.081,6.155,122.435,67.112,136.293,81.573,18.546,134.147-50.459,133.608-116.74Z" transform="translate(-954.734 -2014.658)" fill="#e04e12"/>
      <path id="Path_34015" data-name="Path 34015" d="M1530.759,2789.034c-8.924,12.568-13.921,25.43-15.065,37.887-3.663,39.9,25.225,82.03,75.023,87.676,43.821,4.968,12.823-54.62,29.106-42.718,52.454,25.811,55.37-27.889,55.37-27.889C1678.551,2778.266,1576.537,2724.554,1530.759,2789.034Z" transform="translate(-955.723 -2014.448)" fill="#f26d22"/>
      <path id="Path_34016" data-name="Path 34016" d="M1554.866,2789.037a90.978,90.978,0,0,0-9.955,17.791c14.25-23.309,37.481-43.436,82.387-25.781-1.535-4.606-6.909-6.141-9.211-9.979,22.773-.767,50.791,14.2,62.305,41.836.515-2.665.035-11.184-1.024-14.2,4.245,4.894,15.193,21.2,19.269,32.558C1689.52,2771.739,1597.645,2728.781,1554.866,2789.037Z" transform="translate(-979.83 -2014.451)" fill="#ffad58"/>
      <path id="Path_34017" data-name="Path 34017" d="M1728.6,2806.922c.308,37.892-16.7,75.273-44.388,97.559-17.271,13.9-46.7,28.458-88.841,18.879-35.452-8.061-65.853-32.956-77.452-63.426-6.529-17.146-10-43.623,10.521-72.386,18.888-26.476,49.836-35.538,82.78-24.24,31.677,10.861,62.941,41.49,61.4,79.015a37.906,37.906,0,0,0,.247-10.1c-3.723-33.152-32.452-59.558-61.449-69.5-33.216-11.388-64.427-2.244-83.484,24.465-20.682,28.987-17.178,55.68-10.6,72.967,11.672,30.657,42.248,55.7,77.895,63.807a122.785,122.785,0,0,0,20.7,2.941,98.972,98.972,0,0,0,68.663-21.942c27.832-22.4,44.93-59.969,44.619-98.044Z" transform="translate(-953.153 -2012.782)" fill="#df6510"/>
      <path id="Path_34018" data-name="Path 34018" d="M1728.6,2806.922c.308,37.892-16.7,75.273-44.388,97.559-17.271,13.9-46.7,28.458-88.841,18.879-35.452-8.061-65.853-32.956-77.452-63.426-6.529-17.146-10-43.623,10.521-72.386,18.888-26.476,49.836-35.538,82.78-24.24,31.677,10.861,62.941,41.49,61.4,79.015a37.906,37.906,0,0,0,.247-10.1c-3.723-33.152-32.452-59.558-61.449-69.5-33.216-11.388-64.427-2.244-83.484,24.465-20.682,28.987-17.178,55.68-10.6,72.967,11.672,30.657,42.248,55.7,77.895,63.807a122.785,122.785,0,0,0,20.7,2.941,98.972,98.972,0,0,0,68.663-21.942c27.832-22.4,44.93-59.969,44.619-98.044Z" transform="translate(-953.153 -2012.782)" fill="#702709"/>
      <path id="Path_34019" data-name="Path 34019" d="M672.077,754.834c-18.273-13-20.3-34.385-33.718-32.569-19.843,2.686-48.744,92.862,22.613,121.569l46.178-25.128C707.588,797.39,702,776.12,672.077,754.834Z" transform="translate(-220.985 -350.754)" fill="#f26d22"/>
      <path id="Path_34020" data-name="Path 34020" d="M627.421,793.994c-7.42-23.6,1.791-57,5.629-63.264,3.573-5.835,7.769-8.218,12.985-6.488a10.1,10.1,0,0,0-7.675-1.974c-19.843,2.685-48.744,92.862,22.613,121.569l7.533-4.1C648.617,830.267,634.429,816.287,627.421,793.994Z" transform="translate(-220.985 -350.758)" fill="#ffad58"/>
      <path id="Path_34021" data-name="Path 34021" d="M670.877,753.219c-8.175-5.817-12.99-13.185-17.239-19.684-5.1-7.8-9.127-13.961-16.7-12.939-9.473,1.282-19.766,20.749-22.478,42.51-1.4,11.229-1.455,28.061,6.23,44.481,7.484,15.992,20.534,27.824,38.788,35.167l.229-.57c-46.827-18.839-46.816-61.525-44.638-79,2.958-23.733,13.738-40.866,21.951-41.977,7.185-.978,11.12,5.046,16.1,12.666,4.066,6.222,9.127,13.964,17.4,19.849,31.483,22.4,35.332,44.725,34.945,63.615l.614.013C706.47,798.3,702.593,775.78,670.877,753.219Z" transform="translate(-219.607 -349.389)" fill="#702709"/>
      <path id="Path_34022" data-name="Path 34022" d="M384.864,1054.821c-35.9,35.753-44.8,74.027-33.98,114.825,8.28,31.232,3.4,40.551,2.516,52.743a46.532,46.532,0,0,0,.793,12.714c4.123,21.26,17.136,32.474,45.11,18.5,16.493,27.18,53.963,14.95,65.2,13.076s36.726,7.531,63.966,2.181c22.393-4.4,68.044-32.489,69.969-78.578l-10.9-106.994C534.457,977.8,428.98,1010.9,384.864,1054.821Z" transform="translate(-1.489 -588.215)" fill="#eab782"/>
      <path id="Path_34023" data-name="Path 34023" d="M528.441,1253.868c39.043-40.912-34.834-142.743-74.009-147.84-27.334-3.556-53.594,8.313-69.568,24.214-35.9,35.753-44.8,74.027-33.98,114.825,8.28,31.232,15.027,52.455,15.992,57.437,4.122,21.259,51.467,15.679,79.44,1.7-4.861,12.448-12.953,25.37-9.478,28.851,4.2,4.206,21.158-2.535,27.307-3.561,11.239-1.874,42.939,10.957,71.755-1.327,34.37-14.655,46.785-41.221,44.993-57.86C579.274,1255.258,561,1239.052,528.441,1253.868Z" transform="translate(-1.489 -663.635)" fill="#fddbad"/>
      <path id="Path_34024" data-name="Path 34024" d="M526.919,1267.213c-16.825,3.3-32.746,1-45.54-.859-7.873-1.142-14.093-2.044-18.414-1.323-1.338.223-3.051.594-5.032,1.022-14.746,3.188-45.429,9.82-59.854-13.953l-.148-.243-.253.127c-12.942,6.464-23.364,7.841-30.978,4.086-6.862-3.382-11.469-10.908-13.692-22.367a46.667,46.667,0,0,1-.788-12.634c.187-2.573.549-5.005.936-7.58,1.444-9.652,3.081-20.592-3.461-45.265-11.4-43-.31-80.464,33.9-114.527,25.511-25.4,71.7-47.709,117.4-40.3,35.771,5.8,65.09,29.55,84.787,68.689l.551-.278c-10.462-20.79-23.543-37.278-38.876-49.006a102.577,102.577,0,0,0-46.363-20.015c-20.871-3.384-43.763-.672-66.2,7.837-19.737,7.485-38.11,19.077-51.731,32.638-34.379,34.233-45.522,71.889-34.061,115.123,6.508,24.55,4.882,35.424,3.447,45.016-.388,2.586-.753,5.029-.942,7.625a47.323,47.323,0,0,0,.8,12.8c2.262,11.66,6.98,19.333,14.027,22.805,7.747,3.82,18.267,2.484,31.271-3.962,7.7,12.491,19.814,16.617,31.739,17.256,10.855.578,21.556-1.733,28.626-3.262,1.974-.427,3.68-.795,5-1.016,4.227-.705,10.4.191,18.225,1.326,12.838,1.863,28.816,4.18,45.748.854,10.014-1.968,27.235-9.361,42.811-23.731,11.912-10.99,26.335-29.476,27.408-55.137l-.618-.026C594.742,1234.391,549.553,1262.769,526.919,1267.213Z" transform="translate(0 -586.872)" fill="#945f34"/>
      <path id="Path_34025" data-name="Path 34025" d="M587.541,1083.288C534.457,977.8,428.98,1010.9,384.864,1054.821c-35.9,35.753-44.8,74.027-33.98,114.825,8.28,31.232,3.4,40.551,2.516,52.743,4.435,7.656,21.448,9.472,25.747-2.659,11.293-31.882-1.461-50.156,3.333-73.97,10.675-53.059,54.1-87.08,97.936-78.407,47.863,9.469,74.484,59.362,65.245,99.089,15.609-15.107,49.451-13.528,52.777,23.84,0,0,.9-35.718-.568-57.712S587.541,1083.288,587.541,1083.288Z" transform="translate(-1.489 -588.215)" fill="#f26d22"/>
      <path id="Path_34026" data-name="Path 34026" d="M384.864,1054.827c-35.9,35.753-44.8,74.027-33.98,114.825,1.614,6.087,2.723,11.333,3.464,15.939,3.681-23.447-18.963-69.5,35.154-127.075,30.772-32.737,91.73-50.279,141.768-34.97C478.723,997.8,416.257,1023.573,384.864,1054.827Z" transform="translate(-1.489 -588.22)" fill="#ffad58"/>
      <path id="Path_34027" data-name="Path 34027" d="M577.168,1157.682c-10.653-3.968-23.85-1.284-32.475,6.507,4.314-19.917-.313-42.909-12.464-61.722-12.522-19.39-31.432-32.444-53.242-36.759-21.378-4.229-43.271,1.494-61.655,16.115-18.472,14.692-31.486,36.9-36.644,62.535-2,9.933-.969,18.835.124,28.26,1.542,13.317,3.136,27.087-3.446,45.667-1.728,4.881-5.855,7.971-11.323,8.477-5.715.525-11.505-1.9-13.817-5.789.189-2.537.549-4.94.929-7.483,1.444-9.652,3.081-20.592-3.461-45.265-11.4-43-.31-80.464,33.9-114.527,25.51-25.4,71.7-47.708,117.4-40.3,35.771,5.8,65.09,29.55,84.787,68.689l.551-.278c-10.462-20.79-23.543-37.278-38.876-49.006a102.577,102.577,0,0,0-46.363-20.015c-20.873-3.384-43.763-.672-66.2,7.837-19.737,7.485-38.11,19.077-51.731,32.638-34.379,34.233-45.522,71.889-34.061,115.123,6.508,24.55,4.882,35.424,3.447,45.016-.388,2.586-.753,5.029-.942,7.625l-.007.1.048.082c2.052,3.54,6.8,5.953,11.886,6.223a17.6,17.6,0,0,0,2.57-.047c5.718-.531,10.038-3.768,11.85-8.887,6.63-18.713,5.027-32.556,3.477-45.944-1.086-9.375-2.112-18.229-.132-28.068,10.577-52.565,53.438-86.9,97.572-78.165,21.645,4.282,40.411,17.24,52.844,36.487,12.262,18.985,16.808,42.246,12.161,62.227l-.238,1.021.755-.728c8.428-8.159,21.822-11.062,32.564-7.061,11.31,4.212,18.3,15.117,19.69,30.707l.615-.055C595.847,1173.072,588.714,1161.981,577.168,1157.682Z" transform="translate(0 -586.872)" fill="#702709"/>
      <path id="Path_34028" data-name="Path 34028" d="M1686.433,1802.4a82.026,82.026,0,0,1,5.578,32.337l.618.026a78.593,78.593,0,0,0-2.618-23.17A81.677,81.677,0,0,0,1686.433,1802.4Z" transform="translate(-1095.371 -1232.677)" fill="#702709"/>
      <path id="Path_34029" data-name="Path 34029" d="M532.946,2188.341l-80.263,4.374C458.1,2230.234,512.539,2230.564,532.946,2188.341Z" transform="translate(-88.119 -1547.769)" fill="#eab782"/>
      <path id="Path_34030" data-name="Path 34030" d="M553.8,2169.983s-18.135-5.248-37.788-3.91a172.2,172.2,0,0,0-37.788,7.4C482.4,2205.172,532.514,2199.6,553.8,2169.983Z" transform="translate(-108.968 -1529.411)" fill="#fddbad"/>
      <path id="Path_34031" data-name="Path 34031" d="M478.444,2219.078c-14.676-2.269-24.7-12.366-26.814-27.009l-.612.089c2.157,14.927,12.374,25.218,27.333,27.531q1.849.283,3.795.39c16.7.892,38.227-8.425,49.719-32.206l-.556-.269C519.059,2212.951,495.318,2221.688,478.444,2219.078Z" transform="translate(-86.759 -1547.168)" fill="#945f34"/>
      <path id="Path_34032" data-name="Path 34032" d="M349.381,2103c-2.624,6.434,3.083,11.616,8,14.757,3.523,2.247,8.21,2.79,9.848,2.462,4.331-.867,7.588-6.354,11.183-10.686,4.379-5.277,10.119-8.706,7.273-13.094C380.5,2088.445,354.591,2090.219,349.381,2103Z" transform="translate(-3.242 -1468.799)" fill="#770505"/>
      <path id="Path_34033" data-name="Path 34033" d="M349.514,2103c-2.539,6.469,3.083,11.615,8,14.757,3.522,2.245,7.7,1.873,8.314.071,1.434-4.177-1.8-8.412,1.8-12.745,4.994.878,18.081-4.815,15.234-9.2C377.685,2087.881,353.981,2091.613,349.514,2103Z" transform="translate(-3.376 -1468.796)" fill="#8e1613"/>
      <path id="Path_34034" data-name="Path 34034" d="M372.6,2089.972c-9.8-.524-21.491,3.268-24.86,11.531-2.1,5.166.7,10.4,8.125,15.134a18.176,18.176,0,0,0,8.285,2.58,7.518,7.518,0,0,0,1.789-.076c3.536-.708,6.385-4.4,9.137-7.976.724-.94,1.474-1.912,2.223-2.815,1.086-1.308,2.244-2.49,3.363-3.633,3.328-3.4,6.2-6.327,3.93-9.827C382.767,2092.074,378.4,2090.281,372.6,2089.972Zm7.623,14.312c-1.129,1.153-2.3,2.343-3.4,3.672-.756.913-1.508,1.888-2.236,2.833-2.685,3.484-5.46,7.085-8.768,7.747a7.09,7.09,0,0,1-1.637.065,17.558,17.558,0,0,1-7.985-2.483c-4.976-3.177-10.384-8.25-7.885-14.382,3.225-7.909,14.9-11.647,24.253-11.147,5.6.3,9.79,1.989,11.508,4.637C386.076,2098.311,383.492,2100.947,380.223,2104.284Z" transform="translate(-1.888 -1467.42)" fill="#3c0303"/>
      <path id="Path_34035" data-name="Path 34035" d="M449.879,870.632c-17.719-.361-45.4-7.2-52.056-29.421-2.157,17.21,1.62,31.438,12.544,43.16-9.226,2.807-27.628-.239-37.163-14.774,0,0-5.844,24.439,17.141,34.331,0,0-21.16,10.007-41.545-2.221,0,0,10.31,28.01,43.676,23.069L538.445,886.1C514.365,865.841,467.6,870.992,449.879,870.632Z" transform="translate(-3.308 -447.952)" fill="#f26d22"/>
      <path id="Path_34036" data-name="Path 34036" d="M449.879,870.632c-17.719-.361-45.4-7.2-52.056-29.421-2.157,17.21,1.62,31.438,12.544,43.16-9.226,2.807-27.628-.239-37.163-14.774,0,0-5.844,24.439,17.141,34.331,0,0-21.16,10.007-41.545-2.221,0,0,8.821,23.956,36.543,23.647-10.527-1.8-15.452-8.257-21.465-13.823,11.578,1.919,24.564-.576,36.846-8.252-9.211-3.07-16.12-10.363-20.726-18.807,14.009,8.06,30.417,6.909,38.957.768-6.141-4.606-11.322-9.116-16.408-25.619,10.137,12.829,20.684,23.9,32.966,23.13-6.909-3.07-12.816-7.97-13.488-11.328,31.089,14.009,51.239-3.646,107.292,8.672C503.995,866.966,465.562,870.951,449.879,870.632Z" transform="translate(-3.308 -447.952)" fill="#ffad58"/>
      <path id="Path_34037" data-name="Path 34037" d="M458.029,863.554c-4.195.1-7.819.187-10.687.129-19.971-.413-45.509-8.3-51.765-29.2l-.421-1.4-.182,1.454c-2.2,17.523,1.822,31.609,12.284,43.041-9.623,2.637-27.265-.958-36.338-14.786l-.392-.6-.166.7c-.058.244-5.529,24.339,16.67,34.4-3.679,1.514-22.563,8.346-40.615-2.482l-.731-.439.281.805a38.493,38.493,0,0,0,9.162,13.447c4.934,4.726,13.038,9.874,25.236,10.526,6.615.055,9.569-1.006,9.569-1.006-17.46,2.238-28.32-4.174-34.358-9.948a39.046,39.046,0,0,1-8.7-12.4c20.055,11.465,40.846,1.879,41.058,1.779l.619-.293-.629-.27c-20.275-8.726-17.821-29.162-17.1-33.256,9.509,13.792,27.543,17.187,37.092,14.28l.473-.145-.337-.361c-10.3-11.049-14.436-24.639-12.628-41.5,7.026,20.207,32.17,27.888,51.905,28.284,2.883.059,6.513-.028,10.717-.128,21.535-.513,57.574-1.372,77.658,15.528l.4-.473C515.839,862.178,479.652,863.04,458.029,863.554Z" transform="translate(-0.764 -441.312)" fill="#702709"/>
      <path id="Path_34038" data-name="Path 34038" d="M820.682,2187.005a13.979,13.979,0,0,0-5.687,1.919,36.573,36.573,0,0,1,27.169,2.186s-1.719-1.708-6.308-3.078A36,36,0,0,0,820.682,2187.005Z" transform="translate(-383.916 -1546.376)" fill="#945f34"/>
      <path id="Path_34039" data-name="Path 34039" d="M1315.7,781.114c-27.3-6.41-73.623,65.369-57.134,104.2l28.733,24.637c38.266,16.07,76.128-33.884,48.782-85.673C1324.641,802.612,1330.1,784.494,1315.7,781.114Z" transform="translate(-743.229 -398.56)" fill="#e04e12"/>
      <path id="Path_34040" data-name="Path 34040" d="M1315.7,781.114c-27.3-6.41-73.623,65.369-57.134,104.2,0,0,8.684,10.1,14.443,15.239s14.29,9.4,14.29,9.4c30.228,4.255,68.461-28.035,42.787-86.026C1320.168,801.522,1330.1,784.494,1315.7,781.114Z" transform="translate(-743.229 -398.56)" fill="#f26d22"/>
      <path id="Path_34041" data-name="Path 34041" d="M1257.5,882.34c.058-44,32.3-100.034,58.732-101.09-.165-.044-.317-.1-.49-.137C1289.131,774.864,1244.436,842.941,1257.5,882.34Z" transform="translate(-743.275 -398.56)" fill="#ffad58"/>
      <path id="Path_34042" data-name="Path 34042" d="M1326.8,798.731c-2.233-10.016-3.846-17.252-12.524-19.29-9.491-2.227-21.846,4.71-33.909,19.032-17.61,20.909-31.493,54.176-25.795,78.734a39.2,39.2,0,0,0,2.783,6.616c-10.462-24.643,4.291-62.162,23.484-84.952,11.908-14.138,24.046-21,33.3-18.828,8.3,1.949,9.879,9.026,12.064,18.823,1.516,6.8,3.4,15.257,8.116,24.187,16.041,30.379,9.029,59.481-5.035,74.846-11.843,12.938-28.053,16.824-43.353,10.4a40.757,40.757,0,0,0,6.933,2.834,37.174,37.174,0,0,0,5.827.779c11.323.6,22.347-4.088,31.047-13.591,7.8-8.517,12.816-20.158,14.129-32.78,1.462-14.06-1.65-28.852-9-42.774C1330.183,813.909,1328.307,805.494,1326.8,798.731Z" transform="translate(-741.733 -397.188)" fill="#702709"/>
      <path id="Path_34043" data-name="Path 34043" d="M1407.679,909.411c-12.813-5.325-35.876,40.275-27.879,52.757,2.543,3.971,14.846-3.843,21.02,3.92,6.583,8.281-3.943,27.726-1.7,31.867s11.863,1.283,18.981-5.586c8.807-8.5,12.86-28.394-1.482-57.213C1409.984,921.83,1411.772,911.112,1407.679,909.411Z" transform="translate(-843.688 -503.28)" fill="#ec6b65"/>
      <path id="Path_34044" data-name="Path 34044" d="M1455.949,909.09c-12.813-5.325-23.976,33.143-15.981,45.625,2.543,3.97,9.664-12.559,15.838-4.8,6.585,8.28,3.386,34.453,3.635,39.155.159,3.017-.192,9.844,6.926,2.974,8.807-8.5,12.86-28.394-1.482-57.213C1458.254,921.51,1460.041,910.792,1455.949,909.09Z" transform="translate(-891.957 -502.96)" fill="#fc8e91"/>
      <path id="Path_34045" data-name="Path 34045" d="M1410.087,916.266c-.9-4.584-1.49-7.611-3.657-8.511a5.955,5.955,0,0,0-1.97-.445c-5.146-.275-11.939,5.953-18.173,16.659-7.343,12.613-12.682,29.865-8.115,37a3.305,3.305,0,0,0,2.867,1.332,25.671,25.671,0,0,0,4.5-.382,33.837,33.837,0,0,1,6.337-.47,9.434,9.434,0,0,1,7.333,3.464c3.977,5,1.547,14.233-.408,21.65-1.25,4.741-2.238,8.485-1.325,10.172a4.344,4.344,0,0,0,3.864,2.075c4.32.23,10.737-2.888,15.6-7.585,4.882-4.713,7.735-12.242,8.034-21.2.355-10.654-2.914-23.231-9.452-36.373A64.8,64.8,0,0,1,1410.087,916.266Zm6.429,74.509c-4.754,4.586-10.979,7.634-15.141,7.412a3.85,3.85,0,0,1-3.352-1.751c-.8-1.472.211-5.3,1.376-9.721,1.991-7.55,4.468-16.948.3-22.191a10.019,10.019,0,0,0-7.784-3.7,34.28,34.28,0,0,0-6.457.475,25.383,25.383,0,0,1-4.38.376,2.749,2.749,0,0,1-2.381-1.048c-4.435-6.924.878-23.9,8.129-36.349,6.879-11.816,14.347-18.041,19.371-15.955,1.86.774,2.428,3.672,3.289,8.06a65.321,65.321,0,0,0,5.491,17.536C1429.449,963.01,1424.85,982.728,1416.516,990.775Z" transform="translate(-842.32 -501.909)" fill="#702709"/>
      <path id="Path_34046" data-name="Path 34046" d="M821.16,1475.665c-11.011.332-21.322,6.37-29.985,17.906-10.441,13.9-15.559,35.232-9.208,50.688,7.689,18.726,37.031,24.168,56.048,11.295a36.666,36.666,0,0,0,14.085-18.246c6.508-18.015,3.756-34.536-3.688-45.935C841.9,1481.393,831.8,1475.346,821.16,1475.665Z" transform="translate(-354.677 -965.92)" fill="#eab782"/>
      <path id="Path_34047" data-name="Path 34047" d="M831.894,1507.84c-10.48.3-20.292,5.919-28.526,16.667-9.924,12.957-14.774,32.843-8.714,47.264,7.34,17.472,35.277,22.576,53.368,10.591a34.2,34.2,0,0,0,13.39-17c6.174-16.795,3.54-32.2-3.558-42.843C851.644,1513.2,842.02,1507.553,831.894,1507.84Z" transform="translate(-365.133 -992.189)"/>
      <path id="Path_34048" data-name="Path 34048" d="M831.33,1529.672c-10.477.256-20.272,5.574-28.478,15.773-9.889,12.293-14.686,31.187-8.588,44.916,7.383,16.632,35.332,21.559,53.388,10.211a32.6,32.6,0,0,0,13.341-16.13c6.133-15.952,3.457-30.612-3.669-40.745C851.091,1534.824,841.455,1529.427,831.33,1529.672Z" transform="translate(-364.784 -1010.015)" fill="#dbdbdb"/>
      <path id="Path_34049" data-name="Path 34049" d="M863.319,1557.21c-.111-.506-.234-1-.371-1.489s-.283-.989-.438-1.484c-.075-.241-.155-.482-.235-.723a38.229,38.229,0,0,0-4.949-9.819c-6.235-8.872-15.867-14.273-26-14.025-10.472.259-20.272,5.573-28.478,15.774-7.409,9.208-11.956,22.127-11.209,33.8,4.135,7.187,13.026,12.729,23.375,15.076,17.493,3.968,39.17-1.192,49.155-22.985.006-.006.006-.018.012-.025.043-.451.087-.9.111-1.347a42.691,42.691,0,0,0-.8-11.993C863.437,1557.717,863.381,1557.463,863.319,1557.21Z" transform="translate(-364.786 -1010.014)" fill="#fff"/>
      <path id="Path_34050" data-name="Path 34050" d="M925.727,1574.67c-14.7-5.655-32.056,3.875-38.76,21.288s-.222,36.119,14.48,41.775c7.2,2.774,15.03,1.9,21.938-1.748a32.6,32.6,0,0,0,13.341-16.13c6.133-15.952,3.457-30.612-3.669-40.745A24.44,24.44,0,0,0,925.727,1574.67Z" transform="translate(-440.516 -1045.428)" fill="#2ac8ff"/>
      <path id="Path_34051" data-name="Path 34051" d="M925.738,1574.67c-14.7-5.655-32.056,3.875-38.76,21.288a38.846,38.846,0,0,0-2.633,14.8c17.407,8.567,39.448,7.717,55.454-2.969a40.765,40.765,0,0,0-6.732-28.682A24.439,24.439,0,0,0,925.738,1574.67Z" transform="translate(-440.527 -1045.428)" fill="#0079ff"/>
      <path id="Path_34052" data-name="Path 34052" d="M924.434,1573.017a24.787,24.787,0,0,0-8.933-1.651c-12.755,0-24.9,9.289-30.224,23.115a37.243,37.243,0,0,0-.791,25.507c2.765,7.978,8.251,13.9,15.447,16.664a24.771,24.771,0,0,0,8.942,1.655,28.569,28.569,0,0,0,13.269-3.43,33.114,33.114,0,0,0,13.465-16.28c5.65-14.7,4.3-29.651-3.754-41.086A24.721,24.721,0,0,0,924.434,1573.017Zm10.6,45.36a32.059,32.059,0,0,1-13.2,15.969,27.937,27.937,0,0,1-12.963,3.347,24.159,24.159,0,0,1-8.721-1.614c-7.025-2.7-12.382-8.489-15.087-16.292a36.633,36.633,0,0,1,.783-25.086c5.232-13.59,17.148-22.721,29.651-22.721a24.132,24.132,0,0,1,15.9,5.939C939.285,1589.13,940.61,1603.876,935.035,1618.377Z" transform="translate(-439.112 -1044.062)" fill="#00418e"/>
      <path id="Path_34053" data-name="Path 34053" d="M967.711,1640.435a16.5,16.5,0,0,0-5.057-1.078c-9.051-.483-18.088,6.23-21.974,16.323-4.742,12.319-.332,25.524,9.831,29.436a16.53,16.53,0,0,0,5.055,1.079c9.054.482,18.09-6.229,21.976-16.325a26.446,26.446,0,0,0,.591-18.106A18.033,18.033,0,0,0,967.711,1640.435Z" transform="translate(-484.97 -1099.55)"/>
      <path id="Path_34054" data-name="Path 34054" d="M1067.58,1610.4a7.532,7.532,0,1,0,7.119,7.923A7.532,7.532,0,0,0,1067.58,1610.4Z" transform="translate(-583.652 -1075.917)" fill="#fff"/>
      <path id="Path_34055" data-name="Path 34055" d="M1094.182,1737.845a4.21,4.21,0,1,0,3.98,4.43A4.209,4.209,0,0,0,1094.182,1737.845Z" transform="translate(-608.229 -1179.973)" fill="#fff"/>
      <path id="Path_34056" data-name="Path 34056" d="M832.082,1528.028c-.711-.038-1.432-.049-2.146-.031-10.626.255-20.554,5.75-28.711,15.887-9.2,11.429-15.113,30.637-8.631,45.238,4.191,9.433,15.219,15.745,28.787,16.47h0c13.52.722,31.72-4.713,38.515-22.407,5.422-14.115,4.355-28.65-2.926-39.879C851.1,1534.259,841.8,1528.547,832.082,1528.028Zm27.24,54.936c-6.679,17.385-24.595,22.722-37.907,22.011-13.334-.714-24.159-6.885-28.254-16.1-6.382-14.373-.534-33.316,8.546-44.6,8.039-9.991,17.806-15.4,28.244-15.657.7-.016,1.4-.006,2.1.031,9.521.508,18.643,6.116,24.4,15C863.626,1554.7,864.672,1569.036,859.322,1582.964Z" transform="translate(-363.396 -1008.648)"/>
      <path id="Path_34057" data-name="Path 34057" d="M897.689,1341.594s20.926-15.28,42.328,6.9C927.821,1327.735,909.423,1324.5,897.689,1341.594Z" transform="translate(-451.429 -847.494)"/>
      <path id="Path_34058" data-name="Path 34058" d="M939.815,2792.289a61.582,61.582,0,0,0-8.272,12.074l.543.3c4.675-8.6,8.953-13.739,13.085-15.714A11.157,11.157,0,0,0,939.815,2792.289Z" transform="translate(-479.067 -2038.11)" fill="#702709"/>
      <path id="Path_34059" data-name="Path 34059" d="M1002.21,2846.957a38.215,38.215,0,0,0-6.526,12.587l.6.163c.9-3.252,4.726-11.9,10.27-16.406A15.206,15.206,0,0,0,1002.21,2846.957Z" transform="translate(-531.433 -2082.488)" fill="#702709"/>
      <path id="Path_34060" data-name="Path 34060" d="M1122.976,1510.667a21.262,21.262,0,0,0,20.7-13.027c-6.642,9.732-22.657,8.393-22.657,8.393,13.507-5.681,14.006-17.919,14.006-17.919-3.4,12.976-22.344,14-22.344,14,6.432,5.261,10.711,13.921,10.711,13.921,16.655,3.925,22.447-8.622,22.447-8.622C1135.8,1516.57,1122.976,1510.667,1122.976,1510.667Z" transform="translate(-626.951 -976.093)"/>
      <path id="Path_34061" data-name="Path 34061" d="M1230.7,1975.9c-15.81,8.823-24.514,23.343-19.443,32.43s22,9.3,37.81.477,24.514-23.345,19.443-32.432S1246.512,1967.072,1230.7,1975.9Z" transform="translate(-706.253 -1369.035)" fill="#ffe5bc"/>
      <path id="Path_34062" data-name="Path 34062" d="M626.4,3045.865c-15.3-8.246-31.4-8.072-35.961.388s2.041,23.066,17.342,31.312,33.507,7.013,38.068-1.449S641.7,3054.112,626.4,3045.865Z" transform="translate(-199.429 -2242.906)" fill="#cd8754"/>
      <path id="Path_34063" data-name="Path 34063" d="M374.217,2123.854c-2.05,3.121-8.646,5.646-11.535,5.646s-3.249-2.62-2.05-4.59a9.587,9.587,0,0,1,6.242-4.177C373.452,2119.57,375.28,2122.236,374.217,2123.854Z" transform="translate(-12.441 -1492.34)" fill="#ac3431"/>
    </g>
  </g>
</svg>
