<svg xmlns="http://www.w3.org/2000/svg" width="742.805" height="1088.868" viewBox="0 0 742.805 1088.868">
  <g id="Group_3454" data-name="Group 3454" transform="translate(-253.406 -175.758)">
    <g id="Group_3416" data-name="Group 3416" transform="translate(414.256 175.758)">
      <path id="Path_34745" data-name="Path 34745" d="M306.631,376.852c-15.4-46.332-3.979-94.66,19.776-125.508,19.548-25.383,34.155-27.263,61.206-49.378,11.962-9.779,33.123-27.059,51.371-25.562-8.5,7.279-16.438,17.9-17.7,27.154,7.053-7.314,12.276-7.86,14.582-8.659-6.592,11.74-23,41.275-.81,82.948C424.793,290.63,348.451,321.851,306.631,376.852Z" transform="translate(-297.753 -174.359)" fill="#f26c21"/>
      <path id="Path_34746" data-name="Path 34746" d="M309.7,243.528c14.382-11,26.348-16.012,38.806-24.805S380.7,192.594,397.2,186.484c-3.585,5.374-7.575,14.864-6.434,28.355a19.519,19.519,0,0,1,7.2-6.127c-4.641,10.748-10.624,38.511,5.983,59.192-3.581-10.424-7.328-28.01-4.56-41.687s8.117-27.643,9.691-30.453c-2.687.366-11.35,3.789-13.248,8,1.768-8,8.973-19.988,16.79-27.245-6.874-1.49-17.833,3-28.214,9.23s-28.161,21.516-39.077,28.957S316.086,229.9,309.7,243.528Z" transform="translate(-272.308 -174.565)" fill="#ffa578"/>
      <path id="Path_34747" data-name="Path 34747" d="M395.692,222.431c-27.358,3.909-48.853,42.99-60.576,29.313-13.385-12.167-12.371-34.943-3.1-56.058-1.835,2.074-3.7,4.324-5.613,6.81C302.651,233.344,291.235,281.673,306.631,328,348.455,273,424.793,241.782,435.055,229c-.144-.275-.275-.542-.416-.817C422.68,223.058,409.7,220.431,395.692,222.431Z" transform="translate(-297.753 -125.512)" fill="#e04f10"/>
      <g id="Group_3415" data-name="Group 3415" transform="translate(14.678 30.167)">
        <g id="Group_3414" data-name="Group 3414" transform="translate(74.697)">
          <path id="Path_34748" data-name="Path 34748" d="M327.928,217.789l-3.465-1.8c9.962-19.125,26.312-31.661,26.312-31.661A186.081,186.081,0,0,0,327.928,217.789Z" transform="translate(-324.463 -184.325)" fill="#661f00"/>
        </g>
        <path id="Path_34749" data-name="Path 34749" d="M306.366,319.686c-10.177-40.215,8.427-104.534,79.064-129.568-7.141,11.05-27.295,46.649-25.393,79.071C348.877,279.975,306.366,319.686,306.366,319.686Z" transform="translate(-301.909 -169.718)" fill="#ff8f8f"/>
        <path id="Path_34750" data-name="Path 34750" d="M381.746,190.657c-12.212,10.5-25.907,33.9-30.091,55.2-1.909,4.888-27.834,23.939-35.753,38.592-4.367-17.586,9.42-48.607,23.1-67.9a102.339,102.339,0,0,0-32.975,57.16,117.888,117.888,0,0,0,0,44.018c6.677-9.173,52.255-57.139,52.255-57.139,2.933-16.287,8.265-37.891,14.023-48.272C380.606,197.334,381.746,190.657,381.746,190.657Z" transform="translate(-301.416 -168.359)" fill="#f46767"/>
        <path id="Path_34751" data-name="Path 34751" d="M306.624,326.06l-.81-3.208c-9.29-36.694,4.3-104.95,80.3-131.885l5.409-1.916-3.113,4.817c-2.782,4.3-27.126,43.071-25.083,77.9l.053.9-.648.623c-11.04,10.67-53.265,50.117-53.692,50.515ZM382.11,196.643c-66.753,26.45-80.423,86.885-73.253,121.983,9.061-8.473,40.321-37.718,50.522-47.536C357.981,241.116,374.43,209.609,382.11,196.643Z" transform="translate(-303.251 -172.409)" fill="#661f00"/>
      </g>
      <path id="Path_34752" data-name="Path 34752" d="M307.27,382.382l-1.166-3.514c-14.276-42.965-6.391-92.942,20.083-127.315,12.431-16.139,23.175-23.115,35.616-31.193a271.03,271.03,0,0,0,25.9-18.509c12.466-10.191,33.771-27.548,52.765-26l4.666.384-3.557,3.046c-7.008,6-12.533,13.276-15.28,19.833a26.438,26.438,0,0,1,9.18-4.349c.412-.113.771-.215,1.074-.317l4.86-1.683-2.518,4.486c-6.169,10.987-22.565,40.18-.789,81.071l.606,1.137-.806,1c-3.507,4.37-13.526,10.328-27.4,18.576-28.989,17.245-72.8,43.3-101,80.391Zm128-202.579c-16.385,1.609-34.891,16.737-45.089,25.073a273.814,273.814,0,0,1-26.249,18.762c-12.638,8.2-22.625,14.688-34.648,30.3-24.985,32.443-32.9,79.222-20.583,120.177,28.686-36.123,71.338-61.488,99.816-78.43,12-7.138,21.674-12.892,25.506-16.734-19.453-37.577-8.131-65.562-.916-79.257a27.725,27.725,0,0,0-9.089,6.62l-4.148,4.307.806-5.927C421.89,195.794,428.479,186.558,435.268,179.8Z" transform="translate(-299.083 -175.758)" fill="#661f00"/>
    </g>
    <g id="Group_3419" data-name="Group 3419" transform="translate(714.4 243.341)">
      <path id="Path_34753" data-name="Path 34753" d="M431.667,436.138c39.489-28.7,58.347-74.644,56.991-113.553-1.116-32.021-11.9-42.053-21.016-75.785-4.029-14.913-11.173-41.282-26.883-50.691,2.669,10.864,2.944,24.122-1.419,32.383-1.475-10.05-5.4-13.533-6.814-15.526-1.475,13.378-5.328,46.948-47.635,67.908C385.792,297.242,429.684,367.069,431.667,436.138Z" transform="translate(-382.866 -192.028)" fill="#f26c21"/>
      <path id="Path_34754" data-name="Path 34754" d="M390.862,281.033c9.772-6.677,32-21.245,37.859-48.015,2.933,3.641,3.183,11.7,3.057,13.413a59.991,59.991,0,0,0,11.114-34.2c10.184,5.124,11.476,27.6,20.759,39.571-3.173-14.9-8.811-42.176-27.161-55.368,1.676,5.7,3.219,20.974-2.514,29.475-.979-5.617-3-11.061-6.444-13.772.092,6.687-2.838,24.4-11.388,37.222s-29.27,27.115-29.27,27.115c1.792,1.708,3.828,4.148,3.828,4.148" transform="translate(-377.871 -191.201)" fill="#ffa578"/>
      <path id="Path_34755" data-name="Path 34755" d="M462.228,285.263c.067-28.918-15.3-52.857-21.231-74.352,2.6,44.944,2.021,84.047-17.1,109.919a57.157,57.157,0,0,1-28.524,20.284c5.363,18.474,9.3,38.12,9.864,57.7C444.726,370.112,462.133,324.2,462.228,285.263Z" transform="translate(-356.436 -154.705)" fill="#e04f10"/>
      <g id="Group_3418" data-name="Group 3418" transform="translate(37.151 41.817)">
        <g id="Group_3417" data-name="Group 3417" transform="translate(24.228)">
          <path id="Path_34756" data-name="Path 34756" d="M405.616,247.889l-3.87-.549a186.135,186.135,0,0,0,.9-40.514S408.644,226.538,405.616,247.889Z" transform="translate(-401.746 -206.825)" fill="#661f00"/>
        </g>
        <path id="Path_34757" data-name="Path 34757" d="M409.693,365.8c31.686-26.77,54.012-89.892,11.156-151.373-.627,13.139-4.969,53.818-25.39,79.071C398.251,308.763,409.693,365.8,409.693,365.8Z" transform="translate(-393.371 -187.657)" fill="#ff8f8f"/>
        <path id="Path_34758" data-name="Path 34758" d="M440.308,251.75c-.187,25.368-2.3,53.174-17.28,76.951-2.278-13.353-5.638-28.654-9.282-39.581-4.722-14.156,11.888-33.862,6.8-73.387-1.328,16.34-6.656,51.684-25.087,74.472,2.793,15.266,14.234,72.3,14.234,72.3C434.371,341.657,453.362,298.755,440.308,251.75Z" transform="translate(-393.371 -184.364)" fill="#f46767"/>
        <path id="Path_34759" data-name="Path 34759" d="M409.927,373.6l-.651-3.243c-.116-.567-11.476-57.227-14.244-72.334l-.166-.88.567-.7c21.942-27.129,24.714-72.813,24.96-77.937l.271-5.729,3.282,4.708c46.113,66.147,17.421,129.554-11.494,153.983Zm-10.892-75.4c2.578,13.924,10.969,55.9,13.4,68.063C438.7,341.894,462.774,284.8,423.9,224.429,422.6,239.441,417.629,274.627,399.035,298.193Z" transform="translate(-394.866 -191.827)" fill="#661f00"/>
      </g>
      <path id="Path_34760" data-name="Path 34760" d="M431.267,442.821l-.106-3.7c-1.335-46.582-21.784-93.273-35.317-124.166-6.469-14.78-11.149-25.457-11.455-31.049l-.074-1.285,1.155-.574c41.518-20.572,45.18-53.846,46.561-66.372l.564-5.113,2.972,4.2c.187.261.419.549.69.88a26.448,26.448,0,0,1,4.93,8.885c1.585-6.93,1.324-16.061-.877-25.023l-1.116-4.55,4.018,2.409c16.4,9.821,23.795,37.162,27.767,51.853a270.583,270.583,0,0,0,10.286,30.13c5.409,13.811,10.085,25.738,10.793,46.1,1.514,43.363-21.171,88.582-57.794,115.2ZM388.436,284.93c.877,5.356,5.388,15.667,10.99,28.453,13.293,30.355,33.2,75.813,35.5,121.885,33.862-26.122,54.656-68.77,53.23-109.693-.687-19.692-5.029-30.774-10.529-44.807a274.321,274.321,0,0,1-10.42-30.535c-3.476-12.864-9.673-35.789-22.062-46.635,1.6,9.445,1.571,20.787-2.627,28.728l-2.793,5.289-.866-5.916a27.681,27.681,0,0,0-3.535-10.674C433.218,236.359,426.133,265.7,388.436,284.93Z" transform="translate(-384.316 -194.95)" fill="#661f00"/>
    </g>
    <g id="Group_3420" data-name="Group 3420" transform="translate(342.203 561.254)">
      <path id="Path_34761" data-name="Path 34761" d="M358.965,288.371c-15.956,2.6-59.6-12.589-75.229,10.128-10.269,14.924,0,75.525,0,75.525l107.151-70.672Z" transform="translate(-277.234 -283.832)" fill="#f26c21"/>
      <path id="Path_34762" data-name="Path 34762" d="M361.486,290.621l-4.8-2.25c-15.956,2.6-59.6-12.589-75.229,10.128a15.035,15.035,0,0,0-1.387,2.624C309.144,282.141,334.526,300.763,361.486,290.621Z" transform="translate(-274.96 -283.832)" fill="#ffa578"/>
      <path id="Path_34763" data-name="Path 34763" d="M283.7,378.7l-.5-2.955c-.423-2.5-10.276-61.558.32-76.958,6.367-9.254,17.245-13.561,34.239-13.561a208.342,208.342,0,0,1,22.7,1.666,152.984,152.984,0,0,0,15.3,1.233h0a26.823,26.823,0,0,0,4.282-.289l.6-.1,35.62,16.716Zm34.056-89.565c-15.593,0-25.45,3.772-31.021,11.867-7.617,11.068-3.067,52.572-.165,71.123l101.717-67.091-28.228-13.251a32.741,32.741,0,0,1-4.3.25h0a155.762,155.762,0,0,1-15.73-1.257A205.155,205.155,0,0,0,317.753,289.138Z" transform="translate(-278.622 -285.229)" fill="#661f00"/>
    </g>
    <g id="Group_3421" data-name="Group 3421" transform="translate(465.18 581.2)">
      <path id="Path_34764" data-name="Path 34764" d="M320.695,291.7l-6.563,114.646h75.091l12.86-82.058Z" transform="translate(-312.061 -288.871)" fill="#f26c21"/>
      <path id="Path_34765" data-name="Path 34765" d="M392.379,410.319H313.544l6.835-119.427,85.357,34.176Zm-74.694-3.909h71.348l12.364-78.87-77.426-31Z" transform="translate(-313.544 -290.893)"/>
    </g>
    <g id="Group_3422" data-name="Group 3422" transform="translate(364.987 668.81)">
      <path id="Path_34766" data-name="Path 34766" d="M906.568,471.005c-6.585,7.737-27.263,12.621-46.48-2.683s-19.868-35.665-36.479-51.3c-20.8-19.572-45.92-3.419-50.072,7.328,11.48,2.2,18.97,7.652,18.562,15.146-15.878-1.954-46.163,14.653-51.05,74.743s-5.374,105.52-33.707,159.261c8.793-2.444,17.59-10.385,29.8-9.772-23.939,23.449-30.288,63.016-46.9,95.752s-46.406,66.112-85.163,78.49c6.187,5.86,27.355,1.623,34.848,1.951-10.423,12.7-56.671,45.272-94.449,52.762s-86.55,3.092-104.626-4.969c2.444,7.575,19.3,14.66,25.893,17.1-15.635,8.061-55.449,1.708-94.53-17.343s-82.1-55.466-86.543-81.694c4.469-8.194,214.791-45.972,252.932-202.3S622.89,357.59,691.66,332.024,836.311,309.061,849.013,362.8s10.747,80.12,24.425,90.378S906.568,471.005,906.568,471.005Z" transform="translate(-283.63 -314.375)" fill="#ffdcae"/>
      <path id="Path_34767" data-name="Path 34767" d="M873.438,400.789c-7.846-5.888-10.55-17.1-13.825-35.718-25.809-21.15-37.965-34.017-73.616-25.1-24.671,6.839-53.741,33.3-65.108,60.685,13.568-10.853,27.489-21.2,44.427-18.752-24.1,12.212-40.384,39.9-46.247,78-12.216,79.4-18.565,149-75.232,207.135,13.188-3.909,25.4-9.036,42.99-21.495-7.818,21.495-13.681,44.941-29.312,60.576-23.449,23.449-52.758,42.99-84.026,50.808-70.559,14.766-145.246-.785-209.03-32.76-42.905,18.076-77.014,25.981-78.785,29.228,4.441,26.228,47.462,62.643,86.543,81.694s78.895,25.4,94.53,17.343c-6.6-2.44-23.449-9.526-25.893-17.1,18.076,8.061,66.848,12.459,104.626,4.969s84.025-40.06,94.449-52.762c-7.494-.328-28.661,3.909-34.848-1.951,38.757-12.378,68.556-45.761,85.163-78.49s22.963-72.3,46.9-95.752c-12.212-.613-21.009,7.328-29.8,9.772,28.334-53.741,28.823-99.171,33.707-159.261s35.172-76.7,51.05-74.743c.409-7.494-7.082-12.945-18.562-15.146,4.152-10.748,29.274-26.9,50.072-7.328,16.611,15.632,17.262,35.989,36.479,51.3s39.895,10.42,46.48,2.683C906.568,418.618,887.119,411.047,873.438,400.789Z" transform="translate(-283.63 -261.987)" fill="#eab681"/>
      <path id="Path_34768" data-name="Path 34768" d="M449.568,911.588c-21.132,0-49.825-7.835-76.747-20.96-38.549-18.79-83.008-55.917-87.617-83.124l-.113-.669.324-.6c1.12-2.046,5.582-3.581,20.9-8.6,54.907-17.988,200.751-65.759,231.849-193.229,39.986-163.881,87.568-248.027,154.275-272.828,27.837-10.346,55.667-15.815,80.476-15.815,43.93,0,72.148,17.037,79.465,47.976,4.479,18.956,7.152,34.591,9.3,47.149,3.831,22.407,6.145,35.929,14.389,42.113,13.3,9.976,32.475,17.495,32.665,17.572l2.56,1-1.782,2.088c-4.2,4.941-12.318,8.008-21.182,8.008-6.8,0-17.181-1.807-28-10.427-10.61-8.451-15.741-18.414-20.706-28.041-4.328-8.4-8.413-16.322-15.892-23.358-6.106-5.75-12.98-8.663-20.428-8.663-11.417,0-21.636,7.124-25.425,13.191,11.508,2.81,18.051,8.92,17.636,16.625l-.116,2.088-2.074-.257a19.378,19.378,0,0,0-2.293-.134c-14.054,0-41.87,15.276-46.571,73.1-.528,6.479-1,12.79-1.468,18.952-3.786,50.209-6.8,90.191-30.14,136.558,1.447-.648,2.919-1.38,4.44-2.134,6.05-3,12.966-6.4,21.407-6l4.462.225-3.19,3.123c-15.2,14.889-23.115,36.285-31.5,58.935-4.49,12.135-9.131,24.682-15.03,36.3-18.836,37.127-49.205,65.932-81.905,77.958a34.744,34.744,0,0,0,8.43.828c4.1,0,8.522-.373,12.424-.7a83.7,83.7,0,0,1,9.078-.479l3.905.169L642.9,842.56c-10.321,12.582-57.136,45.814-95.579,53.438a228.3,228.3,0,0,1-43.494,3.891c-21.784,0-42.736-2.553-56.044-6.68,4.891,4.236,13.625,8.406,21.1,11.17l4.152,1.542L469.1,907.95C464.422,910.362,457.851,911.588,449.568,911.588ZM289.261,807.909c5.374,25.9,48.1,61.083,85.272,79.2C400.948,900,429,907.679,449.568,907.679a51.256,51.256,0,0,0,13.227-1.5c-8.194-3.433-20.09-9.49-22.34-16.47l-1.345-4.166,4,1.785c11.6,5.173,36,8.649,60.717,8.649a224.751,224.751,0,0,0,42.736-3.814c34.549-6.853,75.94-34.767,90.206-48.748-1.24.088-2.6.2-4.05.324-3.976.331-8.487.708-12.748.708-7.441,0-12.135-1.162-14.773-3.666l-2.4-2.271,3.148-1.007c33.394-10.663,64.8-39.641,84.018-77.514,5.793-11.417,10.4-23.858,14.85-35.891,7.9-21.365,15.4-41.627,29.024-56.819-5.416.736-10.181,3.1-14.808,5.395a56.385,56.385,0,0,1-9.7,4.1l-4.367,1.211,2.113-4c25.09-47.582,28.147-88.156,32.024-139.531.461-6.177.94-12.49,1.465-18.977,4.934-60.661,35.169-76.69,50.469-76.69.148,0,.3,0,.444,0-1-5.177-7.1-9.258-16.847-11.124l-2.3-.44.845-2.183c3.243-8.4,16.413-17.769,30.126-17.769,8.476,0,16.251,3.272,23.108,9.723,7.966,7.5,12.4,16.1,16.685,24.411,5,9.695,9.716,18.85,19.671,26.777,9.934,7.92,19.386,9.578,25.566,9.578,7.363,0,12.871-2.25,16.132-4.712-5.958-2.514-19.977-8.849-30.735-16.917-9.494-7.117-11.9-21.217-15.9-44.578-2.137-12.508-4.8-28.076-9.254-46.913-9.247-39.124-51.371-44.969-75.658-44.969-24.351,0-51.709,5.388-79.113,15.575-65.365,24.3-112.193,107.6-151.838,270.089C510.349,734.924,363,783.189,307.531,801.356,299.326,804.043,291.533,806.6,289.261,807.909Z" transform="translate(-285.092 -315.772)" fill="#996434"/>
    </g>
    <g id="Group_3423" data-name="Group 3423" transform="translate(388.169 558.736)">
      <path id="Path_34769" data-name="Path 34769" d="M471.241,445.409c19.875-48.2,71.331-107.094,136.47-134.967S728.863,289.085,745.8,290.388s41.363,3.905,57.974-4.888c-1.306,10.748-15.959,20.2-24.428,24.756,22.8,7.814,77.838,36.8,90.216,91.512s-20.843,127.67,24.749,145.256c-11.071,8.469-50.156,1.954-62.53-41.035s-8.793-86.631-67.742-84.025c6.515,3.905,16.611,12.716,19.544,22.8-15.308-7.821-74.257-7.659-106.01,53.406,8.3-4.395,23.449-4.395,31.263-2.44-22.471,12.7-118.06,83.86-128.48,210.879,11.072-13.681,28.334-17.914,36.475-16.283-18.889,17.586-25.4,40.155-29.964,77.395s-33.383,85.61-72.95,105.151c11.233,7.325,33.218,0,33.218,0-13.188,15.632-145.95,115.986-254.883,21.988,5.736-78.169,100.513-223.912,103.443-302.482S471.241,445.409,471.241,445.409Z" transform="translate(-290.228 -282.028)" fill="#f26c21"/>
      <path id="Path_34770" data-name="Path 34770" d="M655.154,300.565c-7.332,12.7-43.236,15.632-55.7,25.647,65.788-7.818,149.165,19.868,154.7,126.258,1.063-17.234,1.335-34.739-2.275-50.7-12.378-54.713-67.418-83.7-90.216-91.512,8.469-4.56,23.122-14.008,24.428-24.756-16.611,8.793-41.039,6.187-57.974,4.888s-72.954-7.818-138.087,20.055-116.6,86.769-136.47,134.967c0,0-4.877,8.145-14.642,33.549,45.272-36.968,49.547-90.625,135.107-138.235C570.984,286.764,610.452,309.6,655.154,300.565Z" transform="translate(-172.549 -282.028)" fill="#ffa578"/>
      <path id="Path_34771" data-name="Path 34771" d="M799.863,322.574c-37.13-15.635-86.631.651-121.8,12.374,17.586,7.818,37.127,3.909,54.713,11.726-70.348,1.951-111.384,58.622-148.51,111.38,21.5-5.86,41.036-17.586,62.53-17.586C578.4,503,539.318,594.846,525.637,686.685c9.772-15.632,25.4-23.446,41.035-29.309-21.495,64.485-72.3,123.107-142.647,128.97,21.495,3.909,42.99,0,64.485,3.909-31.267,15.632-74.257,17.586-103.569,0-25.735-16.653-45.62-37.986-68.714-56.752-12.695,31.651-22.27,60.868-23.978,84.113,108.933,94,241.7-6.356,254.883-21.988,0,0-21.984,7.325-33.218,0,39.567-19.541,68.394-67.908,72.95-105.151s11.075-59.808,29.964-77.395c-8.142-1.63-25.4,2.6-36.475,16.283,10.42-127.019,106.01-198.177,128.48-210.879-7.814-1.955-22.96-1.955-31.263,2.44,31.753-61.066,90.7-61.228,106.01-53.406-2.933-10.085-13.029-18.9-19.544-22.8,58.949-2.606,55.368,41.035,67.746,84.025,7.247,25.182,23.657,37.838,38.239,42.307a78.478,78.478,0,0,1-14.142-22.766C838.293,401.388,846.762,344.069,799.863,322.574Z" transform="translate(-290.228 -204.785)" fill="#e04f10"/>
      <path id="Path_34772" data-name="Path 34772" d="M398.09,939c-39.222,0-74.775-13.519-105.668-40.18l-.747-.641.074-.979c2.821-38.461,27.369-93.945,51.1-147.6,25-56.505,50.846-114.93,52.332-154.807,2.831-75.842,70.662-142.989,75.856-148.021,19.347-46.592,69.239-106.5,137.347-135.643a271.2,271.2,0,0,1,107.3-21.8c12.477,0,22.238.814,28.7,1.349l6.212.5c6.7.535,14.29,1.137,21.97,1.137,13.656,0,24.034-1.979,31.725-6.053l3.307-1.747-.447,3.708c-1.232,10.159-12.857,18.886-21.713,24.133,28.943,11.1,76.091,41.19,87.466,91.47,4.666,20.639,2.969,43.4,1.331,65.415-2.719,36.45-5.067,67.925,22.22,78.447l3.254,1.257-2.771,2.12c-3.046,2.328-7.772,3.609-13.3,3.613-14.54,0-41.916-9.614-52.294-45.659-2.261-7.856-3.986-15.7-5.655-23.287-7.24-32.9-12.969-58.953-54.139-59.431,5.877,4.617,12.882,11.924,15.347,20.41l1.264,4.342-4.029-2.057c-4.088-2.092-11.145-3.338-18.868-3.338-12.607,0-54.818,3.782-81.965,51.223a56.585,56.585,0,0,1,14.991-1.866,53.437,53.437,0,0,1,12.462,1.31l4.751,1.187-4.261,2.409C679.588,517.81,596.2,588.8,584.279,703.535c9.388-8.948,21.516-13.008,30.288-13.008a21.143,21.143,0,0,1,4.092.366l3.74.75-2.792,2.6c-19,17.688-24.974,40.43-29.355,76.208-4.36,35.623-31.764,83.744-70.552,104.858a28.051,28.051,0,0,0,9.268,1.356,69.364,69.364,0,0,0,18.991-3.159l6.6-2.2-4.483,5.31C538.927,889.824,472.593,939,398.09,939ZM295.725,896.507c29.989,25.6,64.421,38.585,102.365,38.585,68.042,0,125.67-40.465,143.686-55.956a64.643,64.643,0,0,1-12.807,1.433c-6.1,0-11.04-1.2-14.674-3.578l-2.87-1.87,3.071-1.518c39.437-19.474,67.517-67.985,71.876-103.633,4.152-33.88,10.1-57.491,27.457-75.525-8.856.268-21.914,5.261-30.51,15.878l-3.983,4.923.514-6.314c9.4-114.546,89.339-187.38,124.885-209.681a61.822,61.822,0,0,0-6.441-.331c-7.511,0-14.206,1.264-18.364,3.465l-5.539,2.93,2.895-5.557c27.985-53.832,74.419-58.012,87.983-58.012a58.329,58.329,0,0,1,16.294,2.067c-3.641-7.272-10.973-14.022-17.083-17.692l-5.567-3.338,6.487-.289c49.994-2.194,56.47,27.661,64.111,62.4,1.655,7.525,3.367,15.308,5.6,23.044,9.733,33.813,35.088,42.831,48.536,42.831a24.174,24.174,0,0,0,7.6-1.113c-25.943-12.959-23.488-45.913-20.9-80.7,1.623-21.731,3.3-44.2-1.243-64.263-14.445-63.879-85.906-89.058-88.941-90.1l-4.229-1.447,3.937-2.12c5.8-3.123,18.431-10.719,22.326-19.474-7.723,3.141-17.47,4.677-29.615,4.677-7.839,0-15.508-.613-22.28-1.151l-6.226-.5c-6.4-.532-16.065-1.335-28.379-1.335a267.28,267.28,0,0,0-105.763,21.484C543,343.361,492.813,404.215,474.495,448.642l-.159.387-.306.289c-.718.683-72.074,68.77-74.94,145.619-1.514,40.627-27.517,99.4-52.663,156.243C323.027,804.073,298.838,858.75,295.725,896.507Z" transform="translate(-291.675 -284.514)" fill="#661f00"/>
    </g>
    <g id="Group_3424" data-name="Group 3424" transform="translate(318.789 766.724)">
      <path id="Path_34773" data-name="Path 34773" d="M489.176,378.422c-9.769,42.014,30.612,105.2,6.511,151.444s-226.673,215.6-222.764,216.9,5.208-402.541,5.208-402.541Z" transform="translate(-269.716 -341.933)" fill="#f26c21"/>
      <path id="Path_34774" data-name="Path 34774" d="M272.922,459.029c.1.035.2-.208.292-.683C272.9,458.747,272.792,458.987,272.922,459.029Z" transform="translate(-269.714 -54.192)" fill="#e04f10"/>
      <path id="Path_34775" data-name="Path 34775" d="M427.82,369.093,297.2,347.929c17.488,45.011,43.472,90.019,98.7,84.673,27.559,32.155,14.325,85.98-16.287,132.879,13.216-14.191,50.473-36.8,54.713-44.944C458.432,474.289,418.051,411.107,427.82,369.093Z" transform="translate(-208.359 -332.604)" fill="#e04f10"/>
      <path id="Path_34776" data-name="Path 34776" d="M271.973,755.386l1.278-6.479a2.339,2.339,0,0,1,.38-1.972c3.543-22.773,4.793-397.262,4.807-401.069l.007-2.289L493.81,378.471l-.472,2.039c-4.081,17.533.828,38.975,6.022,61.678,7.1,31.035,14.441,63.122.317,90.223-16.91,32.457-119.032,123.325-180.052,177.615-21.78,19.378-39.109,34.8-42.36,38.6a2.327,2.327,0,0,1-1.261,1.592Zm7.011-15.339-.321,1.63c6.885-6.564,20.365-18.555,38.366-34.574,60.815-54.111,162.6-144.679,179.182-176.5,13.463-25.826,6.282-57.2-.662-87.55-5.1-22.3-9.931-43.412-6.455-61.389l-206.759-33.5c-.109,32.679-1.229,340.768-4.317,393.11Z" transform="translate(-271.973 -343.577)" fill="#661f00"/>
    </g>
    <g id="Group_3425" data-name="Group 3425" transform="translate(335.782 568.072)">
      <path id="Path_34777" data-name="Path 34777" d="M375.1,291.945c-31.753,4.733-84.515,17.921-94.283,52.6s4.233,504.321,4.233,504.321,84.677-22.146,109.426-63.833,33.221-91.843,22.636-137.6c-8.089-34.968-31.264-64.974-33.708-94.773s21.8-103.076,35.82-140.7,25.936-59.7,17.53-98.974S375.1,291.945,375.1,291.945Z" transform="translate(-275.389 -285.765)" fill="#ffdcae"/>
      <path id="Path_34778" data-name="Path 34778" d="M380.3,550.99c-2.44-29.8,21.8-103.076,35.82-140.7s25.936-59.7,17.53-98.974c-7.522-35.162-54.741-20.139-63.77-17.463,6.74,13.758,15.917,22.724,29.96,32.573,12.054,9.085,21.005,22.8,10.5,34.035-16.428,17.311-41.219,39.895-51.276,124.575-5.824,49.022-15.614,101.256-.264,144.6,17.59,50.318-3.465,106.01-66.439,89.889-4.483.359-9.082.817-13.769,1.324,1.743,72.531,3.349,126.343,3.349,126.343s84.677-22.146,109.429-63.833,33.218-91.839,22.632-137.6C405.914,610.794,382.739,580.788,380.3,550.99Z" transform="translate(-272.276 -284.092)" fill="#eab681"/>
      <path id="Path_34779" data-name="Path 34779" d="M284.583,852.781l-.074-2.451c-.571-19.192-13.9-470.332-4.162-504.909,10.145-36.014,64.238-49.276,95.706-53.984a92.212,92.212,0,0,1,26.541-4.271c20.766,0,33.728,9.276,37.486,26.816,7.462,34.88-.887,56.533-12.441,86.5-1.666,4.317-3.4,8.818-5.169,13.568-17.836,47.874-37.884,113.225-35.7,139.851,1.3,15.847,8.645,31.876,16.42,48.846,6.638,14.494,13.5,29.478,17.245,45.648,10.635,45.98,2.3,96.66-22.858,139.038-24.876,41.9-107.126,63.812-110.616,64.728ZM402.594,291.074a89,89,0,0,0-25.446,4.124l-.345.081c-30.51,4.546-83.127,17.241-92.7,51.206-9.212,32.7,3.155,464.237,4.233,501.233,13.846-3.965,84.113-25.633,105.869-62.277,24.657-41.525,32.827-91.153,22.414-136.164-3.652-15.783-10.434-30.584-16.991-44.9-7.923-17.294-15.406-33.626-16.762-50.156-2.941-35.9,31.947-130.829,35.936-141.534,1.771-4.764,3.511-9.279,5.183-13.61C435.3,369.74,443.478,348.54,436.255,314.8,432.889,299.057,421.56,291.074,402.594,291.074Z" transform="translate(-276.798 -287.165)" fill="#996434"/>
    </g>
    <g id="Group_3427" data-name="Group 3427" transform="translate(364.71 933.778)">
      <path id="Path_34780" data-name="Path 34780" d="M300.176,553.471c3.581-17.914,26.953-60.548,65.788-106.5C395.3,412.257,452.6,378.254,479.3,396.819c33.57,23.337,19.54,86.631-16.283,141.344s-80.772,75.567-119.853,89.244-57.2,1.947-57.583-5.215S291.873,571.458,300.176,553.471Z" transform="translate(-283.616 -389.617)" fill="#f26c21"/>
      <path id="Path_34781" data-name="Path 34781" d="M473.706,404.309c-1.166-1.028-5.367-6.581-6.677-7.49-26.707-18.565-84,15.438-113.338,50.156-33.591,39.747-55.6,77-63.256,97.932,20.636-33.26,43.62-60.044,72.052-92.072C388.215,423.85,435.568,391.072,473.706,404.309Z" transform="translate(-271.343 -389.617)" fill="#ffa578"/>
      <path id="Path_34782" data-name="Path 34782" d="M293.086,435.444c15.878,9.152,29.122,22.3,17.857,53.163,2.173-18.727-.63-36.711-20.724-44.941A49.391,49.391,0,0,1,293.086,435.444Z" transform="translate(-271.885 -278.993)" fill="#e04f10"/>
      <path id="Path_34783" data-name="Path 34783" d="M479.415,393.085c41.574,43.557-42.941,151.356-85.441,176.108-43.641,29.64-84.878,41.035-103.348,13.772-3.261,15.963-5.261,31.394-5.043,35.408.387,7.163,18.5,18.886,57.583,5.215s84.029-34.528,119.853-89.244C498.8,479.692,512.837,416.485,479.415,393.085Z" transform="translate(-283.616 -385.799)" fill="#e04f10"/>
      <g id="Group_3426" data-name="Group 3426" transform="translate(15.863 162.029)">
        <path id="Path_34784" data-name="Path 34784" d="M312.714,484.613c.229-1.349,5.208-33.095-23.2-43.934l1.395-3.652C322.338,449.022,312.714,484.613,312.714,484.613Z" transform="translate(-289.518 -437.028)" fill="#661f00"/>
      </g>
      <path id="Path_34785" data-name="Path 34785" d="M312.177,637.074c-17.164,0-26.795-6.9-27.147-13.382-.394-7.3,6.363-51.2,14.674-69.432,3.926-19.016,27.844-61.805,66.165-107.147,23.3-27.577,65.626-56.1,96.107-56.1,7.821,0,14.5,1.884,19.84,5.6,16.431,11.423,22.9,32.447,18.7,60.8-3.775,25.492-16.012,55.047-34.461,83.226-35.722,54.554-81.131,76.116-120.842,90.015C333.02,634.915,321.906,637.074,312.177,637.074Zm149.8-242.153c-29.348,0-70.394,27.816-93.121,54.713-37.644,44.539-61.773,87.66-65.362,105.619l-.144.437c-8.152,17.66-14.8,60.675-14.42,67.795.183,3.374,7.191,9.681,23.249,9.681,9.29,0,19.967-2.088,31.742-6.208,39.088-13.677,83.779-34.883,118.863-88.466,33.619-51.343,50.184-115.465,16.8-138.668C474.906,396.573,468.983,394.921,461.976,394.921Z" transform="translate(-285.013 -391.016)" fill="#661f00"/>
    </g>
    <g id="Group_3429" data-name="Group 3429" transform="translate(253.406 627.912)">
      <path id="Path_34786" data-name="Path 34786" d="M525.831,328.3s-33.109.331-51.92,20.115-32.809,43.4-38.673,80.525c-17.59-11.072-41.363-13.026-56.995-12.05s-21.576,4.317-23.777-.081S353,396.375,340.789,377.647s-28.4-25.284-41.067-25.791-20.488,1.2-21.136,6.574,28.658,14.494,27.193,31.919c-11.726-2.278-27.439-1.1-33.626.2S255.7,396.089,254.971,402.4c-1.014,8.793,33.056,10.378,44.62,17.259-11.075,3.1-46.9,12.54-45.6,22.963s40.546,2.116,48.2,4.395c-9.445,5.374-38.271,21.171-34.493,32.33,1.919,5.673,16.984,4.31,28.953.4s30.207,5.455,46.818-12.132c2.93,19.051,26.95,44.7,58.217,62.939s59.924,17.586,88.91,0,61.967-46.247,83.744-99.009,3.539-113.669-40.754-126.857Z" transform="translate(-252.006 -302.817)" fill="#f26c21"/>
      <path id="Path_34787" data-name="Path 34787" d="M296.95,344.946c-4.761,4.62-35.845,26.418-38.165,31.549-2.444-2.687,1.046-8.839,7.606-14.251S288.341,346.189,296.95,344.946Z" transform="translate(-241.814 -201.313)" fill="#ffa578"/>
      <path id="Path_34788" data-name="Path 34788" d="M254.489,357.749c6.074-4.56,39.268-16.575,47.434-20.125C291.337,339.082,255.176,346.8,254.489,357.749Z" transform="translate(-250.674 -219.775)" fill="#ffa578"/>
      <path id="Path_34789" data-name="Path 34789" d="M255.017,339.451c12.4-6.17,22.724-5.937,49.864-7.212-1.764-2.335-18.727-4.574-31-3.109S256.908,335.113,255.017,339.451Z" transform="translate(-249.343 -242.372)" fill="#ffa578"/>
      <path id="Path_34790" data-name="Path 34790" d="M262.635,321.31c17.445,1.268,30.034,3.923,43.254,15.273s20.037,34.07,24.96,47.364c1.38-5.268-1.549-22.491-8.878-35.313s-16.2-22.263-29.415-27.323S264.977,317.8,262.635,321.31Z" transform="translate(-230.135 -269.08)" fill="#ffa578"/>
      <path id="Path_34791" data-name="Path 34791" d="M283.728,339.878c14.818,1.789,39.588-2.1,64.809,10.258,28.4,13.906,32.186,45.208,33.01,55.333,1.444-9.166,3.141-31.883-11.149-47.881s-30.285-18.931-43.11-20.276S290.81,336.62,283.728,339.878Z" transform="translate(-176.95 -222.219)" fill="#ffa578"/>
      <path id="Path_34792" data-name="Path 34792" d="M306.506,337.847c18.808,9.526,34.264,26.643,20.308,64.615,3.384-20.284.088-44.437-21.365-57.125C305.285,343.221,306.506,337.847,306.506,337.847Z" transform="translate(-122.217 -219.213)" fill="#e04f10"/>
      <path id="Path_34793" data-name="Path 34793" d="M393.74,311.395c-46.423,15.413-59.981,33.549-87.339,93.477-1.035-11.748,13.146-45.733,25.774-62.249S360.41,313.994,393.74,311.395Z" transform="translate(-119.915 -285.91)" fill="#ffa578"/>
      <path id="Path_34794" data-name="Path 34794" d="M254.662,342.98c-.014.264-.725,2.828-.69,3.1,1.285,10.307,39.683,2.3,47.92,4.331,3.592-.7,7.057-.465,11.515-1.074C295.948,338.856,260.159,351.474,254.662,342.98Z" transform="translate(-251.982 -206.27)" fill="#e04f10"/>
      <path id="Path_34795" data-name="Path 34795" d="M255.433,331.566a7.178,7.178,0,0,0-1.169,3.067c-1.011,8.754,32.771,10.371,44.469,17.178,4.011.919,8.025,2.049,12.04,2.852C291.148,335.2,262,337.972,255.433,331.566Z" transform="translate(-251.298 -235.05)" fill="#e04f10"/>
      <path id="Path_34796" data-name="Path 34796" d="M293.856,362.92c5.307-21.234-11.829-39.268-31.073-43.93a5.2,5.2,0,0,0-1.821,3.384c-.655,5.374,28.658,14.494,27.193,31.919-.176-.035-.363-.06-.542-.1A23.673,23.673,0,0,1,293.856,362.92Z" transform="translate(-234.381 -266.76)" fill="#e04f10"/>
      <path id="Path_34797" data-name="Path 34797" d="M534.945,305.972c33.8,37.06,17.477,90.262,6.029,114.93-16.382,35.292-40.609,66.71-76.909,84.275-50.807,25.4-97.706-13.681-127.015-56.671-15.959,25.242-41.173,17.716-50.156,19.949C276.668,471,256.93,481.4,258.226,471.427a7.246,7.246,0,0,0-.123,4.687c1.919,5.673,16.984,4.31,28.953.4s30.207,5.455,46.818-12.132c2.93,19.051,26.95,44.7,58.217,62.935s59.924,17.59,88.91,0,61.967-46.244,83.744-99.006C584.626,380.148,571.142,325.213,534.945,305.972Z" transform="translate(-242.403 -299.584)" fill="#e04f10"/>
      <g id="Group_3428" data-name="Group 3428" transform="translate(179.222 122.67)">
        <path id="Path_34798" data-name="Path 34798" d="M329.676,399.573c.07-.377,6.645-38.239-25.376-57.217l1.993-3.363C340.7,359.386,329.676,399.573,329.676,399.573Z" transform="translate(-304.3 -338.993)" fill="#661f00"/>
      </g>
      <path id="Path_34799" data-name="Path 34799" d="M447.992,547.223c-15.079,0-30.3-4.546-45.885-13.642-30.439-17.755-53.28-41.669-58.4-60.749-11.036,9.881-22.7,9.522-32.225,9.226-4.74-.148-9.223-.282-12.811.887-11.174,3.652-28.753,6.226-31.415-1.634-3.363-9.934,12.357-21.255,29.658-31.373-2.771.1-6.068.335-9.311.57-16.251,1.18-33.056,2.395-34.144-6.307-1.215-9.726,19.882-17.385,41.835-23.636a152.89,152.89,0,0,0-16.135-4.271c-13.7-3.124-25.527-5.825-24.724-12.776.9-7.782,12.635-12.258,18.716-13.536a108.468,108.468,0,0,1,32.084-.613c-.757-8.909-10.769-15.554-18.227-20.5-5.624-3.733-9.339-6.2-8.962-9.332,1-8.226,13.695-8.677,23.157-8.293,7.786.31,27.534,3.535,42.627,26.675,8.944,13.716,11.128,26.094,12.427,33.489a29.08,29.08,0,0,0,1.359,5.87c.729,1.461,2.433,1.381,8.814.458,3.4-.5,7.634-1.109,13.093-1.451,7.909-.493,34.567-1.1,55.653,10.85,5.514-32.049,17.526-56.424,38.722-78.722,19.111-20.107,53.336-18.77,53.336-18.77-.32.025-32.454,2.472-50.5,21.463-21.238,22.344-33.006,46.857-38.158,79.483l-.461,2.926-2.511-1.578c-20.435-12.867-47.9-12.251-55.833-11.751-5.3.331-9.441.933-12.776,1.416-6.73.979-10.793,1.57-12.867-2.578-.754-1.507-1.159-3.786-1.712-6.941-1.254-7.1-3.349-18.984-11.857-32.028-14.1-21.615-32.327-24.618-39.507-24.907-12.065-.479-18.678,1.2-19.121,4.86.275.975,4.3,3.648,7.244,5.6,8.36,5.55,20.995,13.938,19.96,26.245l-.183,2.173-2.138-.419c-11.719-2.275-27.179-.993-32.852.2-6.159,1.3-15.082,5.307-15.639,10.159-.4,3.479,12.9,6.515,21.706,8.525,8.36,1.905,17,3.877,21.967,6.832l3.919,2.335-5.994,1.676c-36.049,10-43.053,16.607-42.581,20.389.627,5.022,19.005,3.69,29.985,2.891,7.754-.564,13.878-1.007,16.836-.127l4.388,1.306-5.162,2.937c-8.789,4.979-35.538,20.136-32.422,29.33,1.1,3.261,12.917,3.609,26.5-.828,4.24-1.384,9.054-1.24,14.149-1.078,9.976.314,21.28.659,31.851-10.536l2.743-2.905.609,3.948c2.8,18.2,26.351,43.515,57.269,61.548,30.239,17.642,57.858,17.65,86.916.018,38.12-23.133,65.253-55.213,82.948-98.083,12.212-29.58,12.114-62.731-.257-88.674-8.557-17.945-22.5-30.577-39.247-35.563l1.113-3.747c17.826,5.307,32.623,18.671,41.666,37.63,12.836,26.922,12.966,61.259.338,91.847-18.023,43.666-45.673,76.356-84.536,99.932C478.015,542.67,463.074,547.219,447.992,547.223Z" transform="translate(-253.406 -304.158)" fill="#661f00"/>
    </g>
    <g id="Group_3431" data-name="Group 3431" transform="translate(363.393 268.294)">
      <path id="Path_34800" data-name="Path 34800" d="M689.523,423.589c8.7-55.868,1.053-105.531-30.749-145.5-31.616-39.733-77.148-59.766-96.766-65.46-19.269-6.793-67.95-17.016-116.786-3.116-49.131,13.984-84.268,49.906-109.718,100.4-21.453,42.56-51.188,65.657-50.29,109.732s48.755,96.379,125.966,121.173c7.381,16.621,21.076,26.425,35.588,30.675,14.272,4.994,31.116,4.994,46.8-4.219,77.211,24.795,146.57,10.124,172.96-25.185S682.188,470.681,689.523,423.589Z" transform="translate(-283.239 -200.638)" fill="#f26c21"/>
      <path id="Path_34801" data-name="Path 34801" d="M335.961,311.779c19.227-36.306,54.487-72.236,98.474-88.325,69.51-25.432,168.516,10.364,212,50.089-31.366-36.722-74.148-55.445-93-60.918-19.269-6.793-67.95-17.016-116.786-3.116-49.131,13.984-84.268,49.906-109.718,100.4-12.543,24.886-27.907,43.117-38.338,62.777C296.926,366.685,317.3,347.022,335.961,311.779Z" transform="translate(-274.667 -200.638)" fill="#ffa578"/>
      <path id="Path_34802" data-name="Path 34802" d="M335.448,261.91c19.467-.071,49.473,5.8,70.091,24.316C392.189,262.5,358.253,253.941,335.448,261.91Z" transform="translate(-156.527 -58.381)" fill="#ffa578"/>
      <path id="Path_34803" data-name="Path 34803" d="M462.106,219.512c31.344,34.341,39.81,104.545,28.242,154.374-1.546,28.834-5.719,68.654-32.524,102.432C430.645,510.56,395.082,521.191,357.455,535c57.688,7.5,105.876-7.5,126.867-35.584,26.39-35.31,15.663-71.4,23-118.493,4.673-29.971,4.634-58.157-1.317-84.018C504.324,289.6,493.122,246.138,462.106,219.512Z" transform="translate(-101.038 -157.971)" fill="#e04f10"/>
      <path id="Path_34804" data-name="Path 34804" d="M335.448,267.334c19.062-18.065,60.583-14.484,70.091,24.316C400.919,280.113,369.49,255.681,335.448,267.334Z" transform="translate(-156.527 -63.804)" fill="#e04f10"/>
      <g id="Group_3430" data-name="Group 3430" transform="translate(178.921 198.937)">
        <path id="Path_34805" data-name="Path 34805" d="M405.539,287.437c-.092-.144-9.363-14.628-31.968-21.879-23.893-7.663-37.986-2.49-38.123-2.437,0,0,13.984-9.413,39.317-1.285C398.82,269.551,405.539,287.437,405.539,287.437Z" transform="translate(-335.448 -258.529)" fill="#661f00"/>
      </g>
      <path id="Path_34806" data-name="Path 34806" d="M569.9,582.585h0c-24.252,0-49.283-4.018-74.7-12.093a55.639,55.639,0,0,1-27.784,7.42,58.927,58.927,0,0,1-19.65-3.634c-16.456-4.814-29.439-15.642-36.436-30.778C338.96,520,285.631,468.786,284.66,421.074c-.616-30.471,12.913-50.822,28.584-74.391,7.4-11.128,15.047-22.636,21.914-36.26,27.647-54.85,63.932-88.019,110.926-101.4a191.434,191.434,0,0,1,52.347-6.99c27.172,0,51.72,5.24,65.629,10.145,21.692,6.293,66.809,27.334,97.639,66.087,30.425,38.236,40.616,86.328,31.158,147.021-2.349,15.072-2.828,28.883-3.292,42.24-.563,16.192-1.081,31.116-4.842,45.5A89.2,89.2,0,0,1,669.4,544.508C651.468,568.5,614.243,582.585,569.9,582.585Zm-75.176-16.047.831.268c25.312,8.128,50.367,12.248,74.472,12.251h.011c43.117,0,79.12-13.737,96.315-36.746,17.512-23.432,18.343-47.29,19.3-74.919.468-13.47.951-27.4,3.335-42.7,9.279-59.555-.648-106.651-30.348-143.985-30.224-37.982-74.429-58.6-95.783-64.8-13.709-4.832-37.754-9.959-64.432-9.959a187.372,187.372,0,0,0-51.276,6.846c-45.885,13.061-81.377,45.571-108.506,99.4-6.973,13.832-14.688,25.439-22.15,36.665-15.308,23.02-28.524,42.9-27.929,72.144.81,39.69,43.87,93.431,124.607,119.356l.831.268.359.8C420.8,555.9,433,566.4,448.717,571.007a56.425,56.425,0,0,0,18.713,3.261,51.754,51.754,0,0,0,26.541-7.286Z" transform="translate(-284.639 -202.036)" fill="#661f00"/>
    </g>
    <g id="Group_3436" data-name="Group 3436" transform="translate(363.393 449.684)">
      <g id="Group_3435" data-name="Group 3435">
        <path id="Path_34807" data-name="Path 34807" d="M285.214,289.757c.9,44.071,48.755,96.379,125.966,121.173,7.381,16.621,21.076,26.425,35.588,30.675,14.272,4.994,31.116,4.994,46.8-4.219,77.211,24.795,146.57,10.124,172.96-25.185a87.453,87.453,0,0,0,14.639-30.049c-14.5-19.3-34.609-23.273-53.023-22.981-21.315.338-54.026,4.2-65.2-.415s-6.036-33.066-46.2-42.543c-10.371-3.032-43.659-13.72-53.857-17.294-38.176-15.681-50.558,10.445-62.33,7.691s-36.12-24.939-53.255-37.623c-14.8-10.962-33.461-19.442-56.491-12.184A87.5,87.5,0,0,0,285.214,289.757Z" transform="translate(-283.24 -252.148)" fill="#ffdcae"/>
        <path id="Path_34808" data-name="Path 34808" d="M327.156,274.778c5.374,10.4,38.87,46.536,62.1,11.857a74.678,74.678,0,0,0,11.343,3.43c-4.884,9.445,5.909,43.8,64.974,29.8a15.344,15.344,0,0,1,4.395,4.726C452.826,337.981,405.3,343.15,389,309.813c-27.812,11.843-58.153-6.071-70.151-32.778C320.965,275.408,327.156,274.778,327.156,274.778Z" transform="translate(-198.381 -200.01)" fill="#eab681"/>
        <g id="Group_3432" data-name="Group 3432" transform="translate(188.05 85.691)">
          <path id="Path_34809" data-name="Path 34809" d="M338.341,305.548a44.093,44.093,0,0,1,6.18-27.668l3.254,2.162c-.074.109-7.275,11.2-5.557,25.023Z" transform="translate(-338.041 -277.88)" fill="#996434"/>
        </g>
        <path id="Path_34810" data-name="Path 34810" d="M655.907,363.234c-28.781,59.28-84.765,77.937-142.77,63.876,5.863-7.328,9.283-16.336,11.237-24.154-18.076,14.11-42.014,38.747-74.746,29.034-25.4-11.723-35.947-36.4-46.247-71.049-2.951,6.958-3.905,24-3.905,31.809C358.316,371.013,283.531,323.54,301.952,254.2a57.99,57.99,0,0,0-11.145,2.342,87.5,87.5,0,0,0-5.592,32.954c.9,44.071,48.755,96.379,125.966,121.173,7.381,16.621,21.076,26.425,35.588,30.675,14.272,4.994,31.116,4.994,46.8-4.219,77.211,24.795,146.57,10.124,172.96-25.185a87.453,87.453,0,0,0,14.639-30.049C672.345,370.154,667.232,366.122,655.907,363.234Z" transform="translate(-283.24 -251.889)" fill="#eab681"/>
        <g id="Group_3433" data-name="Group 3433" transform="translate(122.559 136.956)">
          <path id="Path_34811" data-name="Path 34811" d="M325.894,320.659c-5.838-11.064-6.451-28.221-6.451-28.221.042.155,4.275,15.723,9.906,26.4Z" transform="translate(-319.443 -292.438)" fill="#996434"/>
        </g>
        <g id="Group_3434" data-name="Group 3434" transform="translate(203.979 170.625)">
          <path id="Path_34812" data-name="Path 34812" d="M344.314,321.187l-1.75-3.5c10.8-5.405,23.3-15.589,23.425-15.692C365.989,302,355.5,315.592,344.314,321.187Z" transform="translate(-342.564 -301.999)" fill="#996434"/>
        </g>
        <path id="Path_34813" data-name="Path 34813" d="M570.031,453.086c-24.242,0-49.42-4.1-74.838-12.174A55.555,55.555,0,0,1,467.43,448.3h0a60.217,60.217,0,0,1-19.907-3.448c-16.452-4.814-29.369-15.79-36.37-30.925-72.376-23.5-125.522-75.017-126.494-122.73a89.762,89.762,0,0,1,5.715-33.676l.335-.895.912-.285a58.547,58.547,0,0,1,17.593-2.793c13.473,0,26.77,4.993,40.648,15.269,4.9,3.631,10.283,7.944,15.977,12.512,13.388,10.74,28.566,22.911,36.556,24.777,3.127.732,6.779-1.321,11.55-4.078,6.719-3.881,15.086-8.709,27.474-8.709,7.377,0,15.1,1.7,23.6,5.194,10.11,3.539,43.268,14.184,53.66,17.223,27.559,6.5,34.676,22.192,39.388,32.573,2.226,4.909,3.986,8.79,7.011,10.04,3.423,1.416,9.539,2.1,18.706,2.1,7.786,0,16.766-.486,25.446-.961,7.289-.4,14.174-.775,20.273-.87.62-.01,1.233-.014,1.852-.014,23.492,0,40.75,7.775,52.765,23.777l.574.764-.25.923a89.69,89.69,0,0,1-14.963,30.707C651.559,438.76,614.376,453.086,570.031,453.086Zm-75.3-16.427.831.268c25.316,8.128,50.371,12.251,74.472,12.251,43.12,0,79.131-13.737,96.326-36.746a85.679,85.679,0,0,0,14.065-28.464c-11.339-14.635-26.953-21.46-49.061-21.46-.6,0-1.194.007-1.789.014-6.025.1-12.874.472-20.121.866-8.737.475-17.766.968-25.661.968-9.821,0-16.237-.761-20.2-2.395-4.455-1.842-6.6-6.568-9.082-12.04-4.659-10.265-11.036-24.323-36.82-30.408-10.533-3.074-43.814-13.762-54.054-17.354-8.011-3.286-15.452-4.934-22.217-4.934-11.343,0-19.206,4.539-25.52,8.184-4.423,2.553-8.244,4.758-12.146,4.758a9.976,9.976,0,0,1-2.25-.254c-8.853-2.074-23.728-14-38.109-25.538-5.666-4.543-11.015-8.832-15.861-12.42-18.512-13.705-35.781-17.544-53.825-12.174a85.719,85.719,0,0,0-5.141,31.33c.81,39.69,43.87,93.431,124.607,119.356l.831.268.359.8C420.8,426.02,433,436.524,448.717,441.127a56.424,56.424,0,0,0,18.713,3.261,51.764,51.764,0,0,0,26.541-7.286Z" transform="translate(-284.639 -253.546)" fill="#996434"/>
      </g>
    </g>
    <g id="Group_3439" data-name="Group 3439" transform="translate(493.947 542.404)">
      <path id="Path_34814" data-name="Path 34814" d="M322.661,280.787c6.43,17.5,9.05,35.095,14.653,48.191,4.515,10.55,11.815,17.16,22.967,20.484,12.8,4.37,21.833,2.38,32.2-4.286,10.135-6.515,20.495-16.526,32.707-25.622-22.481-.356-34.672-9.3-47.8-22.861C354.343,301.616,333.824,294.292,322.661,280.787Z" transform="translate(-319.323 -277.579)" fill="#600"/>
      <path id="Path_34815" data-name="Path 34815" d="M337.862,316.8c19.949,14.508,44.948,10.487,57.808-8.916-12.97-3.43-22.08-10.857-31.672-20.763-13.276,2.838-25.7,1.592-35.993-2.542C327.819,296.372,328.058,308.633,337.862,316.8Z" transform="translate(-305.933 -268.01)" fill="#280000"/>
      <g id="Group_3438" data-name="Group 3438" transform="translate(13.522 39.666)">
        <g id="Group_3437" data-name="Group 3437">
          <path id="Path_34816" data-name="Path 34816" d="M326.239,296.092c.644,1.856,1.317,3.666,2.053,5.381,4.515,10.55,11.815,17.16,22.967,20.484,12.8,4.37,21.833,2.38,32.2-4.286.609-.391,1.219-.817,1.835-1.233C376.8,293.676,347.209,285.922,326.239,296.092Z" transform="translate(-323.823 -289.74)" fill="#ff8f8f"/>
          <path id="Path_34817" data-name="Path 34817" d="M371.7,295.452c-9.811,17.607-28.256,13.484-42.895,7.48a34.755,34.755,0,0,0,15.977,9.554c12.8,4.37,21.833,2.38,32.2-4.286.609-.391,1.219-.817,1.835-1.233C376.864,301.741,375.519,299.058,371.7,295.452Z" transform="translate(-317.348 -280.268)" fill="#f46e6e"/>
          <path id="Path_34818" data-name="Path 34818" d="M365.616,327.636h0a40.851,40.851,0,0,1-13.255-2.43c-11.635-3.465-19.329-10.325-24.136-21.565-.673-1.578-1.342-3.328-2.1-5.508l-.57-1.641,1.564-.757a47.371,47.371,0,0,1,20.586-4.6c19.1,0,35.25,10.216,41.148,26.017l.535,1.433-1.62,1.1c-.507.352-1.018.7-1.525,1.028C378.8,325.5,372.438,327.636,365.616,327.636Zm-35.207-29.112c.493,1.345.951,2.511,1.405,3.581,4.317,10.089,11.223,16.248,21.731,19.379a37.208,37.208,0,0,0,12.068,2.243c6.032,0,11.741-1.94,18.516-6.3.166-.1.331-.211.5-.321-5.747-13.452-20.055-22.058-36.923-22.058A43.878,43.878,0,0,0,330.409,298.524Z" transform="translate(-325.553 -291.14)" fill="#d83030"/>
        </g>
      </g>
      <path id="Path_34819" data-name="Path 34819" d="M411.573,332.145c-6.2,5.152-12.05,10.015-17.762,13.684-6.775,4.356-12.48,6.3-18.512,6.3a37.319,37.319,0,0,1-12.071-2.243c-10.508-3.13-17.414-9.29-21.731-19.379-2.856-6.68-4.951-14.688-7.17-23.168-1.821-6.951-3.775-14.406-6.367-21.932a42.111,42.111,0,0,1-6.247-5.532c3.888,9.649,6.483,19.477,8.832,28.453,2.257,8.624,4.391,16.769,7.36,23.714,4.807,11.24,12.5,18.1,24.133,21.562a40.8,40.8,0,0,0,13.262,2.433c6.825,0,13.184-2.134,20.629-6.916,5.909-3.8,11.853-8.74,18.142-13.97,5.015-4.166,10.367-8.61,16.153-12.822-1.733-.268-3.444-.62-5.148-1.039C420.3,324.912,415.813,328.627,411.573,332.145Z" transform="translate(-321.713 -279.876)" fill="#996434"/>
    </g>
    <g id="Group_3441" data-name="Group 3441" transform="translate(523.161 559.624)">
      <path id="Path_34820" data-name="Path 34820" d="M330.575,284.978c-.155,8.082.775,23.051,1.958,24.685,1.306,1.8,9.184,6.314,15.272,6.064,4.807,3.747,13.839,4.662,15.949,3.962,1.856-.62,10.836-11.593,15.547-18.333-9.533-3.057-16.78-9.9-21.664-15.681C347.217,288.042,337.526,289.1,330.575,284.978Z" transform="translate(-328.625 -284.231)" fill="#fff"/>
      <path id="Path_34821" data-name="Path 34821" d="M347.281,286.553c.243,4.233,6.23,9.374,10.054,12.807.49.912-6.715,10.952-8.832,11.822s-10.054.025-12.5-.965c-1.2,1.539,1.426,4.138,5.761,5.2s8,1.845,12.4-2.905,10.829-13.543,10.829-13.543C360.187,294.9,347.281,286.553,347.281,286.553Z" transform="translate(-315.624 -280.26)" fill="#d3d3d3"/>
      <path id="Path_34822" data-name="Path 34822" d="M332.991,288.411c2.852,1.546,9.113,3.173,13.515,2.278a179.9,179.9,0,0,0-4.884,18.643c-.324,1.141-7.328-.158-10.258-.975-.328,1.792,9.4,7.071,12.945,6.272.9-3.176,5.821-22.992,10.258-29.475C350.334,286.21,337.875,289.225,332.991,288.411Z" transform="translate(-326.614 -283.788)" fill="#d3d3d3"/>
      <g id="Group_3440" data-name="Group 3440" transform="translate(17.23)">
        <path id="Path_34823" data-name="Path 34823" d="M338.8,316.367l-3.9-.2c.891-17.153,10.1-30.827,10.5-31.4l3.226,2.2C348.537,287.1,339.638,300.341,338.8,316.367Z" transform="translate(-334.902 -284.766)" fill="#727271"/>
      </g>
      <path id="Path_34824" data-name="Path 34824" d="M379.055,300.42c-4.645,6.663-12.984,16.66-14.537,17.537a5.288,5.288,0,0,1-1.416.12c-3.046,0-9.194-1.025-12.712-3.764l-.567-.44-1.116.035c-5.388,0-12.315-4.036-13.135-5.155-.835-1.757-1.831-15.385-1.669-23.449q-1.9-.2-3.881-.373c-.12,7.515.539,23.555,2.314,26,1.694,2.342,9.677,6.821,16.223,6.884,4.349,3.046,10.994,4.169,14.544,4.169h0a8.586,8.586,0,0,0,2.652-.321c2.771-.923,12.047-12.726,16.537-19.107C381.2,301.818,380.119,301.1,379.055,300.42Z" transform="translate(-330.009 -284.355)" fill="#727271"/>
    </g>
    <g id="Group_3445" data-name="Group 3445" transform="translate(421.318 334.526)">
      <path id="Path_34825" data-name="Path 34825" d="M303.112,297.474c4.842-23.073,42.913-92.428,86.353-73.348s29.869,95.963,19.85,121.307c-5.258,13.3-16.473,35.848-58.78,20.118C306.668,349.243,296,318.793,303.112,297.474Z" transform="translate(-301.088 -220.844)" fill="#ffdcae"/>
      <g id="Group_3443" data-name="Group 3443" transform="translate(22.102 38.514)">
        <path id="Path_34826" data-name="Path 34826" d="M362.3,324.462c-9.275,3.106-40.659-8.448-51.332-29.08-7.927-15.325.183-32.168,7.3-43.962,10.656-17.66,31.686-24.833,46.036-15.6C391.746,253.491,386.882,319.074,362.3,324.462Z" transform="translate(-306.525 -231.781)"/>
        <path id="Path_34827" data-name="Path 34827" d="M359.977,319.737c-8.775,2.828-38.609-8.124-48.867-27.369-7.624-14.3-.046-29.9,6.624-40.807,9.987-16.34,29.88-22.868,43.55-14.184C387.423,253.981,383.25,314.9,359.977,319.737Z" transform="translate(-305.971 -227.387)" fill="#fff"/>
        <path id="Path_34828" data-name="Path 34828" d="M318.167,238.463c-.141.222-.3.419-.433.644-6.669,10.909-14.248,26.509-6.624,40.807,10.258,19.245,40.092,30.2,48.867,27.369,12.892-2.68,19.907-22.562,19.174-42.592C368.4,294.19,310.1,275.988,318.167,238.463Z" transform="translate(-305.971 -214.933)" fill="#d8d8d8"/>
        <g id="Group_3442" data-name="Group 3442" transform="translate(23.448 32.415)">
          <path id="Path_34829" data-name="Path 34829" d="M352.607,273.2c-4.483,13.956-16.273,22.65-26.333,19.421s-14.582-17.164-10.1-31.123,16.273-22.654,26.333-19.421S357.09,259.241,352.607,273.2Z" transform="translate(-312.971 -239.936)" fill="#1557ff"/>
          <path id="Path_34830" data-name="Path 34830" d="M315.818,247.452c-3.852,13.544.669,26.777,10.438,29.915,10.061,3.229,21.854-5.465,26.333-19.421a36.525,36.525,0,0,0,1.282-5.335C343.014,264.355,320.421,256.048,315.818,247.452Z" transform="translate(-312.953 -224.682)" fill="#003dc6"/>
          <path id="Path_34831" data-name="Path 34831" d="M340.247,265.791c-2.733,8.511-9.923,13.811-16.058,11.843s-8.892-10.466-6.159-18.977,9.92-13.818,16.058-11.846S342.984,257.28,340.247,265.791Z" transform="translate(-306.581 -227.337)"/>
          <path id="Path_34832" data-name="Path 34832" d="M319.132,249.8a4.816,4.816,0,1,0,6.106-3.278A4.9,4.9,0,0,0,319.132,249.8Z" transform="translate(-301.773 -227.598)" fill="#fff"/>
          <path id="Path_34833" data-name="Path 34833" d="M321.1,254.644a2.533,2.533,0,1,0,3.208-1.722A2.575,2.575,0,0,0,321.1,254.644Z" transform="translate(-296.499 -211.189)" fill="#fff"/>
          <path id="Path_34834" data-name="Path 34834" d="M331.661,295.808a15.527,15.527,0,0,1-4.782-.743c-5.325-1.708-9.392-6.141-11.452-12.48a33.711,33.711,0,0,1,.405-20.484c3.99-12.431,13.61-21.115,23.393-21.115a15.652,15.652,0,0,1,4.782.743c10.815,3.476,15.769,18.262,11.05,32.968C351.064,287.128,341.443,295.808,331.661,295.808Zm7.564-51.889c-8.392,0-17.054,8.022-20.6,19.076a30.784,30.784,0,0,0-.405,18.685c1.757,5.416,5.155,9.18,9.561,10.6a12.754,12.754,0,0,0,3.884.6c8.388,0,17.054-8.025,20.6-19.076,4.229-13.167.12-26.3-9.156-29.281A12.753,12.753,0,0,0,339.225,243.919Z" transform="translate(-314.023 -240.986)" fill="#002066"/>
        </g>
        <path id="Path_34835" data-name="Path 34835" d="M357.969,323.533c-12.67,0-37.947-11.5-47.191-28.844-8.117-15.23-.074-31.693,6.684-42.747,7.043-11.526,19.442-18.974,31.591-18.974a27.286,27.286,0,0,1,14.674,4.162c16.593,10.536,21.428,37.127,17.632,57.942-2.831,15.505-10.11,25.946-19.491,27.957A13.35,13.35,0,0,1,357.969,323.533Zm-8.916-86.656c-10.814,0-21.907,6.715-28.256,17.1-6.258,10.237-13.748,25.4-6.571,38.87,8.853,16.611,33.352,26.777,43.743,26.777a9.574,9.574,0,0,0,2.8-.349l.2-.053c7.814-1.623,14-10.916,16.54-24.854,3.476-19.055-.909-44.434-15.882-53.942A23.373,23.373,0,0,0,349.053,236.877Z" transform="translate(-307.365 -228.788)"/>
      </g>
      <g id="Group_3444" data-name="Group 3444" transform="translate(57.856 29.652)">
        <path id="Path_34836" data-name="Path 34836" d="M356.37,264.224c.13-.588,3.169-14.723-10.374-25.826a28.508,28.508,0,0,0-28.478-4.771s15.54-10.892,30.957,1.75C363.952,248.064,356.37,264.224,356.37,264.224Z" transform="translate(-317.518 -229.265)" fill="#996434"/>
      </g>
    </g>
    <g id="Group_3446" data-name="Group 3446" transform="translate(481.03 524.452)">
      <path id="Path_34837" data-name="Path 34837" d="M436.658,336.8c-15.068,0-32.468-5.314-47.849-23.548-49.9,12.8-70.556-36.5-70.764-37.01l3.624-1.468c.789,1.94,19.928,47.385,67.33,34.391l1.222-.338.806.982c34.574,42.2,79.236,14.494,81.117,13.294l2.106,3.293C473.964,326.582,457.558,336.8,436.658,336.8Z" transform="translate(-318.045 -274.778)" fill="#996434"/>
    </g>
    <g id="Group_3447" data-name="Group 3447" transform="translate(475.417 523.054)">
      <path id="Path_34838" data-name="Path 34838" d="M316.451,287.635s1.264-8.649,6.905-11.825c5.282-2.979,15.089-.377,15.089-.377-.084.011-8.547,1.173-13.17,3.779C320.43,281.945,316.493,287.583,316.451,287.635Z" transform="translate(-316.451 -274.381)" fill="#996434"/>
    </g>
    <g id="Group_3448" data-name="Group 3448" transform="translate(625.621 565.973)">
      <path id="Path_34839" data-name="Path 34839" d="M369.877,309.293c0-.07.081-6.948-2.268-11.987-2.247-4.825-8.444-10.681-8.5-10.737,0,0,9.487,3.588,12.047,9.085C373.884,301.525,369.877,309.293,369.877,309.293Z" transform="translate(-359.105 -286.569)" fill="#996434"/>
    </g>
    <g id="Group_3449" data-name="Group 3449" transform="translate(527.778 482.271)">
      <path id="Path_34840" data-name="Path 34840" d="M408.154,289.495c-4.567-9.93-16.882-18.572-30.925-22.967-17.061-4.888-29.034-3.81-37.5,1-11.321,6.42-8.631,20.488-2.909,30.362,5.55,9.582,16.495,16.861,24.224,19.558l-.007.021c.116.035.243.067.363.106s.243.088.359.123l0-.018c7.853,2.3,20.991,2.761,31.084-1.8C403.245,311.18,413.595,301.323,408.154,289.495Z" transform="translate(-329.911 -261.414)" fill="#7f0000"/>
      <path id="Path_34841" data-name="Path 34841" d="M408.4,290.28c-.106-.264-.176-.518-.3-.785-4.567-9.93-16.882-18.572-30.925-22.967-17.061-4.888-29.034-3.81-37.5,1a14.862,14.862,0,0,0-7.768,12.441C350.1,261.415,385.843,271.046,408.4,290.28Z" transform="translate(-329.856 -261.414)" fill="#ce4545"/>
      <path id="Path_34842" data-name="Path 34842" d="M406.372,277.009c-3.8,22.5-28.242,22.675-42.557,18.428-13.628-4.039-29.013-16.487-31.225-28.393-1.975,6.747.447,15.04,4.208,21.53,5.55,9.582,16.495,16.861,24.224,19.558l-.007.021c.116.035.243.067.363.106s.243.088.356.123l.007-.018c7.853,2.3,20.991,2.761,31.084-1.8,10.4-4.7,20.752-14.554,15.311-26.383A26,26,0,0,0,406.372,277.009Z" transform="translate(-329.894 -252.101)" fill="#590000"/>
      <path id="Path_34843" data-name="Path 34843" d="M376.218,322.718h0a52.078,52.078,0,0,1-11.779-1.3l-4.349-1.395c-7.934-3.236-18.167-10.469-23.559-19.769-2.187-3.778-7-13.55-4.514-22.731a16.538,16.538,0,0,1,8.152-10.318c9.617-5.455,22.675-5.846,39-1.169,15.23,4.765,27.541,13.97,32.169,24.03a16.577,16.577,0,0,1,.6,13.153c-3.328,8.9-12.92,14.033-16.889,15.825A46.8,46.8,0,0,1,376.218,322.718Zm-12.811-5.624.31.092a45.868,45.868,0,0,0,12.5,1.623,42.946,42.946,0,0,0,17.23-3.324c7.335-3.314,12.881-8.413,14.832-13.631a12.81,12.81,0,0,0-.489-10.152c-4.184-9.089-15.579-17.488-29.739-21.925-15.153-4.335-27.288-4.088-35.954.831a12.76,12.76,0,0,0-6.31,7.937c-1.461,5.388.081,12.769,4.127,19.748,5.289,9.128,15.723,16.09,23.178,18.7Z" transform="translate(-331.32 -262.8)" fill="#230000"/>
    </g>
    <g id="Group_3453" data-name="Group 3453" transform="translate(627.618 403.249)">
      <path id="Path_34844" data-name="Path 34844" d="M475.925,351.2c9.494-21.576,18.924-100.133-27.5-109.912s-80.155,60.632-86.765,87.071c-3.469,13.874-7.48,38.74,36.077,50.582C442.894,391.213,469.294,372.669,475.925,351.2Z" transform="translate(-359.672 -240.36)" fill="#ffdcae"/>
      <g id="Group_3451" data-name="Group 3451" transform="translate(18.166 37.547)">
        <path id="Path_34845" data-name="Path 34845" d="M369.546,324.748c5.729,7.962,37.993,16.84,58.724,6.191,15.4-7.909,18.639-26.428,19.741-40.236,1.648-20.671-11.258-38.824-28.327-39.648C387.054,249.48,352.7,305.982,369.546,324.748Z" transform="translate(-364.108 -251.022)"/>
        <path id="Path_34846" data-name="Path 34846" d="M369.7,320.63c5.486,7.4,36.12,15.871,55.667,6.194,14.519-7.184,17.438-24.28,18.371-37.035,1.395-19.1-10.98-35.986-27.154-36.884C385.663,251.187,353.589,303.143,369.7,320.63Z" transform="translate(-363.417 -246.376)" fill="#fff"/>
        <path id="Path_34847" data-name="Path 34847" d="M374.9,260.72c-9.416,14.737-13.086,31.545-5.2,40.1,5.486,7.4,36.12,15.871,55.667,6.194,14.03-6.944,17.223-23.129,18.262-35.722C428.409,300.026,373.207,291.966,374.9,260.72Z" transform="translate(-363.413 -226.568)" fill="#d8d8d8"/>
        <g id="Group_3450" data-name="Group 3450" transform="translate(11.242 25.718)">
          <path id="Path_34848" data-name="Path 34848" d="M370.166,278.837c-4.483,13.956.042,27.893,10.1,31.123s21.851-5.465,26.333-19.424-.042-27.89-10.1-31.119S374.649,264.881,370.166,278.837Z" transform="translate(-366.984 -257.275)" fill="#1557ff"/>
          <path id="Path_34849" data-name="Path 34849" d="M371.628,263.382a37.055,37.055,0,0,0-1.461,3.754c-4.483,13.956.042,27.893,10.1,31.123s21.851-5.465,26.333-19.424c.134-.416.236-.831.352-1.25C393.992,288.06,371.276,278.538,371.628,263.382Z" transform="translate(-366.984 -245.574)" fill="#003dc6"/>
          <path id="Path_34850" data-name="Path 34850" d="M371.3,275.742c-2.754,8.575.2,17.188,6.6,19.245s13.818-3.229,16.575-11.8-.2-17.192-6.6-19.245S374.059,267.167,371.3,275.742Z" transform="translate(-362.348 -245.292)"/>
          <path id="Path_34851" data-name="Path 34851" d="M372.734,266.848a4.815,4.815,0,1,0,6.11-3.275A4.907,4.907,0,0,0,372.734,266.848Z" transform="translate(-356.772 -245.656)" fill="#fff"/>
          <path id="Path_34852" data-name="Path 34852" d="M374.717,271.909a2.533,2.533,0,1,0,3.215-1.722A2.584,2.584,0,0,0,374.717,271.909Z" transform="translate(-351.47 -228.715)" fill="#fff"/>
          <path id="Path_34853" data-name="Path 34853" d="M385.64,313.147h0a15.656,15.656,0,0,1-4.782-.743c-10.811-3.472-15.769-18.259-11.047-32.964,3.993-12.431,13.61-21.115,23.393-21.115a15.663,15.663,0,0,1,4.786.746c10.811,3.472,15.769,18.259,11.047,32.961C405.043,304.467,395.423,313.147,385.64,313.147Zm7.564-51.889c-8.385,0-17.051,8.022-20.6,19.079-4.226,13.163-.116,26.295,9.156,29.277a12.665,12.665,0,0,0,3.884.6c8.392,0,17.054-8.022,20.607-19.079,4.226-13.163.12-26.3-9.156-29.277A12.669,12.669,0,0,0,393.2,261.258Z" transform="translate(-368.023 -258.325)" fill="#002066"/>
        </g>
        <path id="Path_34854" data-name="Path 34854" d="M405.7,334.523h0c-14.984,0-31.461-5.141-36.1-11.248-6.236-6.856-6.367-18.643-.352-32.362,8.434-19.224,28.626-39.673,48.857-38.56a28.46,28.46,0,0,1,19.727,10.05,39.549,39.549,0,0,1,9.261,28.929c-.944,12.92-3.983,30.985-19.456,38.644C421.548,332.994,414.163,334.523,405.7,334.523Zm10.786-78.307c-18.03,0-35.951,18.685-43.659,36.267-5.307,12.1-5.416,22.654-.285,28.221l.134.159c3.014,4.071,17.04,9.754,33.024,9.754,7.744,0,14.73-1.433,20.2-4.141,13.677-6.772,16.417-23.463,17.29-35.429a35.591,35.591,0,0,0-8.3-26.062,24.576,24.576,0,0,0-17.009-8.73C417.424,256.23,416.956,256.216,416.491,256.216Z" transform="translate(-364.831 -247.775)"/>
      </g>
      <g id="Group_3452" data-name="Group 3452" transform="translate(42.654 27.006)">
        <path id="Path_34855" data-name="Path 34855" d="M371.785,265.472c.271-.655,6.856-16.065,26.83-17.368a32.431,32.431,0,0,1,29.545,14.6S416.286,250.865,398.869,252A39.35,39.35,0,0,0,371.785,265.472Z" transform="translate(-371.785 -248.029)" fill="#996434"/>
      </g>
    </g>
  </g>
</svg>
